<?xml version="1.0" encoding="UTF-8"?><svg id="a" xmlns="http://www.w3.org/2000/svg" xmlns:xlink="http://www.w3.org/1999/xlink" viewBox="0 0 197 82"><defs><style>.o{fill:url(#n);}.p{fill:#231f20;}.q,.r{isolation:isolate;}.s{filter:url(#l);}.t{fill:url(#f);filter:url(#g);}.u{fill:url(#c);filter:url(#d);}.v{fill:url(#i);filter:url(#j);}.w,.r{fill:maroon;}.r{font-family:ArialMT, Arial;font-size:10.9px;}</style><linearGradient id="c" x1="66.25" y1="2053.06" x2="66.25" y2="1999.86" gradientTransform="translate(0 -1994)" gradientUnits="userSpaceOnUse"><stop offset="0" stop-color="#fab802"/><stop offset=".2" stop-color="#fab906"/><stop offset=".3" stop-color="#fabc11"/><stop offset=".5" stop-color="#f9c124"/><stop offset=".6" stop-color="#f9c93f"/><stop offset=".8" stop-color="#f8d261"/><stop offset=".9" stop-color="#f8de8b"/><stop offset="1" stop-color="#f7e9b3"/></linearGradient><filter id="d" x="34" y="0" width="64" height="67" filterUnits="userSpaceOnUse"><feOffset dx="0" dy="1"/><feGaussianBlur result="e" stdDeviation="2"/><feFlood flood-color="maroon" flood-opacity="1"/><feComposite in2="e" operator="in"/><feComposite in="SourceGraphic"/></filter><linearGradient id="f" x1="117.25" y1="2052.46" x2="117.25" y2="1999.86" gradientTransform="translate(0 -1994)" gradientUnits="userSpaceOnUse"><stop offset="0" stop-color="#fab802"/><stop offset=".2" stop-color="#fab906"/><stop offset=".3" stop-color="#fabc11"/><stop offset=".5" stop-color="#f9c124"/><stop offset=".6" stop-color="#f9c93f"/><stop offset=".8" stop-color="#f8d261"/><stop offset=".9" stop-color="#f8de8b"/><stop offset="1" stop-color="#f7e9b3"/></linearGradient><filter id="g" x="92" y="0" width="51" height="66" filterUnits="userSpaceOnUse"><feOffset dx="0" dy="1"/><feGaussianBlur result="h" stdDeviation="2"/><feFlood flood-color="maroon" flood-opacity="1"/><feComposite in2="h" operator="in"/><feComposite in="SourceGraphic"/></filter><linearGradient id="i" x1="166.34" y1="2053.06" x2="166.34" y2="2000.56" gradientTransform="translate(0 -1994)" gradientUnits="userSpaceOnUse"><stop offset="0" stop-color="#fab802"/><stop offset=".2" stop-color="#fab906"/><stop offset=".3" stop-color="#fabc11"/><stop offset=".5" stop-color="#f9c124"/><stop offset=".6" stop-color="#f9c93f"/><stop offset=".8" stop-color="#f8d261"/><stop offset=".9" stop-color="#f8de8b"/><stop offset="1" stop-color="#f7e9b3"/></linearGradient><filter id="j" x="136" y="1" width="61" height="66" filterUnits="userSpaceOnUse"><feOffset dx="0" dy="1"/><feGaussianBlur result="k" stdDeviation="2"/><feFlood flood-color="maroon" flood-opacity="1"/><feComposite in2="k" operator="in"/><feComposite in="SourceGraphic"/></filter><filter id="l" x="-2" y="0" width="46" height="66" filterUnits="userSpaceOnUse"><feOffset dx="0" dy="1"/><feGaussianBlur result="m" stdDeviation="2"/><feFlood flood-color="maroon" flood-opacity="1"/><feComposite in2="m" operator="in"/><feComposite in="SourceGraphic"/></filter><linearGradient id="n" x1="20.95" y1="-968.74" x2="20.95" y2="-915.64" gradientTransform="translate(0 -910.28) scale(1 -1)" gradientUnits="userSpaceOnUse"><stop offset="0" stop-color="#fab801"/><stop offset=".2" stop-color="#f9b904"/><stop offset=".3" stop-color="#f9bc10"/><stop offset=".5" stop-color="#f9c123"/><stop offset=".6" stop-color="#f8c93f"/><stop offset=".8" stop-color="#f8d262"/><stop offset=".9" stop-color="#f7de8c"/><stop offset="1" stop-color="#f7e7ab"/></linearGradient></defs><g id="b"><path class="u" d="M89.1,15.76l-3.7,3.7c-2.5-2.6-5.5-4.8-8.8-6.3-2.9-1.4-6.1-2.1-9.3-2.1s-7.5,1-10.7,2.9c-3.3,1.9-6,4.6-7.9,7.9-1.8,3.2-2.8,6.9-2.8,10.6s1,7.5,2.9,10.8c1.9,3.4,4.6,6.2,8,8.1,3.4,2,7.3,3,11.2,2.9,4.6.1,9-1.4,12.5-4.4,3.4-2.9,5.5-7,6-11.4h-15.3v-4.9h20.6c0,7.8-2.2,14-6.6,18.6-4.3,4.6-10.2,6.9-17.5,6.9s-15.9-3.2-21-9.5c-3.9-4.8-6.1-10.8-6-17,0-4.7,1.1-9.3,3.4-13.4,2.2-4,5.4-7.4,9.4-9.7,4.1-2.4,8.7-3.6,13.5-3.5,3.9,0,7.8.8,11.5,2.3,3.9,1.8,7.5,4.3,10.5,7.4h.1s0,.1,0,.1Z"/><path class="t" d="M98.2,58.46V5.76h1.1l32.2,40.4V5.76h4.8v52.7h-1.1l-32-39.9v39.9s-5,0-5,0Z"/><path class="v" d="M190.4,17.06l-3.9,3c-2-2.7-4.7-4.9-7.7-6.4-3.1-1.5-6.5-2.2-9.9-2.1-3.8,0-7.6,1-10.9,2.9-3.2,1.8-5.9,4.5-7.8,7.7-1.9,3.3-2.8,7.1-2.8,10.9-.2,5.7,2.1,11.2,6.2,15.3,4.1,4.1,9.7,6.3,15.5,6.1,6.7,0,13.1-3,17.3-8.2l3.9,3c-2.4,3.2-5.6,5.7-9.2,7.4-3.8,1.8-8,2.7-12.3,2.6-8.6,0-15.4-2.9-20.3-8.7-4.2-5-6.4-11.4-6.2-17.9-.2-6.9,2.6-13.6,7.6-18.5,5-5,11.4-7.5,18.9-7.5s8.6.9,12.4,2.8c3.6,1.8,6.8,4.5,9.1,7.8v-.2h.1,0Z"/><path class="w" d="M2,64.46h187c.6,0,1.1.5,1.1,1.1h0c0,.6-.5,1.1-1.1,1.1H2c-.6,0-1.1-.5-1.1-1.1h0c0-.6.5-1.1,1.1-1.1Z"/><g class="q"><g class="q"><g class="q"><text class="r" transform="translate(0 78.46)"><tspan x="0" y="0" xml:space="preserve">  Plant Gene Nomenclature Committee</tspan></text></g></g></g><g class="s"><path d="M4.5,5.36h15.4c5.4,0,9.7,1.2,12.8,3.5,3.1,2.4,4.7,5.9,4.7,10.7s-1.6,8.3-4.7,10.7-7.4,3.6-12.8,3.6h-10v24.6h-5.4s0-53.1,0-53.1ZM9.9,28.86h8.7c2.4,0,4.4-.2,6.1-.8,1.7-.5,3-1.2,4-2s1.7-1.8,2.2-2.9c.4-1.1.7-2.3.7-3.6s-.2-2.4-.7-3.6c-.5-1.1-1.2-2.1-2.2-3-1-.8-2.3-1.5-4-2s-3.7-.7-6.1-.7h-8.7v18.5h0s0,.1,0,.1Z"/><path class="p" d="M4.5,5.36h15.4c5.4,0,9.7,1.2,12.8,3.5,3.1,2.4,4.7,5.9,4.7,10.7s-1.6,8.3-4.7,10.7-7.4,3.6-12.8,3.6h-10v24.6h-5.4s0-53.1,0-53.1ZM9.9,28.86h8.7c2.4,0,4.4-.2,6.1-.8,1.7-.5,3-1.2,4-2s1.7-1.8,2.2-2.9c.4-1.1.7-2.3.7-3.6s-.2-2.4-.7-3.6c-.5-1.1-1.2-2.1-2.2-3-1-.8-2.3-1.5-4-2s-3.7-.7-6.1-.7h-8.7v18.5h0s0,.1,0,.1Z"/><path class="p" d="M4.5,5.36h15.4c5.4,0,9.7,1.2,12.8,3.5,3.1,2.4,4.7,5.9,4.7,10.7s-1.6,8.3-4.7,10.7-7.4,3.6-12.8,3.6h-10v24.6h-5.4s0-53.1,0-53.1ZM9.9,28.86h8.7c2.4,0,4.4-.2,6.1-.8,1.7-.5,3-1.2,4-2s1.7-1.8,2.2-2.9c.4-1.1.7-2.3.7-3.6s-.2-2.4-.7-3.6c-.5-1.1-1.2-2.1-2.2-3-1-.8-2.3-1.5-4-2s-3.7-.7-6.1-.7h-8.7v18.5h0s0,.1,0,.1Z"/><path class="o" d="M4.5,5.36h15.4c5.4,0,9.7,1.2,12.8,3.5,3.1,2.4,4.7,5.9,4.7,10.7s-1.6,8.3-4.7,10.7-7.4,3.6-12.8,3.6h-10v24.6h-5.4s0-53.1,0-53.1ZM9.9,28.86h8.7c2.4,0,4.4-.2,6.1-.8,1.7-.5,3-1.2,4-2s1.7-1.8,2.2-2.9c.4-1.1.7-2.3.7-3.6s-.2-2.4-.7-3.6c-.5-1.1-1.2-2.1-2.2-3-1-.8-2.3-1.5-4-2s-3.7-.7-6.1-.7h-8.7v18.5h0s0,.1,0,.1Z"/></g></g></svg>