<?xml version="1.0" encoding="UTF-8"?><svg id="a" xmlns="http://www.w3.org/2000/svg" xmlns:xlink="http://www.w3.org/1999/xlink" viewBox="0 0 185.9 53.91"><defs><style>.g{fill:url(#f);}.h{fill:url(#e);}.i{fill:url(#d);}.j{fill:url(#c);}.k{fill:#231f20;}</style><linearGradient id="c" x1="61.75" y1="-974.7" x2="61.75" y2="-921.5" gradientTransform="translate(0 -921) scale(1 -1)" gradientUnits="userSpaceOnUse"><stop offset="0" stop-color="#fab802"/><stop offset=".2" stop-color="#fab906"/><stop offset=".3" stop-color="#fabc11"/><stop offset=".5" stop-color="#f9c124"/><stop offset=".6" stop-color="#f9c93f"/><stop offset=".8" stop-color="#f8d261"/><stop offset=".9" stop-color="#f8de8b"/><stop offset="1" stop-color="#f7e9b3"/></linearGradient><linearGradient id="d" x1="112.75" y1="-974.1" x2="112.75" y2="-921.5" gradientTransform="translate(0 -921) scale(1 -1)" gradientUnits="userSpaceOnUse"><stop offset="0" stop-color="#fab802"/><stop offset=".2" stop-color="#fab906"/><stop offset=".3" stop-color="#fabc11"/><stop offset=".5" stop-color="#f9c124"/><stop offset=".6" stop-color="#f9c93f"/><stop offset=".8" stop-color="#f8d261"/><stop offset=".9" stop-color="#f8de8b"/><stop offset="1" stop-color="#f7e9b3"/></linearGradient><linearGradient id="e" x1="161.84" y1="-974.7" x2="161.84" y2="-922.2" gradientTransform="translate(0 -921) scale(1 -1)" gradientUnits="userSpaceOnUse"><stop offset="0" stop-color="#fab802"/><stop offset=".2" stop-color="#fab906"/><stop offset=".3" stop-color="#fabc11"/><stop offset=".5" stop-color="#f9c124"/><stop offset=".6" stop-color="#f9c93f"/><stop offset=".8" stop-color="#f8d261"/><stop offset=".9" stop-color="#f8de8b"/><stop offset="1" stop-color="#f7e9b3"/></linearGradient><linearGradient id="f" x1="16.45" y1="1049.1" x2="16.45" y2="996" gradientTransform="translate(0 -996)" gradientUnits="userSpaceOnUse"><stop offset="0" stop-color="#fab801"/><stop offset=".2" stop-color="#f9b904"/><stop offset=".3" stop-color="#f9bc10"/><stop offset=".5" stop-color="#f9c123"/><stop offset=".6" stop-color="#f8c93f"/><stop offset=".8" stop-color="#f8d262"/><stop offset=".9" stop-color="#f7de8c"/><stop offset="1" stop-color="#f7e7ab"/></linearGradient></defs><g id="b"><path class="j" d="M84.6,10.4l-3.7,3.7c-2.5-2.6-5.5-4.8-8.8-6.3-2.9-1.4-6.1-2.1-9.3-2.1s-7.5,1-10.7,2.9c-3.3,1.9-6,4.6-7.9,7.9-1.8,3.2-2.8,6.9-2.8,10.6s1,7.5,2.9,10.8c1.9,3.4,4.6,6.2,8,8.1,3.4,2,7.3,3,11.2,2.9,4.6.1,9-1.4,12.5-4.4,3.4-2.9,5.5-7,6-11.4h-15.3v-4.9h20.6c0,7.8-2.2,14-6.6,18.6-4.3,4.6-10.2,6.9-17.5,6.9s-15.9-3.2-21-9.5c-3.9-4.8-6.1-10.8-6-17,0-4.7,1.1-9.3,3.4-13.4,2.2-4,5.4-7.4,9.4-9.7,4.1-2.4,8.7-3.6,13.5-3.5,3.9,0,7.8.8,11.5,2.3,3.9,1.8,7.5,4.3,10.5,7.4h.1v.1Z"/><path class="i" d="M93.7,53.1V.4h1.1l32.2,40.4V.4h4.8v52.7h-1.1L98.7,13.2v39.9s-5,0-5,0Z"/><path class="h" d="M185.9,11.7l-3.9,3c-2-2.7-4.7-4.9-7.7-6.4-3.1-1.5-6.5-2.2-9.9-2.1-3.8,0-7.6,1-10.9,2.9-3.2,1.8-5.9,4.5-7.8,7.7-1.9,3.3-2.8,7.1-2.8,10.9-.2,5.7,2.1,11.2,6.2,15.3,4.1,4.1,9.7,6.3,15.5,6.1,6.7,0,13.1-3,17.3-8.2l3.9,3c-2.4,3.2-5.6,5.7-9.2,7.4-3.8,1.8-8,2.7-12.3,2.6-8.6,0-15.4-2.9-20.3-8.7-4.2-5-6.4-11.4-6.2-17.9-.2-6.9,2.6-13.6,7.6-18.5,5-5,11.4-7.5,18.9-7.5s8.6.9,12.4,2.8c3.6,1.8,6.8,4.5,9.1,7.8v-.2h.1Z"/><path d="M0,0h15.4c5.4,0,9.7,1.2,12.8,3.5,3.1,2.4,4.7,5.9,4.7,10.7s-1.6,8.3-4.7,10.7-7.4,3.6-12.8,3.6H5.4v24.6H0S0,0,0,0ZM5.4,23.5h8.7c2.4,0,4.4-.2,6.1-.8,1.7-.5,3-1.2,4-2s1.7-1.8,2.2-2.9c.4-1.1.7-2.3.7-3.6s-.2-2.4-.7-3.6c-.5-1.1-1.2-2.1-2.2-3-1-.8-2.3-1.5-4-2s-3.7-.7-6.1-.7H5.4v18.5h0v.1Z"/><path class="k" d="M0,0h15.4c5.4,0,9.7,1.2,12.8,3.5,3.1,2.4,4.7,5.9,4.7,10.7s-1.6,8.3-4.7,10.7-7.4,3.6-12.8,3.6H5.4v24.6H0S0,0,0,0ZM5.4,23.5h8.7c2.4,0,4.4-.2,6.1-.8,1.7-.5,3-1.2,4-2s1.7-1.8,2.2-2.9c.4-1.1.7-2.3.7-3.6s-.2-2.4-.7-3.6c-.5-1.1-1.2-2.1-2.2-3-1-.8-2.3-1.5-4-2s-3.7-.7-6.1-.7H5.4v18.5h0v.1Z"/><path class="k" d="M0,0h15.4c5.4,0,9.7,1.2,12.8,3.5,3.1,2.4,4.7,5.9,4.7,10.7s-1.6,8.3-4.7,10.7-7.4,3.6-12.8,3.6H5.4v24.6H0S0,0,0,0ZM5.4,23.5h8.7c2.4,0,4.4-.2,6.1-.8,1.7-.5,3-1.2,4-2s1.7-1.8,2.2-2.9c.4-1.1.7-2.3.7-3.6s-.2-2.4-.7-3.6c-.5-1.1-1.2-2.1-2.2-3-1-.8-2.3-1.5-4-2s-3.7-.7-6.1-.7H5.4v18.5h0v.1Z"/><path class="g" d="M0,0h15.4c5.4,0,9.7,1.2,12.8,3.5,3.1,2.4,4.7,5.9,4.7,10.7s-1.6,8.3-4.7,10.7-7.4,3.6-12.8,3.6H5.4v24.6H0S0,0,0,0ZM5.4,23.5h8.7c2.4,0,4.4-.2,6.1-.8,1.7-.5,3-1.2,4-2s1.7-1.8,2.2-2.9c.4-1.1.7-2.3.7-3.6s-.2-2.4-.7-3.6c-.5-1.1-1.2-2.1-2.2-3-1-.8-2.3-1.5-4-2s-3.7-.7-6.1-.7H5.4v18.5h0v.1Z"/></g></svg>