<svg version="1.1" id="Layer_1" xmlns="http://www.w3.org/2000/svg" x="0" y="0" viewBox="0 0 2279.4 468.4" xml:space="preserve"><style>.st0,.st2,.st3{fill-rule:evenodd;clip-rule:evenodd}.st2{fill:#6a6a6a}.st3{fill:#d5d5d5}</style><path class="st0" d="M93.9 2.1h218l9.4-1.1h23c10.4 0 27.1 0 52.2-1.1h9.4c-1.1 18.8-2.1 26.1-2.1 36.5v211.8c0 97-21.9 130.4-127.3 182.6-4.2 2.1-58.4 29.2-63.6 32.3l-5.2 2.1-5.2 3.1-6.3-3.1-5.2-2.1c-21.9-12.5-43.8-21.9-61.6-31.3-96-46.9-127.3-80.2-127.3-183.5V36.5C2.1 18.8 1 12.5 0 0h9.4c24 1.1 41.7 1.1 52.2 1.1h21.9l10.4 1z"/><path d="M202.4 459l40.7-20.8h1.1v-193l1 1h151.3v-83.4H244.1V8.4l-1.1 1h-81.4l-2.1-1.1 1.1 2.1v152.3H9.4v83.4h150.2l1.1-1v192l-1.1 1.1h1.1l41.7 20.8z" fill-rule="evenodd" clip-rule="evenodd" fill="#fff"/><path class="st2" d="M11.5 9.4l-2.1-1v154.4h151.3V8.4l-1.1 1.1H11.5zm234.7 0l-2.1-1.1v154.4h152.3V8.4l-1.1 1.1H246.2zm-86.6 236.8H10.4l-1.1-1v10.4c0 83.5 28.2 124.1 113.7 164.8l27.1 13.6 9.4 4.2 1.1 1v-194l-1 1zm85.5 0l-1-1v193l1-1 8.4-3.1c115.8-55.3 142.9-87.6 142.9-177.3v-11.5l-1.1 1H245.1z"/><path class="st0" d="M34.4 170.1c0 1 0 1 1.1 1 0 1.1 0 1.1 1 1.1 0 0 0 1.1 1.1 1.1 0 1.1 0 1.1 1.1 1.1l-1.1 1-1.1 1.1-1 1.1-1.1 1.1v1c0 10.4 3.1 17.7 9.4 21.9l1 1.1-1 1-2.1-1h-5.2l-1 9.4h-2.1l-1-9.4H26l-1.1 1c-1 0-1-1-1-1v-1.1l2.1-1c2.1-1 3.1-3.1 5.2-6.3 0-2.1 1.1-3.1 1.1-4.2 0-3.1 0-5.2 1-5.2v-7.3l-1-1.1-2.1-1.1v-1s1.1 0 1.1-1.1c2.1-1.2 2.1-1.2 3.1-3.2zm49 0c1.1 2.1 1.1 2.1 3.1 3.1 0 1.1 0 1.1 1 1.1l-1 1-1 1-1.1 1.1-1.1 1.1v1l1.1 5.2c0 6.3 4.2 14.6 8.4 16.7l1.1 1.1-1.1 1-2.1-1h-5.2l-2.1 9.4h-1.1l-1-9.4H75l-1.1 1c-1.1 0-1.1-1-1.1-1v-1.1l2.1-1c2.1-1 2.1-2.1 4.2-6.3 1.1-2.1 2.1-3.1 2.1-4.2 0-3.1 0-5.2 1-5.2v-7.4c-1 0-1-1.1-2.1-1.1l-1.1-1.1v-1l1.1-1.1 1.1-1.1 1-1.1c.2.3.2.3 1.2-.7zm-25 29.2l1.1 1 1.1 1 1 1.1 1.1 1-2.1 2.1-1.1 1v1.1c0 11.5 2.1 17.7 8.3 23h1.1l-1.1 1.1h-3.1l-2.1-1.1h-2.1l-1.1 9.4h-2.1l-1-9.4h-1.1l-2.1 1.1h-5.2l1-1.1 2.1-1.1c4.2-3.1 6.3-12.5 6.3-21.9v-1.1l-1-1-1.1-2.1h-1.1l4.3-4.1zm49 0c2.1 1 2.1 2.1 4.2 4.2l-1.1 2.1-1 1h-1.1v1.1c0 7.3 2.1 15.7 4.2 18.8l3.1 3.1 1 1.1h1.1l-1.1 1.1h-3.1l-2.1-1.1h-2.1l-1.1 9.4h-1.1l-2.1-9.4H104l-2.1 1.1H97l1.1-1.1 2.1-1.1c4.2-4.2 7.3-12.5 7.3-21.9v-1.1h-1l-1.1-1-1.1-2.1h-1c1 0 1-1 2.1-1 0 0 0-1.1 1.1-1.1l1-1-.1-1.1zm25.1-29.2c1 2.1 1 2.1 3.1 3.1 0 1.1 0 1.1 1.1 1.1l-1.1 1-1.1 1.1-1.1 1.1v7.3c0 6.3 4.2 14.6 8.4 16.7l1.1 1.1s0 1-1.1 1l-1-1h-6.2l-1.1 9.4h-2.1l-1.1-9.4H124l-1.1 1c-1.1 0-1.1-1-1.1-1l1.1-1.1 1.1-1c2.1-1 3.1-2.1 5.2-6.3 1.1-2.1 1.1-3.1 1.1-4.2 0-3.1 0-5.2 1.1-5.2v-7.3l-1.1-1.1-1.1-1.1s-1 0-1-1c0 0 1 0 1-1.1 1.1 0 1.1-1.1 1.1-1.1s1.1 0 1.1-1.1c0 .1 1.1.1 1.1-.9zm139.7 0l1.1 1 1.1 1.1c0 1.1 1.1 1.1 1.1 1.1 0 1.1 0 1.1 1 1.1l-1 1-1.1 1.1-1.1 1.1v1.1c0 10.4 3.1 19.8 8.4 22.9 1 0 1 1.1 1 1.1h-2.1c-2.1 0-4.2 0-6.3-1.1l-1.1 9.4h-2.1l-1.1-9.4c-2.1 1.1-5.2 1.1-6.3 1.1h-2.1s0-1.1 1.1-1.1c5.2-3.1 8.4-12.5 8.4-22.9v-1.1l-1.1-1.1-1.1-1.1-1.1-1s1.1 0 1.1-1.1c0 0 1.1 0 1.1-1.1l1.1-1.1 1.1-1zm49.1 0l1 1 1.1 1.1 1.1 1.1 1 1.1v1l-2.1 1.1-1.1 1.1v1.1c0 10.4 3.1 19.8 8.4 22.9 1.1 0 1.1 1.1 1.1 1.1h-2.1c-1.1 0-4.2 0-6.3-1.1l-1.1 9.4h-2.1l-1.1-9.4c-2.1 1.1-4.2 1.1-6.3 1.1h-2.1c0-1.1 1.1-1.1 1.1-1.1 1.1-1 3.1-2.1 4.2-4.2 2.1-3.1 3.1-6.3 3.1-8.4 0-2.1 1.1-4.2 1.1-4.2v-5.2l1.1-2.1h-1.1l-3.1-3.1 1.1-1.1 1-1.1 1.1-1.1 1-1zm-24 29.2v1c1.1 0 1.1 0 1.1 1 1 0 1 0 1 1.1 1.1 0 1.1 0 2.1 1h-1.1l-1.1 1.1-1 1.1-1.1 1v2.1l1.1 4.2c0 7.3 4.2 14.6 8.3 16.7 0 1.1 1.1 1.1 1.1 2.1h-3.1c-1.1 0-4.2-1.1-5.2-1.1l-2.1 9.4h-1.1l-2.1-9.4c-1 1.1-4.2 1.1-6.3 1.1-1 0-1 0-1-1.1l1-1.1c1.1 0 3.1-2.1 4.2-4.2 2.1-3.1 3.1-6.3 3.1-7.3 0-3.1 0-5.2 1-5.2v-6.3l-1-1-1.1-1.1-1-1.1c0-1 1-1 1-1 1.2-2 2.2-2 3.3-3zm49 0c1.1 0 1.1 0 1.1 1 1 0 1 0 1 1 0 0 1.1 0 1.1 1.1 0 0 1.1 0 1.1 1-1.1 1.1-1.1 1.1-2.1 1.1 0 1.1-1 1.1-1 1.1v7.3c1 7.3 4.2 14.6 8.4 16.7 1 1.1 1 1.1 1 2.1h-2.1c-1.1 0-4.2-1.1-6.3-1.1l-1 9.4h-2.1l-1-9.4c-2.1 1.1-4.2 1.1-6.3 1.1-1.1 0-2.1 0-2.1-1.1 0 0 1 0 1-1.1 1.1 0 3.1-2.1 4.2-4.2 2.1-3.1 3.1-6.3 4.2-7.3v-9.4l1.1-2.1-1.1-1-1-1.1-1.1-1.1h-1.1l1.1-1 3-3zm25.1-29.2l1.1 1 1 1.1 1 1.1 1.1 1.1-1.1 1-1 1.1-1 1.1v1.1c0 10.4 3.1 19.8 8.3 22.9 1.1 0 1.1 1.1 1.1 1.1h-2.1c-2.1 0-4.2 0-6.3-1.1l-1 9.4h-2.1l-1-9.4c-2.1 1.1-5.2 1.1-6.3 1.1H361c0-1.1 0-1.1 1.1-1.1 1.1-1 3.1-2.1 4.2-4.2 2.1-3.1 3.1-6.3 3.1-8.4 0-2.1 0-4.2 1-4.2v-7.3l-1-1.1-2.1-1.1v-1l1-1.1 1.1-1.1 1-1.1 1-.9zm-192 133.5c1.1 1.1 1.1 2.1 3.1 3.1 0 1 1.1 1 1.1 1l-1.1 1-1.1 1-1.1 1.1v7.3c0 4.2 2.1 9.4 4.2 12.5 1.1 2.1 3.1 4.2 4.2 4.2s1.1 1 1.1 1 0 1-2.1 1-4.2-1-6.3-1l-1.1 8.3h-2.1l-1.1-8.3c-2.1 0-4.2 1-6.3 1h-1c-1.1 0-1.1-1-1.1-1s0-1 1.1-1c1-1 3.1-2.1 4.2-4.2 2.1-4.2 3.1-6.3 3.1-7.3 0-3.1 1.1-5.2 1.1-5.2v-7.3l-1.1-1.1-1.1-1-1.1-1c1.1 0 1.1 0 1.1-1 1.1 0 1.1-1 1.1-1s1.1 0 1.1-1c.2-.1 1.2-.1 1.2-1.1zm45.9 0c1 1.1 2.1 2.1 3.1 3.1l1.1 1v1l-1.1 1-1.1 1.1-1.1 1v6.3c1.1 4.2 2.1 9.4 4.2 12.5 2.1 2.1 3.1 4.2 4.2 4.2s1.1 1 1.1 1 0 1-1.1 1c-2.1 0-5.2-1-6.3-1l-2.1 8.3h-1l-2.1-8.3c-1.1 0-4.2 1-5.2 1h-1c-1.1 0-2.1-1-2.1-1s1.1-1 2.1-1c1-1 2.1-2.1 3.1-4.2 3.1-4.2 4.2-6.3 4.2-7.3v-5.2l1.1-5.2v-1l-1.1-1-2.1-2.1-1-1c1 0 1 0 1-1 1.1 0 1.1-1 2.1-1l1.1-1v-1.2zm-22.9 41.7v2.1h2.1l1 2.1 1.1 1.1h-1.1l-1 1s0 1-1 1c0 0 0 1-1.1 1l1.1 1v5.2c0 7.3 4.2 15.7 8.3 16.7l1.1 1v1h-5.2c0-1-1-1-2.1-1h-1l-1 9.4h-2.1l-1.1-9.4h-1.1l-3.1 1H193c-1 0-1 0-1-1l1-1c1.1 0 3.1-2.1 4.2-4.2 2.1-3.1 3.1-6.3 3.1-7.3 0-3.1 0-5.2 1.1-5.2v-7.3l-1.1-1-1.1-1h-1l1-1.1 1.1-2.1 1.1-1 1-1zm-23 42.8l1.1 1 1.1 1.1 1.1 2.1 1.1 1h-1.1l-1.1 1-1.1 1v7.3c0 7.3 4.2 14.6 8.4 16.7l1.1 1-1.1 1h-1.1c-1 0-3.1-1-6.3-1l-1.1 9.4h-2.1l-1.1-9.4c-3.1 0-5.2 1-6.3 1-2.1 0-2.1 0-2.1-1l1.1-1c1 0 3.1-2.1 4.2-4.2 2.1-3.1 3.1-6.3 3.1-7.3 0-3.1 0-5.2 1.1-5.2v-7.3c-1.1 0-1.1-1-1.1-1l-1.1-1H175l1.1-1 1.1-2.1 1.1-1.1 1.1-1zm45.9 0l1 1 1.1 1.1 1.1 2.1 1.1 1-1.1 1c-1.1 0-1.1 1-1.1 1-1.1 0-1.1 1.1-1.1 1.1v6.3c1.1 4.2 2.1 9.4 4.2 12.5 2.1 2.1 3.1 4.2 4.2 4.2l1.1 1c0 1 0 1-1.1 1-2.1 0-4.2-1-6.3-1l-2.1 9.4h-1l-2.1-9.4c-3.1 0-4.2 1-5.2 1h-1c-1.1 0-2.1 0-2.1-1 0 0 1.1 0 2.1-1 1 0 2.1-2.1 3.1-4.2 3.1-3.1 4.2-6.3 4.2-7.3v-5.2l1.1-5.2v-1l-1.1-1.1-1.1-1-1.1-1h-1l1-1 2.1-2.1 1.1-1.1v-1.1zm-22.9-126.2l1.1 1 1 1 1 1.1 1.1 1-1.1 1-1 1-1 1h-1.1l1.1 2.1v4.2c0 7.3 4.2 15.7 8.3 17.8 0 0 1.1 0 1.1 1h-2.1c-1 0-3.1 0-6.3-1l-1 9.4h-2.1l-1.1-9.4c-3.1 1-5.2 1-6.3 1h-2.1c0-1 0-1 1-1l4.2-4.2c2.1-4.2 3.1-6.3 3.1-8.4 0-2.1 0-5.2 1.1-5.2V269l-1.1-1-1.1-1-1-1 1-1 1.1-1.1 1.1-1 1.1-1zM179.4 25v1l1.1 1.1c1.1 0 1.1 1.1 2.1 1.1v2.1l-1 1-1.1 1s-1.1 0-1.1 1.1v1.1l1.1 5.2c0 4.2 2.1 10.4 4.2 12.5l2.1 3.1 1 1.1 2.1 1-2.1 1.1-1-1.1h-5.2l-2.1 8.4-1 1-1.1-9.4h-6.3l-1 1.1c-1.1 0-1.1-1.1-1.1-1.1v-1s1.1 0 2.1-1.1c2.1-1.1 2.1-2.1 4.2-6.3 1.1-2.1 2.1-3.1 2.1-4.2 0-3.1 0-5.2 1.1-5.2v-6.3l-1.1-1.1-1.1-1-1.1-1.1V29l1.1-1c1-.9 2.1-.9 3.1-3zm45.9 0c1 2.1 2.1 2.1 3.1 3.1l1.1 1v1.1l-1.1 1.1-1.1 1-1.1 1.1v6.3c1.1 6.3 5.2 14.6 8.4 16.7 1.1 0 1.1 1 1.1 1v1.1l-2.1-1.1h-5.2l-2.1 9.4h-1l-2.1-9.4-1.1-1-2.1 1h-2l-1 1.1h-1.1v-2.1l2.1-1.1c2.1-1.1 2.1-2.1 4.2-6.3 1.1-2.1 2.1-3.1 2.1-4.2v-5.2l1.1-5.2v-1.1l-1.1-1.1-1.1-1c0-1.1-1.1-1.1-1.1-1.1l-1-1.1c1 0 1 0 1-1 1.1 0 1.1-1.1 2.1-1.1l1.1-1.1V25zm-22.9 40.7v1l1.1 1.1c1 1 1 1 2.1 1 0 1 0 1 1.1 1l-1.1 1.1-1 1-1 1.1-1.1 1.1v1l1.1 4.2c0 7.3 4.2 15.7 8.3 17.7l1.1 1.1h-3.1c-1.1 0-4.2 0-5.2-1.1l-2.1 9.4h-1l-1.1-9.4c-2.1 1.1-5.2 1.1-7.3 1.1h-1s0-1.1 1-1.1c1.1 0 3.1-2.1 4.2-4.2 2.1-3.1 3.1-6.3 3.1-7.3 0-3.1 0-5.2 1.1-5.2V74c0-1.1 0-1.1-1.1-1.1V72l-2.1-1v-1.1l1-1 1.1-1 1.1-1.1.8-1.1zm-24 40.7l1 1.1 1.1 1 1.1 1 1.1 1.1-1.1 2.1-1.1 1.1h-1.1v1c0 7.3 2.1 15.7 4.2 17.7l3.1 4.2 1 1h1.1l-1.1 1.1h-3.1l-2.1-1.1h-1l-2.1 9.4h-1l-2.1-9.4h-1.1l-2.1 1.1h-5.2l1.1-1.1 2.1-1c4.2-4.2 7.3-12.5 7.3-21.9v-1h-1.1l-1.1-1.1c0-1-1.1-1-1.1-2.1h-1c1 0 1-1.1 2.1-1.1 0 0 0-1 1.1-1l1.1-1v-1.1zm46.9 0c1 0 1 1.1 1 1.1 1.1 0 1.1 1 1.1 1s1.1 0 1.1 1l1.1 1.1-2.1 2.1-1.1 1.1v6.3c1.1 7.3 3.1 13.6 8.4 17.7h1.1l-1.1 1.1h-3.2l-2.1-1.1h-2.1l-1.1 9.4h-2.1l-1.1-9.4c-2.1 0-2.1 1.1-3.1 1.1h-5.2l1.1-1.1 2.1-1c1.1-2.1 2.1-2.1 4.2-7.3 1.1-2.1 1.1-3.1 1.1-4.2 0-2.1 1.1-5.2 1.1-5.2v-4.2l1.1-2.1h-1.1l-1.1-1.1-1.1-2.1h-1c1 0 1-1.1 1-1.1l3.1-3.1zm-97-20.8l1 2.1c0 1.1 1.1 3.1 1.1 4.2 1.1 7.3 3.1 9.4 6.3 9.4 2.1 0 4.2-2.1 4.2-3.1l1-3.1 1.1-1c1.1 0 2.1 2.1 2.1 5.2 0 1 0 3.1 1 6.3 0 2.1 1.1 4.2 1.1 5.2 0 2.1-1.1 3.1-1.1 4.2 0 3.1 1.1 6.3 1.1 8.4 0 3.1-1.1 6.3-2.1 7.3 1 2.1 1 3.1 1 5.2 0 1.1 0 3.1-1 4.2v8.3l-3.1-1.1-2.1-1.1c-1.1-1-2.1-1-3.1-2.1-3.1 2.1-3.1 2.1-10.4 4.2-1.1 0-2.1 0-2.1 1-1.1 0-2.1 1.1-2.1 1.1-1 0-2.1-2.1-2.1-6.3 0-2.1 1.1-5.2 1.1-6.3-2.1-1-3.1-2.1-4.2-2.1 0 0-1 1.1-2.1 1.1h-1.1v-4.2l2.1-3.1c0-1 1-2.1 3.1-4.2 1.1-1 2.1-1 3.1-2.1h4.2c3.1-1.1 5.2-2.1 5.2-4.2s-2.1-3.1-4.2-4.2l-6.3-2.1c-1.1 0-3.1-1-4.2-2.1-3.1-2.1-4.2-2.1-5.2-2.1-1.1 0-1.1 0-1.1 2.1s1.1 4.2 3.1 4.2c1.1 0 1.1 0 1.1-1h2.1s1.1 0 1.1 1l-1.1 3.1c0 1.1-1 4.2-4.2 7.3l-1 2.1c-1.1 4.2-3.1 7.3-6.3 9.4-1.1 1-2.1 1-2.1 1s0 1.1-1.1 2.1c0 1-1.1 2.1-2.1 3.1l-3 3.1c-2.1 1.1-3.1 2.1-3.1 2.1l-1.1 2.1c0 1.1-1.1 1.1-1.1 1.1-1.1 0-2.1-1.1-3.1-3.1 0-2.1-1.1-2.1-2.1-2.1h-8.3c-2.1 0-5.2 1.1-7.3 2.1h-1s-1 0-1-1.1V146c0-2.1 1-6.3 4.2-10.4 1.1-2.1 1.1-2.1 3.1-4.2-.8-1.9-2.3-3.4-4.2-4.2h-2.1v-1.1c0-1.1 1-1.1 3.1-2.1 2.1-2.1 5.2-2.1 6.3-2.1 3.1 0 5.2 0 7.3 2.1 3.1 3.1 4.2 3.1 6.3 3.1s5.2-2.1 5.2-5.2c0-1.1-1.1-3.1-3.1-6.3-4.2-5.2-5.2-7.3-5.2-10.4 0-2.1 1-5.2 2.1-6.3l1.1-2.1v-1.1c0-1.1-1.1-2.1-2.1-2.1-2.1 0-6.3 2.1-9.4 4.2-1.1 0-2.1 2.1-2.1 2.1v1.1l2.1 1.1v1l-1.1 1.1-2.1 3.1c-1.1 1-3.1 4.2-5.2 5.2-1 1.1-1 1.1-2.1 1.1 0 0 0 1-1 2.1 0 2.1-3.1 4.2-5.2 6.3-1 1.1-2.1 1.1-2.1 1.1s0 1.1-1.1 2.1c0 1.1-1 2.1-1 3.1-2.1 1-3.1 3.1-3.1 3.1l-4.2 4.2c-1 1.1-2.1 3.1-3.1 8.3l-2.1 4.2c-1.1 0-1.1 0-1.1-1.1-3.1-3.1-5.2-4.2-6.3-4.2h-1.1c-1.1 1-3.1 1-4.2 2.1h-4.2c-4.2 1-5.2 2.1-7.3 4.2l-1 1.1c-1.1 0-1.1-1.1-1.1-1.1V147l1.1-3.1c0-3.1 1-6.3 2.1-8.3l2.1-4.2c1.1-1.1 1.1-1.1 1.1-2.1 0-3.1-3.1-5.2-7.3-6.3h-1.1c0-1.1 1.1-2.1 2.1-3.1 3.1-2.1 6.3-4.2 8.4-4.2s4.2 1.1 6.3 2.1l3.1 1.1c1.1 0 2.1 1.1 2.1 1.1 3.1 0 6.3-3.1 10.4-9.4 1-3.1 2.1-4.2 2.1-6.3 0-3.1-2.1-5.2-4.2-5.2s-4.2 1-6.3 2.1c-1.1 1.1-1.1 3.1-1.1 4.2v2.1c0 1-1.1 1-1.1 1-2.1 0-3.1-1-8.4-7.3C29 96 28 94.9 28 89.7c-4.2-5.2-5.2-8.4-5.2-11.5v-3.1c-3.1-3.1-4.2-5.2-4.2-9.4 0-1 1.1-1 1.1-3.1-1.1-2.1-2.1-3.1-2.1-5.2l-1.1-2.1c0-1.9-.8-3.8-2.1-5.2-1-1-1-2.1-1-2.1 0-2.1 1.1-2.1 5.2-3.1v-3.1c0-1 0-1.1 1.1-3.1v-5.2c1.1-1.1 1.1-3.1 1.1-4.2 0 0 0-1-1.1-4.2 0-1.1-1.1-2.1-1.1-2.1-1-1-1-2.1-1-2.1 0-1 0-1 1-1 1.1 0 4.2 2.1 8.4 5.2 7.3 6.3 8.4 8.3 9.4 15.6 0 1.1 1.1 2.1 1.1 3.1 3.3 2 5.2 5.6 5.2 9.4 0 2.1-1.1 5.2-3.1 8.4l-2.1 3.1c-1.1 2.1-1.1 3.1-1.1 5.2s1.1 4.2 2.1 7.3c2.1 3.1 4.2 5.2 6.3 5.2 3.1 0 6.3-6.3 6.3-12.5v-8.4c0-2.1 1.1-3.1 1.1-3.1v-5.2c0-1-1.1-2.1-2.1-3.1L48 47c-4.2-4.2-6.3-8.4-6.3-11.5 0-4.2 2.1-7.3 6.3-7.3 1 0 1 1 3.1 1v-1c0-5.2 1.1-9.4 2.1-9.4h1.1l2.1 2.1 3.1 1.1v1c0-1 1.1-1 2.1-3.1 0-1 1.1-1 2.1-3.1 0-1.1 1-1.1 1-1.1 0-1.1 0-1.1 1.1-2.1 0 0 0-1.1 1.1-1.1 0 0 0 1.1 1 2.1 0 1.1 0 1.1 2.1 3.1 1 1.1 2.1 1.1 2.1 2.1 0 0 0 1 1 2.1v1c1.1-1 2.1-1 3.1-2.1l2.1-1 1-1s0 1 1.1 1c0 1 0 1 1.1 2.1 1 2.1 1 3.1 1 4.2v3.1c4.2 1.1 6.3 4.2 6.3 8.4 0 3.1-2.1 7.3-5.2 11.5-2.1 2.1-2.1 3.1-2.1 4.2 0 10.4 6.3 15.7 17.7 15.7h9.4c5.2 0 8.3 1 13.6 2.1 6.3 2.1 8.4 3.1 9.4 3.1s2.1 0 2.1-1.1c1.1 0 1.1 0 1.1-1.1 0-2.1-3.1-3.1-13.6-6.3-21.9-6.3-30.3-14.6-30.3-28.2 0-11.5 8.4-19.8 20.9-19.8 3.1 0 9.4 1.1 12.5 2.1l5.2 2.1c1.1 0 2.1 1 3.1 1 2.1 0 2.1-2.1 2.1-5.2 0-1 1.1-2.1 2.1-2.1s4.2 2.1 6.3 5.2c2.1 2.1 3.1 6.3 3.1 8.4 0 3.1-1 5.2-4.2 6.3-3.1 5.2-7.3 6.3-11.5 6.3s-9.4-2.1-17.7-6.3c-3.1-2.1-5.2-3.1-6.3-3.1-3.1 0-4.2 2.1-4.2 4.2 0 1 1.1 3.1 5.2 4.2 5.2 2.1 7.3 2.1 9.4 5.2 6.3 1.1 9.4 2.1 13.6 5.2 11.5 3.1 18.8 11.5 18.8 19.8 0 9.4-6.3 15.6-14.6 15.6-2.2 0-3.3-1-6.4-1zm242 0v2.1c1 1.1 1 3.1 1 4.2 2.1 7.3 3.1 9.4 7.3 9.4 2.1 0 3.1-2.1 4.2-3.1V95c1.1 0 1.1-1 2.1-1s2.1 2.1 2.1 5.2c0 1 0 3.1 1.1 6.3v6.3c0 1 0 2.1-1.1 3.1l1.1 2.1v4.2c0 6.3 0 7.3-1.1 9.4v9.4l-1 4.2v2.1c1 1.1 1 1.1 1 2.1h-1l-2.1-1.1-3.1-1.1c-1.1-1-1.1-1-3.1-2.1-2.1 2.1-2.1 2.1-5.2 3.1-4.2 1.1-6.3 1.1-7.3 2.1l-1 1.1c-1.1 0-2.1-2.1-2.1-5.2 0-4.2 0-6.3 1.1-7.3-3.1-1-4.2-2.1-5.2-2.1l-1.1 1.1h-1l-1.1-1.1c0-2.1 1.1-4.2 2.1-6.3 2.1-3.1 5.2-5.2 6.3-6.3h5.2c3.1-1.1 4.2-2.1 4.2-4.2s-1.1-3.1-4.2-4.2l-5.2-2.1c-2.1-1-3.1-1-5.2-2.1-1.1-1.1-2.1-2.1-3.1-2.1h-1.1c-1.1 0-2.1 0-2.1 2.1s2.1 4.2 4.2 4.2c0 0 1 0 1-1h1.1c1.1 0 1.1 1 1.1 1 0 2.1-1.1 6.3-3.1 8.4l-1.1 2.1-1.1 2.1c-1.5 3.8-4 7-7.3 9.4l-1.1 1s-1 1.1-1 2.1-1.1 2.1-3.1 3.1l-3.3 3-2.1 2.1-2.1 2.1c0 1.1 0 1.1-1 1.1-1.1 0-2.1-1.1-2.1-3.1-1-2.1-1-2.1-2.1-2.1h-8.3c-3.1 0-6.3 1.1-7.3 2.1h-2.1s-1-1.1-1-2.1c0-4.2 3.1-10.4 7.3-14.6 0-2.1-1.1-3.1-3.1-4.2H312l-1.1-1.1c0-1.1 1.1-2.1 3.1-2.1 4.2-2.1 5.2-2.1 7.3-2.1 2.1 0 4.2 0 6.3 2.1 4.2 3.1 5.2 3.1 6.3 3.1 3.1 0 5.2-2.1 5.2-5.2 0-1.1 0-3.1-3.1-6.3-3.1-5.2-4.2-7.3-4.2-11.5 0-2.1 0-4.2 2.1-7.3l1.1-1.1c0-1.1-1.1-2.1-3.1-2.1-1.1 0-3.1 1-5.2 2.1-3.1 2.1-6.3 3.1-6.3 4.2s1.1 1.1 1.1 1.1l1 1.1v2.1l-3.1 3.1c-1.2 2.2-3 4-5.2 5.2 0 1.1-1.1 1.1-1.1 1.1l-1.1 2.1c-1.1 2.1-3.1 4.2-5.2 6.3-1 1.1-2.1 1.1-2.1 1.1 0 1.1-1.1 1.1-1.1 2.1-1.1 2.1-3.1 5.2-5.2 6.3l-3.1 4.2c-1.1 1.1-2.1 4.2-4.2 8.3-1 3.1-1 4.2-2.1 4.2l-1.1-1.1c-2.1-3.1-4.2-4.2-5.2-4.2h-2.1c-1.1 1-2.1 1-3.1 2.1h-5.2c-3.1 1-5.2 2.1-7.3 4.2 0 1.1 0 1.1-1.1 1.1v-6.2c1.1-3.1 2.1-6.3 3.1-8.3l2.1-4.2s1.1-1.1 1.1-2.1c0-3.1-3.1-5.2-7.3-6.3-1.1 0-1.1 0-1.1-1.1l2.1-2.1c3.1-2.1 6.3-4.2 8.4-4.2 1.1 0 3.1 1.1 5.2 2.1l3.1 1.1c1 0 2.1 1.1 3.1 1.1 3.1 0 6.3-3.1 9.4-9.4 2.1-3.1 2.1-4.2 2.1-6.3 0-3.1-1.1-5.2-4.2-5.2-1 0-3.1 1-5.2 2.1-1.1 1.1-2.1 3.1-2.1 4.2v2.1c0 1 0 1-1.1 1-1 0-2.1-1-4.2-3.1-1.1-1.1-2.1-3.1-4.2-4.2-3.1-5.2-4.2-6.3-4.2-11.5-4.2-5.2-5.2-8.4-5.2-11.5v-3.1c-3.1-4.2-4.2-5.2-4.2-8.4 0-2.1 0-3.1 1.1-4.2-2.1-2.1-2.1-3.1-3.1-5.2v-2.1c-1.1-2.1-1.1-4.2-2.1-5.2-1-1.1-1-2.1-1-2.1 0-1.1 1-2.1 4.2-3.1h1.1v-6.2l1.1-5.2V25c-1.1-1.1-1.1-2.1-2.1-2.1v-2.1s0-1 1.1-1c0 0 1.1 0 1.1 1 4.2 2.1 9.4 6.3 12.5 9.4 3.1 3.1 4.2 6.3 4.2 13.6 4.2 3.1 6.3 5.2 6.3 9.4 0 3.1-1 5.2-3.1 8.4-1 2.1-2.1 3.1-2.1 3.1-1 2.1-2.1 3.1-2.1 5.2s1.1 4.2 3.1 7.3c2.1 3.1 3.1 5.2 5.2 5.2 4.2 0 7.3-6.3 7.3-12.5l-1.1-1v-4.2l1.1-3.1v-8.3c0-1 0-1-4.2-6.3-4.2-4.2-6.3-8.4-6.3-11.5 0-4.2 3.1-7.3 6.3-7.3 1.1 0 2.1 1 3.1 1V25l1.1-3.1c1-3.1 1-3.1 2.1-3.1l3.1 2.1 2.1 1.1 1.1 1c0-1 0-2.1 2.1-3.1 0-1 1.1-2.1 1.1-3.1l2.1-1.1v-2.1c1.1 0 1.1-1.1 1.1-1.1 1.1 0 1.1 1.1 1.1 2.1 1.1 1.1 1.1 1.1 1.1 2.1l2.1 1c1.1 1.1 2.1 3.1 3.1 5.2l2.1-2.1 2.1-1c1.1 0 1.1-1 2.1-1v1c0 1 1 1 1 2.1 2.1 3.1 2.1 3.1 2.1 5.2v2.1c4.2 1.1 5.2 3.1 5.2 8.4 0 3.1-1.1 7.3-4.2 11.5-2.1 2.1-3.1 3.1-3.1 5.2 0 9.4 7.3 14.6 18.8 14.6h8.3c6.3 0 9.4 1 14.6 2.1 5.2 2.1 7.3 3.1 9.4 3.1 1 0 2.1-1.1 2.1-2.1 0-2.1-3.1-3.1-13.6-6.3-20.9-6.3-30.3-14.6-30.3-28.2 0-11.5 9.4-19.8 20.9-19.8 4.2 0 9.4 1.1 13.6 2.1l5.2 2.1c1.1 0 2.1 1 2.1 1 2.1 0 3.1-2.1 3.1-5.2 0-1 1.1-2.1 2.1-2.1s3.1 2.1 5.2 5.2c2.1 2.1 3.1 6.3 3.1 8.4 0 3.1-1 5.2-4.2 6.3-3.1 5.2-6.3 6.3-11.5 6.3-3.1 0-9.4-2.1-17.7-6.3-3.1-2.1-4.2-3.1-6.3-3.1-2.1 0-3.1 2.1-3.1 4.2 0 1 1 3.1 5.2 4.2 5.2 2.1 7.3 3.1 8.4 5.2 7.3 1.1 9.4 2.1 13.6 5.2 12.5 4.2 18.8 11.5 18.8 19.8 0 9.4-5.2 15.6-13.6 15.6-2.5 0-3.6-1-6.7-1zM131.4 329.7c1.1 3.1 1.1 4.2 1.1 6.3v5.2c1 5.2 2.1 8.3 6.3 8.3 1.1 0 2.1 0 2.1-1l2.1-1c1.1 0 2.1 0 2.1 1v2.1c-1.1 1 0 3.1 0 6.3v5.2c0 3.1 0 4.2-1.1 6.3 1.1 2.1 2.1 5.2 2.1 7.3 0 3.1-1 5.2-2.1 6.3 1.1 3.1 1.1 3.1 1.1 5.2 0 1 0 3.1-1.1 4.2v7.3s0 1-1.1 1l-1.1-1c-1-1-2.1-1-2.1-1-1.1 0-1.1 0-3.1 4.2 0 1.1-1.1 2.1-3.1 4.2-1 2.1-2.1 3.1-2.1 4.2 0 1-1.1 2.1-1.1 3.1h-1.1c-2.1 0-4.2-4.2-6.3-13.6-1.1-2.1-2.1-3.1-3.1-3.1s-2.1 1-2.1 2.1l-1.1 1c0 1 0 1-1 1s-2.1-2.1-3.1-4.2-1-4.2-1-6.3c0-4.2 3.1-7.3 11.5-12.5 4.2-2.1 5.2-5.2 5.2-9.4s-1.1-6.3-4.2-9.4c-3.1-2.1-4.2-3.1-6.3-3.1-1.1 0-2.1 1.1-2.1 2.1s1 2.1 3.1 3.1c1.1 0 2.1 1 2.1 2.1 0 0 0 2.1-2.1 4.2-.8 1.9-2.3 3.4-4.2 4.2 0 4.2-2.1 6.3-6.3 8.4 0 3.1-1.1 3.1-2.1 5.2l-3.1 3.1c-1.1 1-2.1 3.1-2.1 4.2 0 2.1 0 2.1-1.1 2.1-1 0-3.1-1-5.2-4.2-1.1-1.1-1.1-2.1-2.1-4.2-1.1 1-1.1 1-4.2 1-1.1 1-2.1 1-3.1 1-2.1 1-3.1 2.1-3.1 2.1s-1-1.1-1-2.1v-2.1c0-4.2 2.1-8.4 4.2-11.5-2.1-2.1-4.2-3.1-6.3-4.2h-1s0-1 1-2.1c1.1-1.1 2.1-2.1 2.1-3.1 2.1-1 5.2-2.1 8.4-2.1 1 0 4.2 0 7.3 1 1.1 1 2.1 1 3.1 1 1.1 0 2.1-1 2.1-2.1 0-3.1-1.1-6.3-4.2-12.5-2.1-4.2-2.1-6.3-2.1-8.4 0-4.2 2.1-9.4 4.2-10.4-1-1-2.1-1-3.1-1s-2.1 0-3.1 1c-2.1 1-3.1 2.1-3.1 3.1 0 0 0 1 1.1 1 1.1 1 1.1 1 1.1 2.1 0 3.1-3.1 7.3-6.3 10.4-1.1 4.2-3.1 7.3-7.3 9.4 0 2.1-1 3.1-3.1 5.2-3.1 5.2-4.2 6.3-4.2 9.4-1.1 1-1.1 2.1-1.1 2.1-1 0-2.1-1.1-3.1-2.1-1-2.1-2.1-2.1-2.1-3.1-1.1-1-1.1-1-1.1-4.2-1 0-2.1 1-2.1 1l-2.1-1h-1.1c-3.1 0-6.3 1-7.3 2.1h-1.1c-1.1 0-2.1-1-2.1-3.1 0-5.2 1.1-8.4 4.2-13.6-1 0-1-1.1-2.1-2.1l-1.1-1H49l-1-1c0-1 2.1-3.1 4.2-4.2 2.1-2.1 4.2-2.1 6.3-2.1 2.1 0 3.1 0 5.2 3.1 2.1 1 3.1 2.1 4.2 2.1s2.1-1.1 2.1-1.1c0-1 1-2.1 1-2.1 0-3.1-3.1-7.3-6.3-9.4-3.1-1-5.2-2.1-8.3-2.1-3.1 0-6.3 2.1-7.3 4.2l-2.1 3.1c0 1.1-1.1 1.1-1.1 1.1-1.1 0-1.1 0-4.2-3.1l-3.1-4.2c-1.1-1-2.1-2.1-2.1-3.1-1-1.1-1-2.1-1-2.1l-1.1-1c-3.1-2.1-4.2-5.2-5.2-10.4-1.1-1-1.1-1-1.1-2.1-3.1-4.2-5.2-8.3-5.2-12.5 0-1 0-1 1-2.1-2.1-2.1-2.1-2.1-4.2-7.3-1.1-3.1-1.1-5.2-3.1-6.3v-1c0-1 1.1-1 3.1-2.1h5.2v-9.4c0-1 1.1-2.1 1.1-2.1 0-1 0-1-1.1-3.1v-3.1H27c2.1 1.1 4.2 3.1 5.2 4.2 5.2 3.1 8.4 8.3 8.4 11.5v3.1c0 1 0 1 1 2.1l1.1 2.1c1.1 2.1 2.1 4.2 2.1 5.2 0 1.1 0 2.1-2.1 4.2-2.1 3.1-2.1 4.2-2.1 6.3 0 2.1 1 5.2 2.1 8.4 2.1 2.1 3.1 4.2 5.2 4.2 3.1 0 4.2-3.1 4.2-9.4 1-4.2 1-7.3 1-10.4v-1c0-1 0-2.1-1-3.1l-4.2-4.2c-3.1-4.2-4.2-6.3-4.2-9.4 0-4.2 2.1-6.3 5.2-6.3H51V267c1.1-3.1 2.1-5.2 3.1-5.2l1.1 1h2.1c1.1 1 1.1 1 3.1 2.1 0-2.1 1-3.1 2.1-5.2s3.1-3.1 4.2-3.1c0 0 1 0 2.1 1l2.1 3.1s1.1 1 1.1 2.1l1 1c1.1 0 1.1-1 1.1-1 1.1 0 2.1-1 2.1-1 2.1-1 3.1-1 3.1-1l1.1-1s1.1 1 2.1 5.2v6.3c4.2 0 6.3 2.1 6.3 7.3 0 4.2-2.1 8.3-6.3 12.5-1 1-1 2.1-1 3.1 0 11.5 3.1 15.6 17.7 16.7 9.4 1 11.5 2.1 21.9 5.2 6.3 1.1 9.4 2.1 11.5 2.1s3.1-1 3.1-3.1-1.1-3.1-11.5-5.2c-24-4.2-33.4-12.5-33.4-29.2 0-10.4 8.4-18.8 19.8-18.8 4.2 0 9.4 1 15.7 5.2 7.3 4.2 8.4 4.2 9.4 4.2 2.1 0 3.1-1.1 3.1-4.2 0-1 0-2.1 1.1-2.1s3.1 1 4.2 2.1c2.1 3.1 3.1 4.2 3.1 7.3 0 5.2-2.1 8.4-7.3 9.4l-1.1 1c-3.1 3.1-5.2 4.2-9.4 4.2s-8.3-1-11.5-3.1l-6.3-5.2c-3.1-1-4.2-2.1-6.3-2.1-3.1 0-4.2 1-4.2 4.2 0 2.1 1.1 4.2 4.2 5.2l6.3 2.1c2.1 1 3.1 1 5.2 2.1h3.1c3.1 0 7.3 1.1 10.4 3.1 1.1 0 2.1 0 2.1 1h4.2c7.3 2.1 12.5 10.4 12.5 18.8 0 9.4-5.2 14.6-15.7 14.6h-2zm225.3-2.1c2.1 3.1 5.2 5.2 7.3 5.2 1 0 2.1 0 4.2-1h1.1c1 0 1 0 1 1 0 0 0 1.1-1 2.1v3.1l-1.1 2.1-1 2.1-2.1 2.1v2.1c0 3.1-1 5.2-4.2 7.3l-1 1c0 2.1-1.1 4.2-1.1 5.2 0 0-1.1 1-2.1 3.1-2.1 2.1-3.1 4.2-3.1 5.2-1.1 1-1.1 2.1-2.1 2.1-1.1 0-3.1-2.1-3.1-4.2v1l-2.1 1.1-2.1 2.1c-1.1 0-2.1 1-2.1 1l-2.1 2.1c-1 0-2.1-1-2.1-3.1l-1.1-4.2c-1-1-1-3.1-1-4.2 0-2.1 0-3.1 1-5.2-3.1 1-3.1 1-5.2 1h-1.1v-2.1l2.1-4.2c1-4.2 5.2-7.3 8.4-7.3 1 0 2.1 1.1 4.2 1.1h1.1c2.1 0 3.1-1.1 3.1-2.1s0-1-1.1-2.1c0 0-2.1 0-4.2-1-3.1-1-4.2-1-6.3-4.2-2.1-2.1-2.1-3.1-3.1-3.1l-1.1 1.1v3.1c0 3.1-1 6.3-3.1 11.5l-4.2 6.3c-1.1 3.1-2.1 6.3-2.1 8.4 0 2.1 1 5.2 3.1 5.2h1l1.1 1v2.1s-1.1 1-2.1 3.1c-3.1 2.1-4.2 3.1-6.3 4.2-2.1 4.2-4.2 6.3-9.4 7.3v1c-2.1 3.1-5.2 5.2-7.3 5.2h-1c0 2.1-1.1 5.2-4.2 6.3-2.1 2.1-3.1 2.1-3.1 3.1v1.1c-1 1-1 1-2.1 1-2.1 0-3.1-1-3.1-3.1-1 0-1 0-1 1-2.1 1.1-3.1 1.1-3.1 1.1s-2.1 1-4.2 1c-3.1 1-6.3 2.1-7.3 4.2l-1.1 1.1v1c-1.1 0-1.1-1-2.1-2.1 0-3.1-1-6.3-1-7.3 0-5.2 2.1-8.3 6.3-12.5v-1c0-7.3 5.2-12.5 13.6-12.5h1.1l4.2 1h1.1c2.1 0 4.2-1 7.3-3.1 3.1-3.1 3.1-4.2 3.1-7.3 0-1 0-2.1-1.1-5.2 0-2.1-1-4.2-1-6.3 0-5.2 4.2-11.5 9.4-15.7 2.1-1 2.1-2.1 2.1-3.1 0 0-1.1 0-1.1 1-1.1 0-2.1 1-3.1 2.1l-2.1 1.1-3.1 1s-1.1 0-1.1 1l1.1 1v1s0 1-1.1 1l-1 3.1c-2.1 3.1-3.1 4.2-6.3 5.2-1 4.2-3.1 6.3-6.3 7.3-2.1 4.2-4.2 6.3-8.4 6.3-1 2.3-2.4 4.4-4.2 6.3-1.1 1-2.1 2.1-2.1 2.1l-1.1 2.1c-1.1 0-2.1-1-3.1-2.1-1.1 0-1.1-1.1-1.1-1.1l-1.1-2.1c-1-1-1-1-2.1-1H267c-2.1 0-4.2 2.1-5.2 3.1l-2.1 2.1v1c-1 0-2.1-3.1-2.1-7.3 0-3.1 1.1-6.3 2.1-7.3l3.1-5.2c1-1.1 1-2.1 1-2.1 0-1 0-1-1-2.1 0-1-1.1-1-2.1-1l-2.1-1h-1.1s0-1.1 1.1-1.1c0-1 2.1-2.1 3.1-3.1 3.1-2.1 5.2-2.1 7.3-2.1s4.2 0 6.3 2.1l4.2 2.1c0 1 1.1 1 2.1 1s3.1-1 4.2-4.2c1.1-2.1 1.1-3.1 1.1-5.2 0-5.2-3.1-8.4-8.4-8.4-2.1 0-4.2 1-6.3 2.1-1 1-1 1-1 2.1l-1.1 2.1-1.1 1.1c-1.1 0-2.1-2.1-3.1-4.2-1.1-2.1-2.1-3.1-2.1-5.2-1-2.1-1-4.2-1-6.3v-3.1c-2.1-3.1-2.1-5.2-2.1-8.3 0-1 0-2.1 1.1-4.2-1.1-2.1-2.1-4.2-2.1-6.3v-2.1l1.1-1.1V296c-1.1-1-1.1-2.1-3.1-8.3 0-3.1-1.1-4.2-1.1-5.2-1 0-1-1.1-1-1.1 0-1 2.1-1 4.2-1h2.1c-1.1-1-1.1-2.1-1.1-3.1 0-1.1 1.1-3.1 1.1-5.2 1.1-1 1.1-2.1 1.1-3.1s0-3.1-1.1-3.1l-1.1-3.1v-1h1.1c2.1 0 7.3 2.1 10.4 6.3 4.2 3.1 5.2 6.3 5.2 11.5v3.1c3.1 3.1 5.2 5.2 5.2 8.3 0 2.1-1 3.1-3.1 5.2-3.1 3.1-4.2 5.2-4.2 9.4 0 7.3 2.1 10.4 6.3 10.4 3.1 0 6.3-3.1 6.3-8.3v-5.2c0-1 1.1-3.1 1.1-4.2v-4.2c0-1-1.1-3.1-4.2-7.3-3.1-4.2-5.2-6.3-5.2-10.4 0-3.1 3.1-6.3 7.3-6.3h2.1c0-2.1 0-2.1 1.1-5.2 1-3.1 2.1-4.2 3.1-4.2h1c0 1 1.1 1 1.1 2.1h1c1.1 1 1.1 1 2.1 2.1 0-3.1 1-5.2 3.1-7.3 2.1-1 3.1-2.1 3.1-2.1s1.1 0 1.1 1l2.1 2.1 2.1 2.1c0 1 1 2.1 1 4.2l1.1-1.1 2.1-1c1 0 1-1 2.1-1h1.1l1.1 3.1 2.1 4.2v3.1h1.1c2.1 0 5.2 3.1 5.2 7.3s-4.2 10.4-9.4 13.6v3.1c0 10.4 3.1 12.5 18.8 14.6 3.1 1 7.3 2.1 10.4 2.1 0 1 4.2 2.1 10.4 4.2 3.1 1 5.2 1 7.3 1 2.1 0 3.1 0 3.1-1 0-2.1-3.1-3.1-10.4-6.3l-11.5-5.2c-11.5-4.2-16.7-11.5-16.7-20.9 0-12.5 8.4-21.9 20.9-21.9 4.2 0 9.4 1 15.7 4.2 7.3 2.1 8.4 3.1 9.4 3.1 1.1 0 2.1-2.1 2.1-4.2s1.1-2.1 2.1-2.1c2.1 0 3.1 1.1 4.2 3.1 1.1 2.1 2.1 5.2 2.1 7.3 0 4.2-2.1 7.3-6.3 7.3-3.1 4.2-6.3 6.3-10.4 6.3-5.2 0-7.3-1.1-16.7-7.3-3.1-2.1-4.2-2.1-6.3-2.1-3.1 0-6.3 2.1-6.3 4.2 0 3.1 2.1 4.2 6.3 5.2 3.1 1 3.1 1 4.2 2.1h3.1c4.2 0 9.4 2.1 13.6 6.3 7.3 2.1 14.6 10.4 14.6 17.7 0 8.4-6.3 15.7-14.6 15.7-2.5.1-6.7-1-9.9-2z"/><path class="st3" d="M141.9 141.9c-1-1.1-1-2.1-1-3.1v-1.1l1-2.1v-1.1c0-2.1-1-3.1-1-4.2l-2.1-2.1c0-1.1-1.1-2.1-1.1-2.1V124h2.1c1.1 1 1.1 1 2.1 1 0 0 1.1-2.1 1.1-4.2s-1.1-3.1-1.1-4.2l-2.1-2.1-2.1-1v-1.1c0-1 0-1 1.1-1h3.1c1.1 0 1.1 0 1.1-1l-1.1-3.1v-2.1l-1-1.1h-4.2c-4.2 0-9.4-3.1-10.4-8.4l-2.1-8.4c-1.1-2.1-3.1-4.2-6.3-7.3-1.1-1.1-2.1-1.1-3.1-2.1h-3.1c0-1 1-1 2.1-1h4.2c1 0 4.2 1 7.3 2.1 3.1 1.1 6.3 2.1 8.4 2.1 6.3 0 10.4-4.2 10.4-9.4 0-4.2-2.1-8.4-5.2-11.5-2.1-2.1-4.2-3.1-4.2-3.1-1.1 0-1.1 0-1.1 1.1v1.1c0 1 0 2.1-1 2.1 0 0-1.1-1.1-2.1-3.1-2.1-5.2-6.3-8.4-10.4-8.4L119 51s0 1.1 1.1 2.1l1.1 2.1v1.1c-1.1 0-2.1 0-2.1-1.1l-2.1-2.1-2.1-2.1c-1.1-2.1-2.1-3.1-5.2-5.2-2.1 0-3.1-1.1-3.1-1.1-1.1 0-1.1-1-2.1-1v2.1c1.1 2.1 2.1 2.1 2.1 3.1l-1.1 1.1c-1.1 0-3.1-2.1-5.2-5.2-1-2.1-2.1-5.2-2.1-7.3 0-5.2 4.2-9.4 9.4-9.4 3.1 0 6.3 1 9.4 3.1l6.3 3.1c2 1.9 4.6 3 7.3 3.1 1.1 0 2.1-1 4.2-1 0 0 1.1 0 1.1-1.1h1.1c0-1.1 0-1.1-1.1-1.1l-3.1-1.1c-1.1 0-2.1 0-3.1-1.1-4.2-1-6.3-2.1-7.3-3.1-2.1-1-3.1-2.1-4.2-2.1l-1.1-1.1v-1h2.1c1.1 2.1 3.1 2.1 4.2 2.1l5.2 2.1c3.1 1.1 7.3 2.1 9.4 2.1s4.2-2.1 4.2-4.2-1-4.2-2.1-6.3H139c-1.1 0-1.1 0-1.1 1.1V24c0 2.1-1 3.1-2.1 3.1h-2.1l-8.4-3.1c-7.3-2.1-10.4-3.1-13.6-3.1-10.4 0-17.7 7.3-17.7 15.7 0 10.4 7.3 17.7 25 24 17.7 5.2 19.8 7.3 19.8 11.5 0 3.1-3.1 5.2-5.2 5.2h-3.1c-1.1-1.1-4.2-1.1-9.4-2.1-5.2-2.1-10.4-2.1-15.7-2.1-12.5 0-19.8 2.1-26.1 8.4-1 1.1-2.1 1.1-4.2 1.1H73c-2.1 0-3.1 1-4.2 2.1-1.1 3.1-2.1 4.2-2.1 4.2L65.6 90c-2.1 0-2.1-1.1-4.2-4.2 0-2.1-1-3.1-2.1-4.2l-3.1-2.1v-2.1c1-2.1 2.1-3.1 2.1-4.2s0-1.1 1.1-1.1 1.1 0 1.1 3.1c0 1.1 0 2.1 1 4.2l1.1 3.1h2.1c1.1 0 2.1-3.1 3.1-6.3 0-3.1 1.1-3.1 1.1-3.1h1s0 1.1 1 2.1c0 1.1 1.1 1.1 1.1 2.1 1 0 2.1 1 2.1 1 1.1 0 1.1-1 2.1-3.1v-1l-1-2.1v-1c0-1.1 1-2.1 1-2.1s1.1 0 1.1 1l1.1 1.1c1 1 2.1 1 3.1 1s1 0 1-1c0 0 0-1.1-1-3.1l-1.1-1.1c-1.1-2.1-1.1-3.1-2.1-3.1h-2.1l-1 1.1h-1.1c0-2.1 0-3.1 2.1-5.2 1.1-2.1 1.1-5.2 2.1-10.4 0-7.3 1-11.5 2.1-11.5 0 0 1.1 1.1 1.1 2.1v5.2c1 0 2.1-2.1 3.1-4.2 1.1-1 1.1-2.1 1.1-3.1l-3.1-5.2-2.1-1h-1.1v-5.2l-1-1V24c-3.1 1.1-4.2 2.1-5.2 3.1-1 2.1-2.1 2.1-2.1 2.1h-1c0-1 0-1 1-2.1V26c0-3.1-2.1-5.2-5.2-7.3v1l-1.1 1-2.2 2.3s-1.1 1-1.1 2.1v2.1c0 1.1 0 2.1-1 2.1l-1.1-2.1-1.1-1.1-2-2.1h-2.1v1c0 1-1.1 1-1.1 2.1v4.2c0 1 0 2.1-1 2.1L51 32.3h-2c-2.1 0-3.1 1.1-3.1 3.1 0 2.1 0 5.2 2.1 6.3l1 3.1c1.1 0 2.1 1.1 2.1 0v-4.2l-1.1-1c0-1.1 1.1-2.1 1.1-2.1 1.1 0 1.1 1.1 2.1 3.1l1.1 5.2 1.1 6.3c0 1 1.1 3.1 1.1 5.2 1 2.1 2.1 3.1 2.1 4.2l2.1 2.1c0 1.1 0 1.1-1.1 1.1h-1.1c0-1.1-1.1-1.1-1.1-1.1h-1c-2.1 0-3.1 2.1-3.1 10.4 0 5.2 1.1 12.5 3.1 15.7l2.1 7.3c1.1 1.1 1.1 2.1 1.1 3.1 0 9.4-12.5 24-26.1 31.3-5.2 2.1-7.3 4.2-7.3 10.4v1.1c2.1-1.1 3.1-1.1 4.2-1.1 4.2-1.1 4.2-2.1 5.2-4.2l1-1c0-1.1 0-1.1 3.1-3.1 1.1 0 2.1-1 2.1-1 0-1.1 1.1-2.1 1.1-2.1 1.1 0 1.1 0 1.1 1.1l-2.1 4.2v1.1c0 2.1 2.1 4.2 4.2 6.3 1.1-3.1 1.1-4.2 2.1-6.3l2.1-3.1c1.1-1 1.1-3.1 1.1-5.2v-5.2c0-1.1 0-1.1 1.1-1.1h1v3.1h1.1c2.1 0 3.1-1 5.2-4.2 0-1 1.1-2.1 1.1-3.1v-2.1l-1.1-2.1c0-1.1 1.1-2.1 1.1-2.1 1 0 1 1 1 1l1.1 3.1c0 1.1 0 1.1 1.1 1.1 1 0 2.1-1.1 3.1-3.1 1-1.1 1-3.1 1-5.2 0-3.1 1.1-3.1 2.1-3.1l1 2.1s0 1 1.1 1c0 0 2.1-2.1 3.1-4.2v-1.1s0-1-1.1-1c-2.1-2.1-2.1-2.1-2.1-3.1 0-2.1 1-3.1 2.1-5.2 0-1.1 1.1-2.1 1.1-3.1 2.1-3.1 2.1-3.1 3.1-3.1s1 0 1 1.1V90c-1 0-1 1-1 1 0 1.1 1 1.1 1 1.1 1.1 0 1.1 0 2.1-1.1 1 0 2.1 0 4.2-1l4.2-2.1H95c1 1.1 2.1 1.1 2.1 1.1 2.1 0 3.1-1.1 3.1-2.1s-1-3.1-2.1-4.2L97 81.4v-1.1h1.1c1.1 0 3.1 2.1 4.2 5.2 11.5 16.7 15.7 21.9 22.9 24 7.3 2.1 9.4 4.2 9.4 8.4 0 2.1-1.1 5.2-4.2 9.4-5.2 7.3-6.3 10.4-6.3 15.7v1h1c1.1-1 2.1-1 2.1-1l3.1-1.1c1.1 0 2.1-1.1 2.1-2.1v-1.1l-1.1-2.1v-1.1c0-1.1 1.1-2.1 2.1-2.1v-1c1.1 0 1.1 1 1.1 1l2.1 4.2c1.1 2.2 2.1 3.2 5.3 4.3zM36.5 48s-1 1-1 3.1v2.1c-1.1 2.1-1.1 2.1-1.1 3.1 0 2.1 1.1 3.1 2.1 3.1 1.1 0 2.1-1.1 2.1-3.1 1.1-1.1 1.1-2.1 1.1-3.1s0-2.1-1.1-3.1c0-1.1-1.1-2.1-2.1-2.1z"/><path class="st3" d="M25 28.2v1c0 1.1 0 3.1-2.1 8.4v2.1c0 1 0 2.1 1 3.1l1 1.1 2.1 1v5.2c1.1 1.1 1.1 2.1 1.1 3.1v2.1c-1.1 0-2.1-2.1-3.1-3.1-1-3.2-2.1-5.2-3.1-5.2-2.1 0-3.1 1.1-4.2 1.1v1c0 1.1 1 1.1 2.1 3.1l1.1 3.1 2.1 4.2 2.1 2.1s1.1 0 2.1 1.1c1.1 0 1.1 1 1.1 1s0 1.1-1.1 1.1H25l-1-1.1v2.1c0 3.1 2.1 7.3 7.3 10.4 1.1 1.1 1.1 1.1 1.1 2.1 0 0 0 1.1-1.1 1.1l-1.1-1.1h-1c-1.1 0-1.1 0-1.1 1.1s0 3.1 2.1 6.3c.8 1.9 2.3 3.4 4.2 4.2l6.3 2.1v1.1s0 1.1-1.1 1.1h-5.2c0 1 1.1 3.1 2.1 4.2 2.1 3.1 3.1 4.2 3.1 4.2 1.1 0 1.1 0 1.1-1.1l2.1-3.1s1.1-1.1 3.1-2.1C46.9 95 48 95 49 95l3.1-1v-9.4L51 82.5v-1.1c-1.1 0-1.1 0-1.1 1.1-2.1 3.1-4.2 4.2-6.3 4.2-6.3 0-11.5-12.5-11.5-28.2V46c0-7.3-1.1-11.5-4.2-14.6L26 29.3l-1-1.1zm16.7 94.9c-2.1-1.1-2.1-1.1-3.1-1.1s-2.1-1.1-3.1-1.1c-2.1-1-3.1-2.1-5.2-2.1-1 0-3.1 1.1-5.2 3.1h1.1l3.1 2.1 2.1 2.1c1.1 0 2.1 1.1 2.1 1.1 3 .1 5.1-1 8.2-4.1zm50.1 23c1.1-1 1.1-2.1 2.1-3.1 4.2-3.1 5.2-5.2 5.2-7.3v-3.1c0-1.1 1-2.1 2.1-2.1l1.1 2.1s0 1 1.1 1l2.1-2.1 1.1-2.1c1-1 1-1 1-2.1v-1.1c0-1.1-1-1.1-1-2.1-1.1-1.1-1.1-2.1-1.1-2.1 0-1.1 1.1-2.1 1.1-2.1 1 0 1 0 1 1l1.1 1.1h1.1c1 0 1 0 1-1.1l1.1-2.1c1 0 1-1.1 1-1.1l-1-1-2.1-1.1c-2.1-1.1-4.2-4.2-4.2-8.3 0 0 0-1.1 1.1-1.1l1-2.1V102c0-1.1-1-3.1-1-4.2-1.1-1.1-2.1-2.1-2.1-3.1-1-1-1-2.1-2.1-2.1l-1.1 1.1h-2.1L98.1 96 96 97c-1.3 1.4-2 3.3-2.1 5.2 0 3.1 0 4.2 5.2 11.5 1 3.1 2.1 6.3 2.1 7.3 0 5.2-4.2 9.4-13.6 11.5l-6.3 2.1c-4.2 1.1-7.3 3.1-8.4 8.4 2.1-1.1 3.1-1.1 6.3-1.1h2.1c2.1 0 2.1 0 3.1-1.1.8-1.9 2.3-3.3 4.2-4.2l2.1-1.1h2.1v-1.1l1.1 1.1s-1.1 1.1-1.1 2.1c-2.1 2.1-2.1 3.1-2.1 5.2 0 1.2 0 2.2 1.1 3.3z"/><path class="st3" d="M75.1 126.2c2.1 1.1 3.1 2.1 4.2 3.1 1.1 2.1 1.1 2.1 2.1 2.1h2.1l1.1-1.1c2.1 0 3.1 0 3.1-1.1v-1l-2.1-1-1.1-1.1c-1.1-1.1-3.1-2.1-4.2-2.1-2.1.2-3.1 1.2-5.2 2.2zm41.7 7.3l1.1-1h3.1c3.1 0 5.2-2.1 5.2-4.2 0-1.1 0-2.1-2.1-2.1-3.1 0-5.2 2.1-7.3 7.3zm266 8.4v-9.4c0-1.1 0-1.1-1-2.1l-1.1-2.1c-1.1-1.1-1.1-2.1-1.1-4.2h2.1c0 1 1 1 1 1 1.1 0 1.1-1 1.1-4.2 0-3.1 0-5.2-2.1-6.3l-2.1-1c0-1.1-1-1.1-1-1.1 0-1 1-1 1-1h4.2v-4.2c0-2.1-1.1-3.1-2.1-3.1h-4.2c-4.2 0-8.3-3.1-9.4-8.4l-3.1-8.4c0-2.1-2.1-5.2-6.3-7.3-1.1-1.1-2.1-1.1-2.1-2.1h-3.1c0-1 0-1 1.1-1 3.1 0 7.3 0 11.5 2.1 4.2 1.1 7.3 2.1 9.4 2.1 6.3 0 9.4-3.1 9.4-9.4 0-3.1 0-6.3-2.1-8.4-1-2.1-3.1-4.2-6.3-6.3h-1v2.1c0 1-1.1 2.1-1.1 2.1-1 0-1-1.1-2.1-3.1-2.1-5.2-6.3-8.4-10.4-8.4-1.1 0-1.1 1.1-1.1 1.1V53c1.1 0 1.1 1.1 1.1 2.1 1.1 0 1.1 1.1 1.1 1.1h-1s-1.1 0-2.1-1.1l-2.1-2.1-1.1-2.1-5.2-5.2-3.1-1.1c-1 0-2.1-1-2.1-1l-1.1 1 1.1 1.1c1.1 1.1 1.1 2.1 1.1 3.1v1.1c-1.1 0-3.1-2.1-5.2-5.2-2.1-2.1-2.1-5.2-2.1-7.3 0-5.2 4.2-9.4 9.4-9.4 2.1 0 6.3 1 9.4 3.1l6.3 3.1c2 1.9 4.6 3 7.3 3.1 1 0 1 0 3.1-1 1 0 1 0 2.1-1.1 0-1.1 0-1.1-1.1-1.1-2.1 0-8.4-3.1-12.5-5.2l-4.2-2.1c-1.1-1.1-2.1-1.1-2.1-2.1h1.1l6.3 2.1 5.2 2.1c3.1 1.1 7.3 2.1 8.4 2.1 3.1 0 4.2-2.1 4.2-4.2V23c-1-1-2.1-2.1-3.1-2.1V24c0 2.1-1 3.1-2.1 3.1h-2.1l-9.4-3.1c-7.3-2.1-9.4-3.1-13.6-3.1-9.4 0-17.7 7.3-17.7 15.7 0 10.4 7.3 17.7 25 24 17.7 5.2 19.8 7.3 19.8 11.5 0 3.1-2.1 5.2-5.2 5.2h-3.1c-1-1.1-3.1-1.1-8.3-2.1-5.2-2.1-10.4-2.1-16.7-2.1-12.5 0-18.8 2.1-25 8.4-2.1 1.1-2.1 1.1-4.2 1.1H314c-1.1 0-2.1 1-3.1 2.1l-2.1 4.2c-1.1 0-1.1 1.1-2.1 1.1s-2.1-1.1-3.1-4.2c-1.1-2.1-1.1-3.1-2.1-4.2l-3.1-2.1c0-1.1-1.1-1.1-1.1-1.1l1.1-1c0-1.1 1-1.1 1-2.1s1.1-1 1.1-2.1V72h1.1c1 0 1 0 1 3.1 0 1.1 0 2.1 1.1 4.2l1.1 3.1h1.1c1 0 3.1-3.1 3.1-6.3 1.1-3.1 1.1-3.1 2.1-3.1l1.1 2.1 2.1 2.1c1 0 1 1 1 1h1.1c1.1 0 1.1-1 1.1-3.1V71c0-1.1 0-2.1 1.1-2.1l1 1 1.1 1.1c1.1 1 1.1 1 2.1 1 1.1 0 2.1 0 2.1-1 0-1.1 0-1.1-1.1-3.1 0 0-1.1 0-1.1-1.1-1-2.1-2.1-3.1-3.1-3.1h-1l-2.1 1.1H315c0-2.1 1.1-3.1 2.1-5.2 1.1-2.1 2.1-5.2 2.1-10.4l1.1-6.3c0-4.2 1.1-5.2 1.1-5.2h1v4.2c0 2.1 0 3.1 1.1 3.1l2.1-2.1s1.1-1.1 1.1-2.1 1-3.1 1-3.1c0-3.1-2.1-5.2-5.2-6.3h-1v-3.1l-1.1-2.1v-1l-1.1-1.1h-1c-2.1 2.1-3.1 2.1-4.2 3.1-1.1 2.1-1.1 2.1-2.1 2.1v-3.1c0-3.1-1.1-5.2-4.2-7.3l-1.1 1-1 1-1.1 2.1c-1.1 1-2.1 2.1-2.1 4.2v2.1l-1-2.1-2.1-1.1-2.1-2.1h-1.1c-1 2.1-1 2.1-1 6.3v1.1c0 1-1.1 2.1-1.1 2.1-1 0-1-1.1-2.1-1.1h-2c-1.1 0-3.1 1.1-3.1 3.1 0 2.1 1 4.2 2.1 6.3 1.1 2.1 3.1 3.1 3.1 3.1v-5.2c0-1.1 0-2.1 1.1-2.1 0 0 1 1.1 1 3.1l1.1 5.2 1 6.3c1.1 1 1.1 3.1 2.1 5.2s2.1 3.1 2.1 4.2l1.1 2.1v1.1h-1.1c-1.1-1.1-1.1-1.1-2.1-1.1h-1.1c-2.1 0-2.1 2.1-2.1 10.4 0 5.2 1 12.5 2.1 15.7l3.1 7.3c0 1.1 1.1 2.1 1.1 3.1 0 9.4-13.6 24-27.1 31.3-5.2 2.1-6.3 5.2-7.3 11.5 3.1-1.1 3.1-1.1 5.2-1.1 3.1-1.1 4.2-2.1 5.2-4.2v-1c0-1.1 1.1-1.1 3.1-3.1 1 0 2.1-1 2.1-1l2.1-2.1v1.1l-1 4.2v1.1c0 2.1 1 4.2 4.2 6.3v-2.1c1.1-2.1 1.1-3.1 2.1-4.2l2.1-3.1c1.1-1 1.1-2.1 1.1-5.2v-5.2c0-1.1 0-1.1 1-1.1l1.1 3.1h1c1.1 0 3.1-1 4.2-4.2 1.1-1 1.1-2.1 1.1-3.1v-4.2c0-1.1 0-2.1 1-2.1v1l1.1 3.1c1.1 1.1 1.1 1.1 2.1 1.1 2.1 0 4.2-4.2 4.2-8.4 0-2.1 0-3.1 1-3.1h1.1v2.1c1.1 0 1.1 1 1.1 1 1.1 0 1.1-1 2.1-2.1 0-1 1.1-1 1.1-2.1v-1.1c0-1 0-1-1.1-1-1-1.1-1-2.1-1-3.1 0-2.1 1-4.2 3.1-8.4 2.1-3.1 2.1-4.2 3.1-4.2 0 0 1.1 1.1 1.1 2.1 0 0-1.1 0-1.1 1.1v1c0 1.1 0 1.1 1.1 1.1 0 0 1 0 2.1-1.1 1.1 0 2.1 0 3.1-1 3.1-1.1 4.2-1.1 5.2-2.1h4.2c2.1 1.1 3.1 1.1 3.1 1.1 1 0 2.1-1.1 2.1-2.1s0-2.1-1.1-2.1c0-1.1-1-2.1-1-2.1v-2.1c1 0 3.1 2.1 5.2 5.2 10.4 16.7 14.6 21.9 23 24 7.3 2.1 9.4 4.2 9.4 8.4 0 2.1-1 5.2-4.2 9.4-5.2 7.3-7.3 11.5-7.3 15.7v1h2.1c1-1 1-1 2.1-1l3.1-1.1c1 0 1-1.1 1-2.1v-4.2c0-1.1 1-3.1 2.1-3.1l1 1 2.1 4.2c.7 2 1.7 3 3.8 4.1zM276.4 53.2v3.1c-.1 1.1.3 2.3 1.1 3.1 1.1 0 2.1-1.1 3.1-3.1 0-1.1 1-3.1 1-3.1 0-1-1-2.1-1-3.1-1.1-1.1-1.1-2.1-2.1-2.1s-1 2.1-2.1 5.2z"/><path class="st3" d="M267 28.2v1c0 1.1-1.1 3.1-1.1 5.2-1.1 2.1-1.1 3.1-1.1 3.1v2.1c0 2.1 1.1 4.2 2.1 4.2l1 1 1.1 2.1c-1.1 0 0 1.1 0 3.1v5.2s-1.1-2.1-2.1-3.1c-1.1-3.1-2.1-5.2-4.2-5.2-1.1 0-2.1 1.1-4.2 1.1 2.1 2.1 2.1 4.2 4.2 7.3 2.1 4.2 3.1 5.2 6.3 7.3l1.1 1-1.1 1.1h-2l-1.1-1.1s-1.1 1.1-1.1 2.1c0 3.1 3.1 7.3 8.4 10.4 0 1.1 1.1 1.1 1.1 2.1h-1.1v1.1c-1.1 0-1.1-1.1-2.1-1.1H270s-1.1 0-1.1 1.1 1.1 3.1 3.1 6.3c.8 1.9 2.3 3.4 4.2 4.2l5.2 2.1c1 0 1 1.1 1 1.1l-1 1.1h-5.2c0 1 1.1 2.1 2.1 4.2 1 3.1 2.1 4.2 3.1 4.2 0 0 1 0 1-1.1l1.1-3.1s1-1.1 3.1-2.1C288.9 95 290 95 291 95c3.1-1 3.1-1 3.1-2.1v-3.1s-1-1.1-1-2.1v-5.2c0-1.1 0-1.1-1.1-1.1l-1.1 1.1c-1 2.1-3.1 4.2-5.2 4.2-7.3 0-12.5-12.5-12.5-29.2v-5.2l1.1-5.2V44c0-4.2-2.1-10.4-4.2-12.5l-2.1-2.1-1-1.2zm16.7 94.9l-6.3-2.1c-2.1-1-4.2-2.1-5.2-2.1-2.1 0-3.1 1.1-5.2 3.1h1l2.1 2.1 3.1 2.1s1.1 1.1 2.1 1.1c2.2 0 4.3-1.1 8.4-4.2zm49.1 23c1-1 1-2.1 3.1-3.1 3.1-3.1 5.2-5.2 5.2-7.3v-3.1c0-1.1 0-2.1 1-2.1h1.1l1.1 2.1s0 1 1 1c0 0 1.1-1 3.1-4.2 0-1 1.1-1 1.1-2.1s-1.1-1.1-1.1-1.1c0-1.1 0-1.1-1-2.1V122c0-1.1 0-2.1 1-2.1 0 0 1.1 0 1.1 1l1.1 1.1c1.1 0 2.1 0 2.1-1.1l1.1-2.1v-1s0-1-1.1-1l-1-1.1c-2.1-1.1-4.2-4.2-4.2-7.3v-2.1l1-2.1v-2.1c0-1.1 0-3.1-1-4.2-1.1-1.1-1.1-2.1-1.1-3.1-1.1-1-1.1-2.1-2.1-2.1 0 0-1.1 0-2.1 1.1h-1L339 96l-1 1c-1.3 1.4-2.1 3.3-2.1 5.2 0 3.1 0 4.2 4.2 11.5 2.1 3.1 3.1 6.3 3.1 7.3 0 5.2-5.2 9.4-14.6 11.5-10.4 2.1-12.5 4.2-13.6 10.4 2.1-1.1 2.1-1.1 5.2-1.1h2.1c2.1 0 2.1 0 3.1-1.1l4.2-4.2 2.1-1.1h2.1l1.1-1.1v1.1s0 1.1-1.1 2.1c-1 2.1-2.1 3.1-2.1 4.2 0 2.3 0 3.3 1.1 4.4z"/><path class="st3" d="M317.1 126.2c1.1 1.1 3.1 2.1 4.2 3.1 1 2.1 1 2.1 2.1 2.1h2.1l1.1-1.1c2.1 0 3.1 0 3.1-1.1l-1.1-1-1-1.1-2.1-1.1c0-1.1-2.1-2.1-4.2-2.1-1.1.3-2.1 1.3-4.2 2.3zm41.7 7.3l1.1-1h2.1l1.1 1c1.1 0 2.1-1 2.1-1 1.1-1.1 2.1-2.1 2.1-3.1 1 0 1-1 1-1-.1-1.1-1-2-2.1-2.1-4.2-.1-6.3 2-7.4 7.2zM128.3 406.8l1-2.1 2.1-2.1c1.1-1.1 2.1-3.1 2.1-6.3v-4.2c-1-1-1-2.1-1-2.1 0-1.1 1-2.1 1-2.1 1.1 0 1.1 1 1.1 1l2.1 2.1c1 1 2.1 2.1 3.1 2.1v-4.2c0-3.1-1.1-6.3-2.1-8.3-1-2.1-2.1-2.1-2.1-3.1 0 0 0-1 1.1-1v1l2.1 1c1.1 0 2.1-2.1 2.1-3.1.1-2.8-1.1-5.4-3.1-7.3-1-1.1-1-2.1-1-2.1-1.1 0-1.1-1-1.1-1l1.1-1c1 0 1 0 2.1 1h1.1c1.1 0 1.1-1 1.1-5.2v-3.1c0-3.1 0-4.2-1.1-4.2h-1.1c-6.3 0-9.4-3.1-11.5-14.6-1.1-7.3-4.2-12.5-7.3-14.6-2.1 0-3.1-1-3.1-1 0-1.1 1.1-1.1 1.1-1.1 1 0 2.1 0 3.1 1.1 5.2 2.1 9.4 3.1 12.5 3.1 6.3 0 11.5-5.2 11.5-10.4s-2.1-9.4-6.3-12.5c-1.1-1-2.1-2.1-3.1-2.1h-1l1.1 2.1v2.1h-1.1l-3.1-4.2c-1.1-2.1-5.2-5.2-8.4-5.2-1.1 0-2.1 1-2.1 1 0 1 1 1 1 2.1.6.5 1 1.3 1.1 2.1v1H122l-3.1-3.1c-2.1-3.1-7.3-5.2-9.4-5.2h-1.1v2.1c1.1 1 2.1 1 2.1 2.1h-1c-1.1 0-2.1-1-5.2-3.1-5.2-4.2-7.3-7.3-7.3-11.5 0-5.2 4.2-9.4 8.4-9.4 2.1 0 6.3 1 8.3 3.1l6.3 5.2c3.1 2.1 7.3 3.1 10.4 3.1h2.1l1-1s0-1-1-1c-1.9 0-3.8-.8-5.2-2.1l-6.3-5.2c-3.1-2.1-4.2-3.1-5.2-3.1-4.2-2.1-4.2-2.1-4.2-3.1h2.1l3.1 2.1c1.1 0 3.1 1 5.2 3.1 7.3 4.2 10.4 6.3 14.6 6.3s6.3-3.1 6.3-7.3v-2.1l-1.1-1.1v-1l-1 1v2.1c0 1 0 1-1.1 1v2.1h-3.1c-2.1 0-4.2-1-10.4-4.2-5.2-4.2-11.5-6.3-15.7-6.3-9.1-.1-16.6 7.2-16.7 16.2v.4c0 13.6 7.3 18.8 32.3 24 9.4 2.1 13.6 5.2 13.6 9.4s-3.1 6.3-7.3 6.3h-4.2c-1.1 0-5.2-2.1-13.6-4.2-5.2-1.1-11.5-2.1-16.7-2.1-9.4 0-16.7 3.1-20.9 9.4-1.1 0-1.1 1-1.1 1-1 0-1 0-1-1l-2.1-1c-1.4-1.3-3.3-2.1-5.2-2.1-1 0-1 1.1-2.1 1.1l-1.1 1c-1 0-2.1-1-3.1-3.1-2-2.7-3.1-6-3.1-9.4 0-1.1 1.1-2.1 1.1-2.1 1.1 0 1.1 0 1.1 1l1 4.2c1.1 2.1 2.1 3.1 3.1 3.1 0 0 1.1 0 2.1-1.1 0-1 0-1 1-2.1 0-2.1 1.1-3.1 1.1-3.1 1 0 1 1 2.1 3.1 0 1 0 1 1.1 2.1 0 1.1 1 2.1 1 3.1H74c2.1 0 3.1-2.1 3.1-4.2H76V313c0-1 0-2.1 1.1-2.1l1.1 1c0 1 1 1 2.1 2.1h3.1v-1c0-1 0-1-1.1-3.1-1 0-2.1-2.1-3.1-4.2 0-1-1-2.1-1-2.1h-1.1l-1.1 1.1h-3c0-1.1 1.1-2.1 3.1-3.1 1.1-1 1.1-2.1 1.1-4.2s1.1-4.2 1.1-4.2V289c1-2.1 2.1-6.3 2.1-8.4 0-1 1.1-1 1.1-1v4.2c0 1 1 2.1 1 2.1 1.1 0 1.1-1 2.1-2.1l1.1-3.1v-2.1c0-3.1-1.1-4.2-3.1-4.2h-2.1s-1.1-1-1.1-2.1v-4.2l-1-2.1v-2.2l-1.1 1.1-1.1 1-2.1 2.1-2.1 1h-1.1c-1 0-1 0-1-2.1s0-3.1-3.1-6.3l-1.1-1v1l-1.1 2.1-2.1 4.2v2.1c0 1 0 1-1.1 1l-1-1c-2.1-2.1-2.1-2.1-5.2-3.1v1c-1.1 1-1.1 2.1-1.1 2.1v4.2c0 1 0 1-1.1 1h-1c0-1-1.1-1-1.1-1-3.1 0-4.2 2.1-4.2 4.2 0 1 1.1 2.1 3.1 6.3l2.1 2.1c1 0 1 0 1-1v-2.1c0-1.1-1-1.1-1-2.1l1-1c1.1 0 2.1 3.1 3.1 8.4v4.2c0 2.1 1 4.2 2.1 5.2 1.1 3.1 2.1 4.2 3.1 5.2 1.1 1 2.1 2.1 2.1 2.1 0 1 0 1-1.1 1 0 0-1.1 0-2.1-1H59c-3.1 0-4.2 1-4.2 6.3 0 5.2 4.2 12.5 8.4 15.6l5.2 5.2c3.1 2.1 6.3 6.3 6.3 9.4 0 3.1-4.2 7.3-11.5 9.4l-4.2 2.1c-4.2 1-5.2 3.1-6.3 9.4 2.1 0 2.1-1 3.1-1l1 1h2.1c1.1 0 3.1-1 3.1-3.1v-1s0-1 1.1-1l1-1.1 2.1-1h1v2.1c0 1-1 2.1-1 4.2 0 3.1 1 4.2 2.1 7.3 0-1.1 1-2.1 1-2.1 0-1 1-2.1 2.1-3.1 2.1-3.1 3.1-6.3 3.1-8.4v-5.2h1c1.1 0 1.1 0 1.1 1.1l1.1 1c1 0 2.1-1 2.1-2.1 0-1 1.1-2.1 1.1-3.1 0 0 0-1-1.1-1v-2.1l1.1-1s1 0 1 1H83c0 1 1.1 1 1.1 1l2.1-2.1c1-1 1-3.1 1-3.1V338c-3.1-2.1-5.2-5.2-5.2-7.3 0 0 1.1-1 1.1-2.1l1.1-3.1c1.1-2.1 1.1-3.1 1.1-3.1 1.1 0 1.1 0 1.1 1v2.1c-1.1 0-1.1 1-1.1 2.1s1.1 1.1 2.1 1.1h2.1c3.1-2.1 6.3-3.1 8.4-3.1 2.1 0 3.1 1 5.2 2.1h2.1v-1s0-1-1.1-1c-1-1-1-2.1-1-2.1 0-1 0-1 1-1 2.1 0 5.2 6.3 8.4 16.7 2.1 8.3 3.1 9.4 10.4 13.6 6.3 3.1 9.4 7.3 9.4 12.5 0 6.3-2.1 13.6-5.2 24-1.1 3.1-2.1 5.2-2.1 6.3 0 2.1 1.1 3.1 2.1 6.3 0 2.1 0 3.1 1.1 3.1.1-.3.1.7.1 1.7z"/><path class="st3" d="M99.1 388.1c0-1 1-2.1 2.1-4.2 2.1-3.1 3.1-4.2 3.1-6.3v-2.1c0-2.1 0-3.1 1.1-3.1 0 0 0 1 1.1 1v1.1h1s1.1 0 1.1-1.1c1.1-1 2.1-3.1 2.1-4.2v-3.1c0-1 0-1 1.1-1l1 1c0 1 0 1 1 1l1.1-1 1-1v-1l1-1-1-1.1c-3.1-2.1-4.2-4.2-4.2-9.4v-7.3s-1.1-2.1-3.1-5.2c0-1-1.1-3.1-1.1-4.2 0-2.1-1-2.1-2.1-2.1-3.1 0-6.3 3.1-6.3 7.3 0 2.1 1 6.3 3.1 10.4 2.1 6.3 3.1 8.3 3.1 10.4 0 5.2-2.1 7.3-8.4 9.4-7.3 2.1-10.4 6.3-12.5 13.6 1.1-1.1 1.1-1.1 2.1-1.1h1l2.1-1c2.1 0 3.1-1 4.2-2.1v-2.1s0-1 1.1-1h1l1.1-1v5.2c0 3.2 0 4.2 2.1 6.3zm-69.9-119v7.3c0 2.1 0 4.2 1 6.3v5.2l-1-1.1c-2.1-1-3.1-2.1-5.2-2.1h-2.1l1.1 2.1 1 4.2 3.1 4.2 3.1 2.1 1.1 1v1.1h-3.1s-1.1 0-1.1 1c0 0 1.1 1 1.1 3.1l2.1 4.2 2.1 2.1 2.1 1.1c1.1 1 1.1 1 1.1 2.1v1h-2.1v1c0 1 1.1 2.1 2.1 5.2 2.1 2.1 3.1 3.1 6.3 3.1H43c1.1 0 2.1 0 2.1 1s0 1-1 1c-2.1 1-3.1 1-3.1 2.1l1 1.1 1.1 1c1.1 2.1 2.1 2.1 2.1 2.1 1.1 0 2.1 0 2.1-1 1.1-1 3.1-2.1 4.2-3.1 5.2-1 5.2-1 5.2-2.1v-1c-1.1-3.1-2.1-5.2-2.1-7.3 0-1.1 0-2.1-1.1-2.1l-1 1c-1.1 1.1-3.1 2.1-4.2 2.1-4.2 0-10.4-6.3-12.5-15.7-1.1-2.1-1.1-5.2-1.1-7.3s0-5.2 1.1-7.3c1-4.2 1-6.3 1-7.3v-1c-.3-3-3.4-7.2-7.6-10.4z"/><path class="st3" d="M38.6 286.9c-1.2 2.6-1.9 5.5-2.1 8.4 0 1 1.1 3.1 1.1 3.1 1.1 0 1.1-1 1.1-1l1.1-3.1c1.1 0 1.1 0 1.1-1 1-1.1 1-1.1 1-2.1s-1.2-3.3-3.3-4.3zm14.6 58.4l1.1 1c3.1 3.1 3.1 3.1 4.2 3.1s4.2 0 5.2-1l1-1s-1-1-2.1-1l-1.1-2.1c-1 0-2.1-1-3.1-1-2.1-.1-3.1-.1-5.2 2zm29.2 23c2.1 1 2.1 1 3.1 2.1 1.1 0 2.1 1 2.1 1h3.1l3.1-1 2.1-1c1.1 0 2.1-1 2.1-1s-1.1 0-2.1-1.1h-2.1c-3.1-2.1-3.1-2.1-4.2-2.1-2.7-.1-5.4 1-7.2 3.1zm33.4 26c1-2.1 1-2.1 4.2-2.1 3.1 0 6.3-6.3 6.3-10.4v-1l-1.1 1c-1 0-1 1-2.1 1l-3.1 1c-3.1 2.1-5.2 5.2-5.2 7.3-.1 1.2-.1 2.2 1 3.2zm235.7-30.2l1-2.1v-1c0-1 1.1-2.1 1.1-3.1 2.1-1 2.1-3.1 2.1-6.3v-2.1l-1.1-1s0-1 1.1-1c0 0 1 0 1 1 1.1 0 1.1 1 2.1 1 0 0 1.1-1 1.1-3.1v-1c0-1.1 0-2.1-1.1-3.1v-2.1s0-1 1.1-1c0 0 1 1 1 2.1h1.1c1.1 0 2.1-1 2.1-3.1 0-1 1-1 1-2.1H362c-2.1 0-5.2-2.1-7.3-3.1l-3.1-5.2c-2.1-1-3.1-4.2-3.1-4.2l-3.1-2.1c-1 0-1 0-1-1h1c1.1 0 3.1 0 7.3 2.1 3.1 1 9.4 3.1 12.5 3.1 6.3-.1 11.4-5.2 11.5-11.5 0-3.1-1-6.3-5.2-10.4 0-1-2.1-2.1-2.1-2.1-1.1 0-1.1 1-1.1 1s0 1 1.1 1v2.1h-1.1c-1 0-1-1-2.1-3.1-1.1-3.1-2.1-5.2-6.3-6.3l-4.2-2.1s-1.1 0-1.1 1l1.1 1c0 1 1 2.1 1 3.1h-1c-1.1 0-1.1 0-3.1-3.1 0-1-3.1-3.1-5.2-4.2h-3.1v1.1l1 1-1 1c-1.1 0-3.1-2.1-5.2-4.2-2.1-3.1-3.1-5.2-3.1-8.3 0-4.2 4.2-9.4 10.4-9.4 1.1 0 2.1 1 3.1 1l4.2 2.1 5.2 4.2c3.1 1 7.3 3.1 10.4 3.1 0 0 1 0 3.1-1 2.1 0 2.1-1.1 2.1-1.1l-3.1-1c-1 0-5.2-1-8.3-3.1l-5.2-4.2-5.2-2.1c-1 0-1 0-1-1.1h2.1l5.2 1.1c1.1 1 3.1 2.1 5.2 3.1 6.3 3.1 9.4 4.2 12.5 4.2 2.1 0 4.2-2.1 4.2-5.2v-3.1c0-1 0-1-1.1-2.1-1 0-1 0-1 1v1c0 3.1-1.1 3.1-3.1 3.1-2.1 0-5.2 0-11.5-3.1-6.3-2.1-10.4-3.1-14.6-3.1-9.4 0-17.7 8.3-17.7 16.7 0 8.3 5.2 13.6 15.7 18.8l11.5 4.2c8.4 4.2 11.5 6.3 11.5 10.4 0 2.1-2.1 4.2-6.3 4.2-2.1 0-4.2 0-8.4-2.1-10.4-3.1-17.7-4.2-23-4.2-9.4 0-16.7 2.1-21.9 8.4-1 1-1 1-2.1 1 0 0-1.1 0-2.1-1-1 0-2.1-1-2.1-1-1.1 0-3.1 1-3.1 2.1l-2.1 2.1h-1c-1.1 0-2.1-1-3.1-3.1-1.1-1-1.1-2.1-2.1-3.1v-6.3l1-2.1v-3.1h1.1s1 1 1 2.1v1c0 4.2 1.1 7.3 3.1 7.3 1.1 0 2.1-2.1 3.1-6.3 0-1 0-2.1 1.1-2.1 0 0 0 1 1.1 3.1 0 1 1.1 3.1 2.1 4.2l1.1 1c1.1 0 2.1-2.1 2.1-5.2 0-2.1 1-3.1 1-3.1 1.1 0 1.1 0 1.1 1l1.1 1 1.1 1c1 1 1 1 2.1 1l1.1-1 1.1-1s-1.1 0-1.1-1c-1.1-1-2.1-2.1-2.1-4.2-1-1-1-2.1-2.1-3.1v-1.1H312s-1.1 1.1-3.1 1.1h-1.1c0-1.1 0-1.1 1.1-2.1 3.1-2.1 5.2-7.3 5.2-13.6 1-3.1 1-5.2 3.1-7.3l1.1-1v6.3l1-1 2.1-1c1-1 2.1-4.2 2.1-5.2 0-2.1-1.1-2.1-1.1-3.1l-2.1-2.1h-1.1l-1 1c-1.1 0-1.1-1-1.1-1v-3.1l-1.1-3.1v-1l-1.1-1h-1l-1.1 1-2.1 2.1-2.1 2.1h-1.1v-4.2c-.1-2.7-1.2-5.3-3.1-7.3-3.1 3.1-4.2 5.2-4.2 8.3v2.1h-2.1l-1.1-2.1-2.1-2.1s-1.1 0-1.1-1l-1 1c-1.1 3.1-1.1 4.2-1.1 6.3 0 2.1-1.1 2.1-1.1 2.1h-1c-2.1-1-2.1-1-3.1-1-2.1 0-3.1 2.1-3.1 4.2 0 1 0 2.1 1 4.2 1.1 2.1 3.1 4.2 4.2 4.2V280c1.1 0 2.1 4.2 3.1 10.4 1 6.3 2.1 10.4 5.2 12.5 1.1 1 1.1 1 1.1 2.1h-1.1l-1.1-1.1h-2.1c-1 0-2.1 1.1-2.1 3.1l-2.1 7.3v10.4c-1.1 2.1 0 4.2 0 7.3 1 3.1 1 5.2 1 6.3 0 8.4-4.2 14.6-12.5 16.7l-8.4 2.1c-5.2 2.1-7.3 5.2-8.4 11.5 1.1-1.1 2.1-1.1 4.2-2.1h2.1c1.1 0 2.1 0 2.1-1 0 0 1.1 0 1.1-1l2.1-2.1 2.1-2.1c1 0 1 1 1 1 0 1 0 1-1 2.1 0 1-1.1 2.1-1.1 3.1 0 2.1 1.1 3.1 2.1 5.2 0-1 1.1-1 1.1-1 0-1 1.1-2.1 2.1-3.1 1.1-2.1 3.1-4.2 3.1-5.2V359c1.1 0 1.1 0 1.1 1v1h2.1c1.1-1 2.1-1 2.1-2.1 1.1 0 1.1-1 1.1-2.1 1.1-1.1 1.1-2.1 1.1-2.1v-3.1c1 0 1 1 2.1 2.1h2.1c1.1-2.1 2.1-4.2 2.1-5.2v-2.1l-1-2.1c0-1 1-1 1-1 1.1 0 1.1 1 2.1 3.1l1 1c1.1 0 1.1-1 2.1-2.1l2.1-2.1v-2l-1.1-2.1c-1 0-1-1.1-1-1.1 0-2.1 1-4.2 2.1-6.3 1.1-2.1 2.1-3.1 2.1-3.1v-1.1c1 0 1 1.1 1 1.1v3.1c0 1 0 1 1.1 1h1.1l3.1-2.1c1.1 0 2.1 0 3.1-1 5.2-3.1 6.3-3.1 9.4-3.1 1 0 3.1 0 6.3 2.1h1.1s1.1 0 1.1-1.1v-2.1c0-1-1.1-2.1-1.1-2.1s0-1 1.1-1c0 0 0 1 1 1 0 1 1.1 2.1 3.1 5.2 2.1 4.2 5.2 7.3 8.4 8.3l5.2 1c2.1 0 2.1 1.1 2.1 3.1 0 4.2-2.1 7.3-5.2 9.4l-4.2 3.1c-2.1 1-3.1 4.2-3.1 6.3 0 2.1 0 5.2 1.1 7.3v-1l3.1-1 1-2.1 1.1-3.1 1.1-2.1c1-2.1 1-2.1 2.1-2.1v2.1c-.1 2.2 1 3.2 2 6.4z"/><path class="st3" d="M275.4 402.7c1-1.1 1-1.1 6.3-2.1 3.1-1 5.2-2.1 5.2-6.3 1-2.1 1-3.1 3.1-4.2 1 0 2.1-1.1 2.1-1.1 0-1 1.1-1 1.1-1v1s0 1.1-1.1 2.1v2.1c0 2.1 0 4.2 1.1 5.2l3.1-3.1c3.1-2.1 4.2-4.2 4.2-8.3 0-2.1 1.1-3.1 1.1-3.1h1l1.1 2.1h1.1s1.1 0 1.1-1l2.1-1.1c1.1-1 1.1-3.1 1.1-5.2 0-1 1.1-2.1 1.1-2.1s1 0 1 1l1.1 2.1v1c1.1 0 1.1 0 1.1-1 1.1 0 2.1-1.1 2.1-1.1 1.1-1 1.1-2.1 1.1-3.1v-2.1c0-1 0-1 1.1-1v-1s1.1 0 1.1 1v1l1 1.1c1.1 0 2.1-1.1 3.1-2.1 0 0 0-1 1.1-1v-2.1c-2-2.7-3.1-6-3.1-9.4 0-4.2 2.1-7.3 6.3-14.6 3.1-4.2 5.2-7.3 5.2-10.4 0-1 0-1-1.1-1 0 0-1 0-2.1 1-1 0-1 0-1-1l-1-1.1-1.1-1H323c-1 0-2.1 1-2.1 2.1v1c0 1-1.1 3.1-2.1 4.2l-2.1 2.1c-3.1 3.1-5.2 7.3-5.2 10.4 0 1 0 3.1 1.1 5.2 1.1 4.2 1.1 6.3 1.1 7.3 0 6.3-9.4 14.6-27.1 23-8.4 5.2-10.4 7.3-10.4 13.6l-.8 2zM267 267.1v3.1c0 1.1-1.1 1.1-1.1 2.1v3.1c0 2.1 0 3.1 2.1 6.3 0 1.1 1.1 3.1 1.1 4.2s0 1-1.1 1l-1-2.1c-1.1-1-2.1-1-4.2-1h-2.1c.7 1.3 1.1 2.7 1.1 4.2 1.1 4.2 2.1 5.2 4.2 7.3 2.1 2.1 2.1 2.1 2.1 3.1 0 0 0 1.1-1 1.1v-1.1H266c-1.1 0-1.1 2.1-1.1 3.1s0 2.1 1.1 3.1v2.1l2.1 1v1c0 1 0 1-1 1h-2.2v2.1l1.1 4.2s0 1.1 1.1 2.1l2.1 2.1c1.1 0 2.1 1 2.1 1s1 0 1 1.1l-1 1-1.1-1h-2.1c-1 0-1 0-1 1v2.1l1 2.1c0 2.1 1.1 3.1 2.1 3.1h1.1c1-2.1 5.2-3.1 7.3-3.1 3.1 0 5.2 1.1 6.3 1.1h1.1c1.1 0 1.1 0 1.1-1.1v-2.1l1-4.2V316l-1 1.1c-2.1 2.1-4.2 3.1-6.3 3.1-5.2 0-9.4-7.3-9.4-18.8 0-5.2 1-11.5 2.1-19.8 1.1-1 1.1-2.1 1.1-3.1-.3-4.1-3.4-8.3-7.6-11.4z"/><path class="st3" d="M275.4 296.3l1-1 1.1-1c1.1-1 2.1-3.1 2.1-4.2s0-1-1-2.1c0-1.1-1.1-2.1-1.1-2.1-1.1 0-1.1 1-1.1 3.1l-1 2.1v5.2zm-11.5 53.2c1.1 0 2.1 0 3.1 2.1 2.1 2.1 3.1 2.1 5.2 2.1h3.1l1-1h1.1c0-1-1.1-2.1-2.1-3.1-1.1 0-2.1-1-3.1-1-1-1-2.1-1-3.1-1-2.1-.2-3.1-.2-5.2 1.9zm17.7 37.5c2.1-1 3.1-1 5.2-3.1 3.1-1 4.2-2.1 4.2-2.1 2.1-1 3.1-2.1 3.1-2.1 0-1.1-1-2.1-3.1-2.1-5.2 0-9.4 4.2-9.4 8.4v1zm52.2-33.3h6.3l1.1-1 2.1-2.1c2.1-1.1 3.1-1.1 3.1-2.1s-1.1-1-3.1-1c-4.3-.1-7.4 2-9.5 6.2z"/><path class="st0" d="M68.8 41.7l-1.1-1.1v-1c0-1.1 1.1-2.1 2.1-2.1 2.1-1 3.1-2.1 4.2-3.1l2.1-1.1v1.1c0 1.1-1 4.2-3.1 7.3-1 3.1-2.1 4.2-2.1 4.2-1 0-2.1-1.1-2.1-2.1v-2.1zm-7.3-5.2l2.1 2.1s1 0 1 1.1h-1v3.1c0 2.1-1.1 2.1-2.1 2.1s0 0-1-1l-3.1-3.1c-1-1-2.1-3.1-2.1-6.3 0-1.1 0-1.1 1.1-1.1 0 0 1 0 1 1.1l4.1 2zm7.3 13.6l2.1-1.1H72c2.1 0 2.1 1.1 2.1 2.1 0 2.1-1.1 3.1-4.2 10.4-1 2.1-1 4.2-3.1 4.2s-3.1-2.1-5.2-5.2l-1-4.2c-1.1-3.1-2.1-4.2-2.1-6.3 0 0 1.1-1.1 2.1-1.1h2.1l1.1 1.1h5v.1zm242-7.3l-1-2.1v-1c0-1.1 0-2.1 2.1-2.1 1.1-1 3.1-2.1 4.2-3.1l1.1-1.1c1.1 0 1.1 0 1.1 1.1s-2.1 4.2-3.1 7.3c-2.1 2.1-2.1 4.2-3.1 4.2s-1.1-1.1-1.1-2.1l-.2-1.1zm-8.3-6.3l2.1 2.1c1.1 0 1.1 0 1.1 1.1v3.1l-1.1 2.1s0 1.1-1.1 1.1l-2.1-2.1-2.1-3.1-2.1-4.2v-3.2c1.1 0 1.1 0 2.1 1.1l3.2 2zm8.3 13.6l2.1-1.1c2.1 0 3.1 1.1 3.1 3.1 0 1-1.1 2.1-2.1 3.1l-1.1 6.3c-1.1 3.1-3.1 4.2-4.2 4.2-2.1 0-4.2-2.1-5.2-5.2-1.1-2.1-1.1-3.1-2.1-4.2-1.1-2.1-1.1-4.2-1.1-5.2s1.1-2.1 2.1-2.1h1.1c.5.6 1.3 1 2.1 1.1h5.3zM57.4 278.6v-2.1h2.1c0 1.1 1.1 1.1 1.1 1.1 4.2 1 5.2 1 5.2 3.1l-1.1 2.1v2.1c0 1 0 1-1 1 0 0-2.1-1-3.1-2.1l-1.1-2.1-2.1-3.1zm16.6 3.1l-2.1 3.1-1.1 1c-1 0-1-2.1-1-3.1v-3.1c0-1 0-1 2.1-1 1-1 2.1-1 2.1-1l2.1-1.1h1.1l-1.1 2.1-2.1 3.1zm-4.1 9.4l2.1-1h1c1.1 0 2.1 0 2.1 2.1 0 1.1-1.1 3.1-3.1 6.3-1.1 3.1-3.1 5.2-4.2 5.2-2.1 0-4.2-3.1-7.3-8.3 0-1-1.1-2.1-1.1-3.1 0-2.1 1.1-3.1 2.1-3.1 1.1 0 1.1 0 2.1 1h1c1.1 1 2.1 1 3.1 1l2.2-.1zm225.3-15.7l2.1 1c1.1 1.1 1.1 1.1 2.1 1.1 2.1 1 3.1 1 3.1 2.1 0 0 0 1-1 2.1v1.1c0 2.1-1.1 2.1-2.1 2.1s-2.1-1-3.1-3.1c-1-1-1-4.2-2.1-5.2v-1l1-.2zm17.7 4.2l-3.1 3.1c-1.1 1-1.1 3.1-1.1 3.1h-2.1s-1 0-1-1v-4.2c0-1 0-2.1 1-2.1l3.1-1 2.1-1.1h2.1v1.1l-1 2.1zm-13.5 9.4l2.1 1h5.2l1.1-1h1.1c1.1 0 2.1 1 2.1 2.1 0 2.1-1 4.2-3.1 6.3l-2.1 3.1c-1.1 2.1-2.1 2.1-2.1 2.1-2.1 0-3.1 0-5.2-5.2-1.1-3.1-2.1-5.2-2.1-6.3 0-2.1 1.1-3.1 2.1-3.1-.2-.1.9-.1.9 1z"/><path class="st3" d="M65.7 54.3h-2.1v4.2l1 2.1c0 2.1 1.1 2.1 2.1 2.1s2.1 0 2.1-2.1v-6.3h-3.1zm242 0h-2.1c0 1.1-1.1 1.1-1.1 1.1l1.1 3.1 1 2.1c0 2.1 0 2.1 1.1 2.1s2.1 0 2.1-2.1l1-3.1v-3.2h-3.1zm-241 239.9h-1.1c-1.1 0-1.1 0-1.1 1s1.1 4.2 2.1 5.2c0 1 1 1 1 1 1.1 0 1.1-2.1 2.1-4.2v-2.1c0-1 0-1-1-1h-2zm234.8 1v3.1c0 1.1 1 2.1 2.1 2.1s2.1-2.1 2.1-4.2v-2.1c0-1 0-1-1.1-1h-2.1c-1 .1-1 .1-1 2.1z"/><path class="st0" d="M155.4 170.1H169c2.1-3.1 4.2-4.2 7.3-4.2s5.2 1 7.3 4.2H194c2.1-3.1 4.2-4.2 7.3-4.2s6.3 2.1 7.3 4.2H219c2.1-3.1 4.2-4.2 7.3-4.2 2.1 0 5.2 1 6.3 3.1l1 1.1h14.6v67.8h-12.5v25H220v-25h-37.5v25h-14.6v-26.1h-12.5v-66.7z"/><path class="st2" d="M160.6 232.7H243v-57.4h-82.4v57.4z"/><path d="M169 188.8c-2.1 0-3.1 2.1-3.1 4.2s1.1 3.1 3.1 3.1c2.1 0 4.2-1.1 4.2-3.1-.1-2.1-2.1-4.2-4.2-4.2zm64.7 0c-2.1 0-3.1 2.1-3.1 4.2s1.1 3.1 3.1 3.1c2.1 0 4.2-1.1 4.2-3.1-.1-2.1-2.2-4.2-4.2-4.2zM169 219.1c-2.1 0-3.1 2.1-3.1 4.2s1.1 4.2 3.1 4.2c2.1 0 4.2-2.1 4.2-4.2-.2-2.3-2-4.1-4.2-4.2zm64.7 0c-2.1 0-3.1 2.1-3.1 4.2s1.1 4.2 3.1 4.2c2.2-.2 4-1.9 4.2-4.2-.2-2.3-2-4.1-4.2-4.2z" fill-rule="evenodd" clip-rule="evenodd" fill="#d5d5d5" stroke="#000" stroke-width=".081" stroke-miterlimit="2.613"/><path class="st3" d="M181.5 207.6c5.2 6.3 12.5 9.4 20.9 9.4 7.3 0 12.5-2.1 18.8-9.4-6.3-6.3-12.5-9.4-19.8-9.4-7.4 0-14.7 3.1-19.9 9.4z"/><path class="st0" d="M185.7 207.6c5.2-4.2 10.4-6.3 15.7-6.3 6.3 0 10.4 2.1 15.7 6.3-5.2 5.2-9.4 6.3-15.7 6.3s-11.6-2.1-15.7-6.3z"/><path class="st3" d="M191.9 206.6c3.1 2.1 6.3 2.1 9.4 2.1 3.1 0 6.3 0 9.4-2.1-3.1-2.1-6.3-3.1-9.4-3.1-3.1-.1-6.2 1-9.4 3.1z"/><path class="st0" d="M159.6 181.5h84.5v-3.1h-84.5v3.1z"/><path class="st3" d="M172.1 175.3v7.3c0 2.1 2.1 4.2 4.2 4.2s3.1-1 3.1-4.2v-7.3c0-3.1-1-5.2-3.1-5.2h-1.1l-1 1c-1.1 0-1.1 1.1-1.1 1.1 0 1.1-1.1 1.1-1.1 1.1l.1 2zm26.1 6.2v1.1c0 2.1 1 4.2 3.1 4.2s4.2-1 4.2-4.2v-7.3c0-3.1-2.1-5.2-3.1-5.2-3.1 0-4.2 2.1-4.2 5.2v6.2zm25-6.2v7.3c0 2.1 1.1 4.2 3.1 4.2 2.1 0 3.1-1 3.1-4.2v-7.3c0-3.1-1.1-5.2-3.1-5.2h-1l-1.1 1c-1.1 0-1.1 1.1-1.1 1.1l.1 3.1zm-52.1 78.2h7.3v-10.4h-7.3v10.4zm0 5.2h7.3v-3.2h-7.3v3.2zm52.1-5.2h7.3v-10.4h-7.3v10.4zm0 5.2h7.3v-3.2h-7.3v3.2z"/><path class="st0" d="M523.7 32.3c0-16.7-8.4-16.7-16.7-16.7h-3.1V9.4c9.4 0 21.9 1.1 35.5 1.1 13.6 0 24-1.1 33.4-1.1v6.3h-3.1c-8.4 0-17.7 0-17.7 16.7v76.2c0 27.1 10.4 46.9 41.7 46.9 29.2 0 42.8-18.8 42.8-48V32.3c0-16.7-8.4-16.7-16.7-16.7h-4.2V9.4c9.4 0 17.7 1.1 27.1 1.1 8.4 0 16.7-1.1 25-1.1v6.3h-4.2c-6.3 0-14.6 0-14.6 16.7v69.9c0 50.1-26.1 64.7-59.5 64.7-41.7 0-65.7-15.6-65.7-55.3V32.3zM821 120V36.5c0-17.7-12.5-20.9-18.8-20.9H797V9.4c10.4 0 20.9 1.1 31.3 1.1 8.4 0 17.7-1.1 27.1-1.1v6.3h-3.1c-9.4 0-19.8 2.1-19.8 28.2V144c0 8.4 0 15.7 1.1 23h-8.4L711.4 39.7v90.8c0 19.8 4.2 26.1 20.9 26.1h4.2v6.3h-58.4v-6.3h3.1c14.6 0 19.8-10.4 19.8-28.2V35.5c0-12.5-10.4-19.8-20.9-19.8H678V9.4c8.4 0 16.7 1.1 25 1.1 6.3 0 12.5-1.1 19.8-1.1L821 120zm44.8 36.5h3.1c7.3 0 15.7-1.1 15.7-12.5V28.2c0-11.5-8.4-12.5-15.7-12.5h-3.1V9.4c8.4 0 21.9 1.1 32.3 1.1 11.5 0 24-1.1 34.4-1.1v6.3h-3.1c-7.3 0-15.7 1.1-15.7 12.5V144c0 11.5 8.4 12.5 15.7 12.5h3.1v6.3h-66.8v-6.3zm140.9-140.8h-5.2c-7.3 0-11.5 3.1-11.5 6.3 0 1 1.1 4.2 2.1 7.3l37.6 98.1h1.1l35.5-91.8c2.1-7.3 2.1-10.4 2.1-12.5 0-6.3-6.3-7.3-13.6-7.3h-4.2V9.4c8.3 0 16.7 1.1 26.1 1.1 6.3 0 13.6-1.1 19.8-1.1v6.3h-2.1c-4.2 0-8.4 1.1-11.5 8.3-2.1 3.1-34.4 84.5-49 121-2.1 7.3-6.3 14.6-8.4 21.9h-8.3L960.8 28.2c-4.2-10.4-8.4-12.5-17.7-12.5H940V9.4c11.5 0 23 1.1 34.4 1.1 10.4 0 26.1-1.1 32.3-1.1v6.3zm98 140.8h3.1c8.4 0 16.7-1.1 16.7-12.5V28.2c0-11.5-8.4-12.5-16.7-12.5h-3.1V9.4c13.6 0 36.5 1.1 55.3 1.1 18.8 0 41.7-1.1 56.3-1.1v33.4l-6.3 2.1c-1-14.6-3.1-26.1-27.1-26.1h-30.3v58.4h26.1c13.6 0 16.7-8.4 17.7-19.8h6.3c0 8.4-1 16.7-1 26.1 0 8.4 1 16.7 1 25l-6.3 1c-1-13.6-2.1-21.9-17.7-21.9h-26.1v51.1c0 14.6 12.5 14.6 27.1 14.6 26.1 0 37.6-2.1 44.9-27.1l6.3 2.1c-3.1 11.5-6.3 23-8.3 34.4h-117.9v-6.2zm156.5-124.2c0-15.6-8.3-16.7-15.6-16.7h-4.2V9.4c7.3 0 20.8 1.1 34.4 1.1 13.6 0 24-1.1 35.5-1.1 28.2 0 52.2 7.3 52.2 38.6 0 19.8-12.5 32.3-30.2 38.6l37.5 56.3c6.3 9.4 10.4 12.5 21.9 13.6v6.3H1350c-16.7-21.9-31.3-45.9-45.9-70.9h-14.6v47c0 16.7 8.4 17.7 18.8 17.7h3.1v6.3h-69.9v-6.3h4.2c8.3 0 15.6-3.1 15.6-11.5l-.1-112.8zm28.2 51.2h11.5c21.9 0 33.4-8.4 33.4-34.4 0-18.8-12.5-32.3-32.3-32.3-6.3 0-9.4 1-12.5 1v65.7zm193-41.8c-2.1-14.6-11.5-28.2-26.1-28.2-17.7 0-27.1 10.4-27.1 28.2 0 36.5 65.7 25 65.7 78.2 0 30.3-25 46.9-53.2 46.9-12.5 0-24-5.2-35.5-10.4-1.1-11.5-2.1-21.9-3.1-33.4l6.3-1.1c2.1 18.8 12.5 34.4 34.4 34.4 14.6 0 27.1-9.4 27.1-25 0-38.6-65.7-27.1-65.7-80.3 0-28.2 20.9-44.8 49-44.8 6.3 0 25 2.1 32.3 3.1 0 10.4 0 20.9 2.1 31.3l-6.2 1.1zm34.4 114.8h3.1c7.3 0 15.7-1.1 15.7-12.5V28.2c0-11.5-8.3-12.5-15.7-12.5h-3.1V9.4c8.3 0 21.9 1.1 32.3 1.1 11.5 0 24-1.1 34.4-1.1v6.3h-3.1c-7.3 0-15.7 1.1-15.7 12.5V144c0 11.5 8.4 12.5 15.7 12.5h3.1v6.3h-66.8l.1-6.3zM1618 19.8c-16.7 0-17.7 4.2-20.9 20.9h-6.3c1-6.3 2.1-12.5 2.1-18.8 1-6.3 2.1-12.5 2.1-18.8h5.2c2.1 6.3 7.3 6.3 13.6 6.3h113.7c5.2 0 11.5 0 11.5-7.3l5.2 1c-1.1 6.3-2.1 12.5-2.1 17.7-1 6.3-1 12.5-1 17.7l-6.3 3.1c0-8.4-1-21.9-16.7-21.9h-35.5v117.9c0 16.7 7.3 18.8 17.7 18.8h4.2v6.3h-73v-6.3h4.2c12.5 0 18.8-1.1 18.8-18.8V19.8H1618zm199.2 72l-44.8-60.5c-6.3-9.4-10.4-15.7-20.9-15.7h-2.1V9.4c11.5 0 23 1.1 34.4 1.1 11.5 0 21.9-1.1 32.3-1.1v6.3h-2.1c-6.3 0-11.5 2.1-11.5 5.2 0 2.1 2.1 5.2 3.1 7.3l33.4 46.9 28.2-39.6c3.1-6.3 6.3-10.4 6.3-14.6 0-4.2-9.4-5.2-12.5-5.2h-4.2V9.4c8.4 0 16.7 1.1 25.1 1.1 7.3 0 14.6-1.1 21.9-1.1v6.3c-8.4 0-14.6 5.2-17.8 10.4l-40.7 58.4v52.2c0 18.8 6.3 19.8 17.7 19.8h4.2v6.3h-73v-6.3h4.2c13.6 0 18.8-3.1 18.8-17.7v-47zm250.4-85.5c46.9 0 84.5 29.2 84.5 76.2 0 50.1-35.5 84.5-83.5 84.5-45.9 0-82.4-32.3-82.4-79.3 0-46 35.5-81.4 81.4-81.4zm4.2 150.2c42.8 0 50.1-37.6 50.1-69.9 0-32.3-17.8-70.9-54.3-70.9-38.6 0-50.1 34.4-50.1 63.6 0 39.6 17.8 77.2 54.3 77.2zm142.9-79.3h30.2c11.5 0 14.6-7.3 14.6-18.8h6.3c0 8.3-1.1 15.7-1.1 24 0 9.4 1.1 17.7 1.1 27.1h-6.3c0-12.5-3.1-21.9-17.7-21.9h-27.1V144c0 12.5 10.4 12.5 20.8 12.5h3.1v6.3h-72v-6.3h3.1c8.3 0 16.7-1.1 16.7-12.5V28.2c0-11.5-8.4-12.5-16.7-12.5h-3.1V9.4c13.6 0 36.5 1.1 55.3 1.1 18.8 0 41.7-1.1 56.3-1.1v33.4l-6.3 2.1c-1-15.7-5.2-26.1-21.9-26.1h-35.5l.2 58.4zM682.2 307.8c-7.3-27.1-19.8-50.1-61.6-50.1-45.9 0-69.9 36.5-69.9 85.5 0 45.9 23 92.9 76.2 92.9 29.2 0 49-18.8 56.3-45.9l8.4 1c-4.2 14.6-6.3 30.2-7.3 44.9-15.7 7.3-37.6 12.5-63.6 12.5-62.6 0-109.5-34.4-109.5-104.3 0-62.6 51.1-98.1 108.5-98.1 32.3 0 42.8 9.4 68.9 13.6 0 15.6 0 31.3 2.1 46.9l-8.5 1.1zm67.8 97c-3.1 9.4-6.3 16.7-6.3 21.9 0 8.3 11.5 9.4 20.9 9.4h3.1v8.3c-11.5-1-23-1-33.4-1-10.4 0-19.8 0-30.3 1v-8.3h2.1c10.4 0 19.8-6.3 24-17.8L774 290c4.2-10.4 9.4-24 10.4-34.4 9.4-3.1 19.8-8.4 26.1-11.5 0-1 1.1-1 2.1-1 0 0 1.1 0 2.1 1 0 2.1 1.1 4.2 2.1 7.3l51.1 145c3.1 9.4 6.3 19.8 10.4 28.1 3.1 8.4 9.4 11.5 17.7 11.5h2.1v8.3c-12.5-1-25-1-38.6-1s-27.1 0-41.7 1V436h3.1c6.3 0 17.7-1.1 17.7-8.4 0-3.1-3.1-10.4-6.3-19.8L822 375.6h-63.6l-8.4 29.2zm40.7-123.1h-1.1l-25 78.2h51.1l-25-78.2zm255.6 113.7l65.7-145c8.4 0 18.8 1 28.2 1 9.4 0 19.8-1 29.2-1v8.4h-2.1c-8.4 0-25 0-26.1 12.5 0 7.3 1.1 15.6 2.1 21.9l10.4 127.3c1 13.6 7.3 14.6 24 15.7v8.3c-12.5-1-26.1-1-39.6-1-15.7 0-30.3 0-45.9 1v-8.3c14.6-1.1 24-1.1 24-13.6V409l-8.4-116.9-70.9 156.5h-7.3l-66.8-153.4h-1.1l-9.4 122c0 8.4 2.1 13.6 6.3 15.7 4.2 2.1 9.4 3.1 17.7 3.1h3.1v8.3c-12.5-1-25-1-37.6-1-11.5 0-21.9 0-33.4 1V436h4.2c21.9-1.1 22.9-10.4 25-30.3l8.4-77.2c2.1-19.8 3.1-38.6 3.1-49 0-15.7-11.5-20.8-24-20.8H922v-8.4c11.5 0 21.9 1 33.4 1 8.3 0 16.7-1 25-1l65.9 145.1zm149.2 40.7h4.2c9.4 0 20.8-1.1 20.8-15.7v-146c0-14.6-11.5-15.6-20.8-15.6h-4.2v-8.4c12.5 0 28.2 1 43.8 1 15.7 0 31.3-1 43.8-1 46.9 0 64.7 18.8 64.7 43.8 0 28.2-26.1 40.7-51.1 44.9 30.2 0 62.6 16.7 62.6 50.1 0 30.3-29.2 55.3-65.7 55.3-13.6 0-31.3-1-49-1-16.7 0-36.5 1-49 1l-.1-8.4zM1256 411c0 18.8 3.1 23 25.1 23 23 0 40.7-18.8 40.7-43.8 0-30.3-20.9-44.9-48-44.9H1256V411zm0-76.1h13.6c23 0 40.7-9.4 40.7-35.5 0-32.3-18.8-39.6-37.6-39.6H1256v75.1zm149.2-55.3c0-19.8-11.5-20.8-19.8-20.8h-5.2v-8.4c9.4 0 26.1 1 42.8 1 16.7 0 30.2-1 44.8-1 35.5 0 66.8 9.4 66.8 49 0 25-16.7 39.6-38.6 49l46.9 71c8.4 11.5 13.6 14.6 27.1 16.7v8.3c-9.4 0-17.7-1-27.1-1-8.3 0-17.7 1-26.1 1-21.9-28.2-39.6-58.4-57.4-90.8h-18.8v60.5c0 20.8 10.4 21.9 23 21.9h5.2v8.3c-16.7 0-32.3-1-48-1-13.6 0-27.1 1-40.7 1V436h5.2c10.4 0 19.8-5.2 19.8-14.6l.1-141.8zm35.5 64.7h13.6c28.2 0 42.8-10.4 42.8-43.8 0-24-15.6-40.7-40.7-40.7-8.3 0-11.5 1-15.6 1l-.1 83.5zm140.8 91.8h4.2c9.4 0 19.8-1.1 19.8-15.7v-146c0-14.6-10.4-15.6-19.8-15.6h-4.2v-8.4c10.4 0 27.1 1 40.7 1 14.6 0 31.3-1 43.8-1v8.4h-3.1c-10.4 0-20.8 1-20.8 15.6v146.1c0 14.6 10.4 15.7 20.8 15.7h3.1v8.3c-13.6 0-30.2-1-43.8-1-13.6 0-30.2 1-40.7 1v-8.4zm104.3 0h4.2c10.4 0 20.9-1.1 20.9-15.7v-146c0-14.6-10.4-15.6-20.9-15.6h-4.2v-8.4c8.4 0 27.1 1 44.9 1s33.4-1 44.9-1c68.9 0 110.6 38.6 110.6 96 0 56.3-46.9 101.2-103.3 98.1-12.5-1-31.3-1-51.1-1-18.8 0-38.6 1-45.9 1v-8.4zm60.5-24c0 19.8 8.3 21.9 29.2 21.9 46.9 0 72-39.6 72-82.4 0-73-37.6-91.8-82.4-91.8-6.3 0-12.5 1-18.8 2.1v150.2zm340.1-107.5c-8.3-34.4-32.3-47-64.7-47-50.1 0-74.1 37.6-74.1 83.5s21.9 94.9 75.1 94.9c12.5 0 27.1-2.1 30.3-5.2V386c0-11.5-10.4-14.6-20.9-14.6h-3.1v-8.3c13.6 1 27.1 1 41.7 1 12.5 0 24 0 36.5-1v8.3h-3.1c-10.4 0-15.6 4.2-15.6 14.6v41.7l7.3 4.2v4.2c-25 7.3-49 12.5-78.2 12.5-62.6 0-109.5-37.6-109.5-104.3 0-64.7 55.3-98.1 111.6-98.1 17.7 0 29.2 2.1 39.6 5.2 11.5 2.1 20.8 4.2 32.3 5.2 0 9.4 0 31.3 3.1 46.9l-8.3 1.1zm35.5 131.5h3.1c10.4 0 20.9-1.1 20.9-15.7v-146c0-14.6-10.4-15.6-20.9-15.6h-3.1v-8.4c16.7 0 45.9 1 68.9 1s52.2-1 70.9-1c0 11.5 0 30.2 1 42.8l-8.3 2.1c-2.1-18.8-5.2-33.4-34.4-33.4h-38.6v73h33.4c16.7 0 19.8-9.4 21.9-24h8.3c-1 10.4-1 21.9-1 32.3 0 10.4 0 20.9 1 32.3l-8.3 1c-2.1-16.7-2.1-27.1-21.9-27.1h-33.4v64.7c0 17.7 16.7 17.7 34.4 17.7 33.4 0 48-2.1 56.3-33.4l7.3 2.1c-3.1 14.6-6.3 29.2-9.4 43.8-17.7 0-49-1-74-1-25.1 0-58.4 1-74.1 1v-8.2z"/></svg>