<?xml version="1.0" encoding="UTF-8"?><svg id="a" xmlns="http://www.w3.org/2000/svg" viewBox="0 0 351.12 301.92"><defs><style>.b{fill:#010101;}.c{fill:#393939;}.d{fill:#363636;}.e{fill:#9a9a9a;}.f{fill:#767676;}.g{fill:#373737;}.h{fill:#575757;}.i{fill:#505050;}.j{fill:#717171;}.k{fill:#6f6f6f;}.l{fill:#666;}.m{fill:#2e2e2e;}.n{fill:#383838;}.o{fill:#949494;}.p{fill:#8d8d8d;}.q{fill:#8c8c8c;}.r{fill:#202020;}.s{fill:#f3f3f3;}.t{fill:#313131;}.u{fill:#535353;}.v{fill:#afafaf;}.w{fill:#d1d1d1;}.x{fill:#888;}</style></defs><polygon class="s" points=".48 301.92 0 301.92 0 0 351.12 0 351.12 .48 .48 .48 .48 301.92"/><polygon class="w" points="351.12 301.68 351.12 301.92 350.88 301.92 351.12 301.68"/><path class="b" d="M158.29,43.89c0,.47-.4,1.11-.24,1.68h1.2c.86,5.99.33,12.11.23,18.1-.05,3.27.24,6.6-.24,9.83v14.04s.97,0,.97,0c.23.86-.32,1.95-.2,2.7.1.61,2.03,4.65,2.43,4.93.14.1.43.01.62.07l.06.91c1.38.07,2.61,1.53,3.8,1.84.62.16,2.34.06,2.65.59.06.1-.05.51.11.72.3.39,1.93.26,2.53.24,1.29-.05,2.49-.22,3.84-.24-.42,1.83,2.82,1.18,4.08,1.2,12.28.2,24.65.08,36.93,0,5.31-.04,9.94.52,14.79,3.08,1.73.91,3.18,2.94,5.36,2.68l.02.93c1.73.02,2.03,2.3,3.81,1.94v.96s.96,0,.96,0v1.2s1.2,0,1.2,0v.96s.96,0,.96,0v.96s.96,0,.96,0v.96s.95,0,.95,0c-.11,1.44,1.12,1.98,1.81,3.1,2.82,4.57,4.96,10.48,5.15,15.83.12,3.3.11,7.01,0,10.31-.07,2.24-.14,5.69-1.01,7.74-.73,1.71-1.19,3.46-1.92,5.03-.33.71-1.23.95-.9,2.1h-1.19c.17,1.35-.9,1.79-1.56,2.65-.56.72-1.12,1.86-1.67,2.65-.21.3-3.38,3.46-3.6,3.6-.38.22-.95.17-1.05.28s.02.48-.08.6c-.06.07-1.25.44-1.69.78-.66.5-1.03,1.53-2.32,1.47.12,1.4-.28.7-.97,1.06-4.04,2.09-6.61,3.5-11.28,4.55-1.03.23-2.39.1-3.12.6-.83-.63-1.69-.44-2.64-.48-11.49-.42-23.25.23-34.78,0-.72-.01-1.44.03-2.16,0-1.7-.07-5.18-.4-6.73-.82-.46-.13-.85-.76-1.48-.95s-1.11.04-1.93-.2-3.46-1.44-4.1-1.9c-.69-.51-.95-1.48-1.37-1.75-.48-.31-1.37-.2-1.89-.5-.46-.27-.63-1.04-1.08-1.32-.37-.23-.88-.18-1.1-.34-.39-.3.12-1.15-1.19-.84v-.96s-.96,0-.96,0v-.96s-1.2,0-1.2,0v-1.2s-.96,0-.96,0v-.96c-1.55.27-.69-.59-.99-.92-.09-.1-.57,0-.8-.27-.2-.23-.22-.83-.48-1.2-.32-.45-1-.58-1.29-1.11-.36-.63-.13-1.35-.39-1.77-.13-.22-.62-.33-.84-.6-.82-1-2.18-4.26-2.58-5.57-.38-1.22-.42-3.03-.78-3.9.63-.89.97-3.26-.72-2.88V44.74c1.48-3.66,2.47-4.87,6.59-4.45,1.82.19,3.52,1.69,3.48,3.59ZM172.2,111.27c-.83-.03-2.42-.14-3.14.1-.56.19-.57.66-.77.79-.31.2-1.33.28-1.94.58-2.92,1.45-5.08,4.17-6.26,7.17s-.5,6.1-.59,9.48c-.13,4.6-1.27,10.31-.19,14.8.18.75.73,1.46.85,2.03.16.8-.04,1.55.21,2.42.5,1.73,2.48,3.61,2.74,5.53l.93.02c-.24,1.29,1.05,2.17,1.92,3,2.55,2.45,6.19,5.44,9.6,6.47,1.7.52,4.86,1.47,6.48,1.56.1.36-.33.92.35.96,11.51.63,23.17.1,34.66,0,.03,0,.27.24.58.25.69.02,1.5.04,2.18,0s.25-.59.35-.96c2.18.1,1.52-.32,2.82-.9.65-.29,1.48-.16,2.05-.35s.52-.75.81-.93c.63-.38,2.5-.94,3.27-1.23.37-.14.35-.61.7-.75.64-.27,1.44.02,2-.38.33-.24,1.1-1.58,1.53-2.06,1.29-1.41,3.24-2.67,4.33-4.07.35-.45.4-1.09.6-1.32.22-.25.68-.17.78-.29s.14-1.02.35-1.45c1.7-3.48,2.34-4.39,2.58-8.57l1.2-.14c-.03-2.9.04-5.81-.04-8.7l-1.17-.27c-.15-3.3-1.36-6.56-2.83-9.52-.43-.86-1.39-1.09-1.01-2.47h-.95c-.03-.32.04-.66-.13-.95-.12-.21-3.16-3-3.49-3.24-.38-.27-.98-.3-1.19-.49-.35-.3-.13-.95-.47-1.21-.28-.21-2.27-.72-2.74-1.05-.23-.16-.08-.56-.19-.68-.46-.48-5.18-2.07-6.19-2.34-1.51-.41-4.21-.83-5.76-.84l-.14-1.2h-44.57l-.14,1.2Z"/><path class="b" d="M82.26,100.24c15.57.3,32.42.44,47.97,0,.73-.02,1.79-.1,2.47.05.14.03,2.41,1.11,2.51,1.2s1.22,2.34,1.24,2.48c.23,1.47-.15,3.87-1.16,4.99-.27.3-.9.14-1.3.38-.26.15-.29.67-.64.85-.41.21-.99.09-1.44.36l-2.03-.49h-47.23s-.39,1.45-.39,1.45c-.95-.02-1.93.06-2.88,0-.47-.03-1.43-.49-2.16-.24v1.2c-1.25.11-6.01,1.34-7.04,1.95-.65.38-1.19,1.36-1.7,1.66-.38.22-1.01.2-1.07.25-.12.12.09.84-.25,1.07-.27.17-.85.05-1.35.33-.19.11-3.13,2.81-3.24,3-.28.49-.15,1.08-.34,1.35-.17.25-.65.09-.85.4-2.17,3.23-3.53,7.75-3.83,11.58l-1.45.38v8.74s1.45,0,1.45,0c.19,2.19.41,4.07,1.13,6.18.21.6,1.56,3.57,1.8,3.84.11.12.59.03.79.28.22.28.1.95.49,1.44.43.55,5.25,5.41,5.75,5.76.74.53,9.25,4.27,10.18,4.45,1.37.28,3.14.08,4.57.11-.05.87-.05,1.1.83,1.21,5.03.63,12.08-.22,17.27-.26,9.86-.08,20.04-.25,29.87.01,2.55.07,1.95.06,4.02.9.3.12.9-.02,1,.08.06.05,0,.63.15.92.85,1.72,1.55,2.31,1.02,4.65-.14.59-.59.76-.78,1.14s-.07.96-.24,1.2c-.25.37-1,.15-1.4.28-.32.11-.51.47-.83.61s-1.43.39-1.51.53c-.58-.3-1.13-.44-1.79-.49-15.55-1.19-32.63.91-48.34,0-1.05-.21-2.17.23-3.12.24-2.59.04-2.49-.31-4.56-1.08-2.93-1.09-5.63-1.35-8.56-2.95-.67-.36-1.06-1.06-1.97-1.03l-.03-.92c-.63.02-2.53-.82-2.96-1.19-.14-.12-1.01-1.46-1.17-1.63-.14-.15-.77-.14-1.13-.43-2.62-2.09-4.4-4.28-5.9-6.81-.21-.35-.51-.54-.71-.97-.13-.27-.04-.85-.13-.94-.13-.12-.78.11-1.06-.26-.16-.21-.12-.8-.3-1.14-.38-.72-1.43-1.82-1.62-2.46-.23-.78.04-1.58-.16-2.24s-1.54-1.37-.9-2.91l-.75-.26c-.17-.94-.13-4.97-.46-5.39.55-.17.46-.62.49-1.07.2-3.05-.1-6.39-.01-9.49.21-7.57,3.4-14.11,7.8-19.65.13-.17,1.54-1.1,1.72-1.28.29-.28-.02-1.15,1.26-.9v-1.19s.97,0,.97,0v-.96c1.78.36,2.08-1.92,3.81-1.94l.03-.94c1.45.72,1.32-.42,1.84-.73.44-.26,1.1-.11,1.51-.35.29-.17.38-.79.72-.96.47-.23,1.09,0,1.4-.16.13-.07.18-.63.52-.8.43-.21.98-.03,1.44-.24.3-.13.51-.61,1.07-.85,1.84-.77,3.28-.58,4.76-1,.45-.13.68-.76,1.5-.9,1.38-.22,3.88-.04,5.38-.01Z"/><path class="c" d="M308.91,49.16c.71-.04,1.44.03,2.16,0,.08.93.28,1.99.24,2.88,0,.04-.2.19-.22.38-.09,1.17-.98,4.35.94,3.93.06,2.95.01,5.92,0,8.87h-.96c0,.72.01,1.44,0,2.16-.02,1.04,0,2.08,0,3.12,0,.56.01,1.12,0,1.68h-.96c0,.72.02,1.44,0,2.16-.01.58.12,1.54-.03,2.01-.13.4-.66.35-.69.38l-1.44-.24v.7s-.96.02-.96.02v1.92s-.96,0-.96,0v.96s-.96,0-.96,0v1.2s-.96,0-.96,0v.96s-.96,0-.96,0v.96s-1.2,0-1.2,0v.96s-.96,0-.96,0v.96s-.96,0-.96,0v.96s-.96,0-.96,0v1.2s-1.92,0-1.92,0v.96s-2.16,0-2.16,0v.96s-1.92,0-1.92,0v.96s-1.92,0-1.92,0v.96s-4.08,0-4.08,0v.96s-12.95,0-12.95,0v1.44c-.2-.08-.69.06-.96,0v-1.2s-1.2,0-1.2,0v-.96c-.32,0-.64,0-.96,0v-.96s-1.78,0-1.78,0l-.14.96c-1.04-.01-2.08.02-3.12,0-1.28-.03-2.56.02-3.84,0-1.56-.02-3.34-.26-5.04-.24-1.1.01-2.22.21-3.12.24-.63.02-1.28,0-1.92,0v-1.2c-.65-.25-1.54.22-1.92.24-.71.05-1.45-.03-2.16,0-.02-.32.02-.64,0-.96-.06-.98-.04-2.13,0-3.12h2.16c.23.87,1.26.83,1.85,1.15,1.71.91,2.5.71,3.66,1.25s.61.64,2.4.72c2.56.11,5.33.03,7.91,0,1.04-.01,2.08,0,3.12,0v-.96c.63.02,1.28,0,1.92,0,.72,0,1.44,0,2.16,0v-.96s2.12-.27,2.12-.27c.21-1.69,1.68-.91,2.74-1.22.88-.25,2.12-1.3,2.86-1.69.6-.31,3.79-1.76,4.26-1.86.27-.06.66.04.96,0-.21-1.43.27-.73.95-1.08.56-.29.56-1.51,1.92-1.08v-.96s.96,0,.96,0v-.96s1.4-.03,1.4-.03c.08-.05.27-.75.27-.92h1.44s0-.96,0-.96h.96s0-.96,0-.96h.96s0-1.2,0-1.2h.96s0-1.68,0-1.68c-.09-.1-2.35.8-1.94,1.4l-.94.03v1.2s-.96,0-.96,0c0,.85.21,1.28-.72,1.44-.58.1-1.92.3-2.34.79-.11.13,0,.5-.09.6-.1.11-2.1.71-2.69,1.23-.53.47.52.6-1.11.74-.4.03-.8-.03-1.2,0v1.44c-.31,0-.67.04-.96,0-.18-.03-.57-.37-.93-.26l-.03-.94h.96s0-.96,0-.96h.96s0-.96,0-.96h1.2s0-1.92,0-1.92h.96s0-2.16,0-2.16h.96c0-.95-.01-1.92,0-2.88.53.04.85.01.96-.6.15-.8.15-6.15,0-6.96-.11-.61-.43-.63-.96-.6v-3.12c1.66-.21,4.55-1.48,6.83-1.92.65-.13.71-.56,2.04-.72.39-.05,1.16.12,1.41-.03.17-.1.16-.77.27-.93.18-.23,1.51-.59,1.93-.83.63-.36,1.27-.94,1.91-1.21.67-.28,1.55-.26,2.05-.58.72-.45.96-2.04,2.49-1.7v-.95s.97,0,.97,0c-.37-1.46,1.24-.59.97-2.15.31-.05.63.01.95,0ZM303.15,65.47c-1.63-.23-.97.27-1.25.66-.16.23-.68.13-.86.37-.51.66-.79.74-.96.96-.11.14.03.51-.2.68-.69.5-1.04-.13-.81,1.66l1.89-.26.02-1.18h.96s0-.96,0-.96h1.2s0-1.92,0-1.92Z"/><path class="b" d="M264.54,106.95c.41-1.15.52-3.52.96-4.37.07-.13,1.99-1.86,2.17-1.97.79-.49,2.98-.53,3.9-.32.14.03,2.43,1.1,2.52,1.21.22.26-.34.91,1.01.66-.19,1.13.16,1.88.48,2.88-.56.99-.67,2.76-.73,3.95-.84,16.6.37,34.6.5,51.32.03,3.98.22,8.43,0,12.36-.05.88-.35,1.74-.24,2.64l-.96-.24v1.2c-.09.1-.75-.22-.96-.24-.4-.03-.8.02-1.2,0v1.2c-1.2.2-2.66.39-3.92-.05-.14-.05-2.22-1.87-2.32-1.98-.98-1.16-.68-3.71-.71-5.16-.47-19.29.75-38.68,0-57.9-.06-1.62.42-3.84-.47-5.17Z"/><path class="e" d="M262.14,41.25l.14,1.2h2.74s0-.97,0-.97h.96s0-3.12,0-3.12h1.2s.35-1.2.35-1.2c.64.6.36,1.79.65,2.47.19.43.75.44.87.81.16.45-.07,1.9.04,2h2.88s0,.96,0,.96h4.9s.14-1.2.14-1.2l.85.22.11,1.94h1.2s0,2.16,0,2.16h.96s0,1.92,0,1.92h.96s0,1.92,0,1.92h.96s0,1.2,0,1.2h.96s0,1.92,0,1.92h.96s0,1.92,0,1.92h1.2s0,2.16,0,2.16h.96c.01.24-.01.48,0,.72h-5.04s0,.96,0,.96h-3.12s0,.96,0,.96h-2.88s0,.96,0,.96h-1.92s0,.96,0,.96h-2.16s0,1.2,0,1.2h-1.92s0,.96,0,.96h-1.92s0,.96,0,.96h-1.2s0,.96,0,.96h-.96s0,.96,0,.96h-.96s0,.96,0,.96h-1.92s0,1.2,0,1.2h-.96s0,.96,0,.96h-1.2s0,.96,0,.96h-.96s0,.96,0,.96h-.96s0,.96,0,.96h-.96s0,2.16,0,2.16h-.96s0,.96,0,.96h-.96c.01.95-.01,1.92,0,2.88l-1.2-.14v-1.54s-.96,0-.96,0v-1.92s-.96,0-.96,0v-3.12s-.96,0-.96,0v-11.03l.85-.22.09-2.51.95-.53v-1.63s.88-.37.88-.37l.11-1.69,1.09-.23.14-1.67.9-.42.06-1.74c1.13,0,.62-1.1,1.77-1.21.27-1.31-.32-1.5,1.04-2.08l.06-1.5.82-.25.12-1.93,1.09-.23.21-1.71.85-.22ZM263.1,49.16v3.48c0,.14-.72.41-.84.6-.16.26-.26,5.05-.09,5.24.76-.08,1.1.8,1.57.95.9.27,2.44-.1,3.43.05v-.96s.96,0,.96,0c-.22-2.14.46-15.46-.51-16.28l-1.43.08c-.06.7-1.03,1.58-1.14,1.98-.19.65.11,1.5-.09,2.07-.14.4-.75.39-.89.79-.15.45.06,1.91-.03,2h-.96Z"/><path class="q" d="M286.12,58.27c.02.64,0,1.28,0,1.92.01,1.04,0,2.08,0,3.12h-.96s0,3.84,0,3.84h-1.2s0,3.12,0,3.12h-.96s0,1.92,0,1.92h-.96s0,1.92,0,1.92h-.96s0,1.2,0,1.2h-.96s0,1.92,0,1.92h-.96s0,.96,0,.96h-1.2s0,.96,0,.96h-.96s0,.96,0,.96h-.96s0,1.2,0,1.2h-1.92s0,.96,0,.96h-2.16s0,.96,0,.96h-1.92s0,.96,0,.96h-1.92s0,1.2,0,1.2c1.68-.02,3.36.02,5.04,0,.05.78-.11.88-.83.97-2.14.26-4.29-.53-6.37-.01v-.96s-2.88,0-2.88,0v-.96s-1.92,0-1.92,0v-.96s-2.16,0-2.16,0v-.96s-.96,0-.96,0v-.96s-1.92,0-1.92,0v-1.2s-.96,0-.96,0c0-.4,0-.8,0-1.2-.02-.96.01-1.92,0-2.88h.96s0-.96,0-.96h.96s0-2.16,0-2.16h.96s0-.96,0-.96h.96s0-.96,0-.96h.96s0-.96,0-.96h1.2s0-.96,0-.96h.96s0-1.2,0-1.2h1.92s0-.96,0-.96h.96s0-.96,0-.96h.96s0-.96,0-.96h1.2s0-.96,0-.96h1.92s0-.96,0-.96h1.92s0-1.2,0-1.2h2.16s0-.96,0-.96h1.92s0-.96,0-.96h2.88s0-.96,0-.96h3.12s0-.96,0-.96h5.04Z"/><path class="c" d="M96.17,225.18c.68-.06,1.45.02,2.16,0,1.27-.04,2.57-.03,3.84,0,.63.02,1.29-.05,1.92,0s4.48,1.57,5.12,1.95c2.72,1.61,3.68,4.4,4.83,7.16.35.83-.14,1.67,1.09,1.82v7.89s-.7.15-.7.15l-.26,2.71c-1.28.29-1.46,2.11-1.71,3.25l-.92.03c.09,1.65-1.38,1.51-1.95,2.02-.26.23-.17.71-.27.8-.15.13-.79-.04-1.17.15-.33.17-.39.72-.52.8-.31.17-.94-.06-1.4.16s-.39.95-.51,1.05c-.13.12-2.13.03-2.61.04-1.59.02-3.21.03-4.8,0-.71-.01-1.47.06-2.16,0-1.85-.16-1.07-.51-1.92-1.07-1.37-.89-3.02-.56-4.56-2.16s-1.48-3.54-2.42-4.77c-.3-.4-.78-.5-1.04-.88-.1-.16-1.09-2.83-1.09-2.99v-8.27l.93-.02c-.03-1.06.86-1.44,1.28-2.2.44-.82.54-2.07.97-2.87.9-1.68,5.94-4.55,7.86-4.73ZM98.09,229.98c-.51.01-1.81-.12-2.11.05-.07.04-.3.57-.52.79-2.11,2.16-3.89,2.9-4.33,6.35-.78-.05-.88.11-.97.83-.1.8-.42,4.32.97,3.97.05,1,.34,1.97.22,2.99l.69.16c-.08,1.47.85,1.59,1.61,2.36.71.73,2.06,2.49,2.89,2.63.49.08,1.04,0,1.54.02.1.37-.33.91.35.96,1,.07,2.37.07,3.37,0,.68-.05.25-.59.35-.96,1.75-.09,1.05-.49,1.73-.8,1.54-.69,1.94-.21,3.17-2.09.35-.54-.09-1.11,1.11-1.33l-.02-2.73h.96s0-5.99,0-5.99l-.74-.13c.05-.99-.02-2.21-.45-3.12-.49-1.04-2.45-1.98-2.65-2.74-.07-.27.08-1.12,0-1.2-.56-.16-1.23.24-1.68.24-.38,0-.89-.23-1.44-.24-.1-.37.33-.91-.35-.96-.9-.06-4.01-.46-3.72.96Z"/><path class="g" d="M153.26,226.14c1.61.1.58.06,1.08.95.75,1.32,1.31,2.67,2.03,3.93.16.27.57.08.68.19.27.28,1.01,2.75,1.24,3.16.21.37,1.45.84,1.8,1.38.54.82.67,2.5,1.28,3.52.51.84,1.31,1.01,1.68,1.68.85,1.52.49,3.93,2.8,4.39.35-.07.58-2.26.61-2.75.36-5.38-.58-11-.25-16.44h5.04c1.08,5.62.9,22.05,0,27.82h-7.2c-.21-1.69-.84-1.27-1.45-2.1-.34-.46-.38-1.2-.61-1.72-.29-.64-1.14-1.07-.82-2.18-1.41.19-.73-.26-1.08-.95-.32-.63-1.46-1.72-1.85-2.47-.22-.42-.16-.98-.4-1.51-.34-.72-1.34-1.3-1.57-1.79-.17-.37-.08-.81-.26-1.18-.26-.55-1.19-.8-.83-1.93-1.42.18-.74-.22-1.02-.77-.21-.41-.57-.63-.72-.97-.32-.7.03-1.78-1.14-1.86,0-.48-.19-.94-.27-1.41l-.93-.03c0,6.95,0,13.91,0,20.86h-3.84v-27.82c1.99.09,4.01-.12,6,0Z"/><path class="g" d="M240.08,225.18c.6-.06,1.29.02,1.92,0,1.34-.04,2.74-.05,4.08,0,.63.02,1.3-.05,1.92,0,2.32.2,4.67.98,6.01,2.99.67,1-.36.97-.86,1.56-.58.67-1.54,2.52-2.43,2.6-.66.06-1.16-.86-1.75-1.05-.47-.15-1.14,0-1.41-.15-.25-.14-.32-.96-1.49-1.15-.1-.37.33-.91-.35-.96-1.27-.09-3.06-.09-4.33,0-.68.05-.25.59-.35.96-1.59.17-1.21.83-2.17,1.54-.45.33-1.56.59-1.62.66-.13.16-.05.85-.27,1.23-.18.31-1.1.64-1.38.96-.69.8-.51,1.84-.56,2.8-.37.1-.92-.33-.96.35-.1,1.54-.1,3.75,0,5.29.05.68.59.25.96.35.06.58.39,2.09.67,2.57.35.6,1.02.72,1.27,1.13.24.38.18.99.25,1.07s.86.04,1.27.29c.94.59.22,1.64,2.54,1.9.09.52-.33.8.36.95,1.59.35,3.69.35,5.27,0,.69-.15.28-.43.36-.95.89-.12,1.38-.79,2.16-.96.28-.06.66.04.96,0v-7.2s-6,0-6,0c-.05-1.2-.07-2.65,0-3.84h11.03c.14,2.25,0,3.97,0,6.11-.01,2.92.03,5.85.01,8.76-1.12-.41-1.53.75-2.09.91s-1.27-.08-1.83.09-.59.97-1.04,1.12c-.51.17-1.61.02-2.24.04s-1.28,0-1.92,0c-1.35.02-2.73.05-4.08,0-.63-.02-1.31.06-1.92,0-2.91-.29-7.24-2.83-8.6-5.43-.31-.6-.21-1.2-.43-1.71-.34-.79-.96-.73-1.52-2.7.76-.44.53-2.22.48-3.01-.05-.68-.59-.25-.96-.35-.03-1.27-.03-2.57,0-3.84.37-.1.92.33.96-.35.08-1.16-.19-2.05-.24-3.01-.03-.55,1.44-3.66,1.82-4.3.17-.29,3.79-3.97,4.05-4.11s3.98-1.14,4.45-1.18Z"/><path class="g" d="M66.43,229.98c.04,1.53.03,3.4-.24,5.04-.06.39.05.68-.13,1.18-.32.88-1.41,1.16-1.55,1.94l-1.2.14v1.78c.38.05.86-.07,1.2,0,1.96.4,2.74,1.7,2.88,3.6.13,1.79.05,3.76-.24,5.52-.17,1.02-.5,2.65-1.31,3.37-.51.45-1.05.36-1.55.61-.31.15-.48.59-.74.7-.45.2-1.68.08-1.92.6-.31-.75-1.44-.46-2.16-.48-3.67-.09-7.36.07-11.03,0v-27.82c2.12.02,4.24-.03,6.37,0,1.81.02,3.1.15,5.03,0,.46-.03.96.27.83-.48.94.23,2.16.21,3,.71.8.48,2.72,2.62,2.75,3.6ZM52.28,237.17c.02.27-.13.92.14.96,1.58-.09,3.2.1,4.78,0,.68-.05.25-.59.35-.96.48-.01,1.88.11,2.12-.04.11-.07.77-1.92,1.48-2.12.29-.08,1.15.17,1.2-.14v-2.6l-1.2-.14c-.08-.32-.64-.63-.72-.96-.07-.28.08-1.12,0-1.2-.72,0-1.44.02-2.16,0-1.56-.03-3.25-.07-4.8,0-.4.02-.8-.02-1.2,0,.11,2.38-.14,4.82,0,7.2ZM52.28,241.97c-.16,2.69.12,5.46,0,8.15.4.02.8-.03,1.2,0,.72.05,1.7.24,2.28.24,1.08,0,2.51-.49,3.72-.24v-.96c.55-.05,1.23.12,1.75-.04.49-.15.65-.99,1.12-1.16.31-.11.96.21,1.17-.39l.03-3.45c-.09-.08-1.12.07-1.44,0-.47-.1-1.24-1.83-1.68-2.04-.52-.25-1.33-.09-1.92-.12-.1-.37.33-.91-.35-.96-1.88-.13-3.86.1-5.74,0-.27.04-.12.69-.14.96Z"/><path class="g" d="M216.09,226.14c.64.01,1.28-.02,1.92,0,2.1.07,2.14-.04,3.72,1.43s2.1,2.49,2.27,4.56c.07.85.05,2.01,0,2.88-.14,2.45-.91,5.67-3.84,6-.68.08-1.46-.05-2.16,0v2.02s1.2.14,1.2.14c.04.45.97,2.73,1.23,3.21.37.68,1.14.89,1.48,1.42.48.75.76,2.22,1.15,3.14s.88.79.93,2.07c.01.32,0,.64,0,.96-1.48-.17-3.38.22-4.8,0-1.24-.2-.93-1.19-1.34-1.9-1.25-2.15-4.47-6.74-4.65-8.9-.03-.39.03-.8,0-1.2h-4.08c0,3.99,0,8,0,11.99h-4.08v-27.82c3.67.04,7.36-.06,11.03,0ZM210.1,229.98c-.27.02-.92-.13-.96.14v8.02c.32.02.65-.02.96,0,1.67.1,3.98.12,5.64,0,.68-.05.25-.59.35-.96.73-.06,1.73-.36,1.92-1.2l1.2-.14v-3.56l-1.2-.14c-.01-.24.07-.88-.01-.95-.06-.06-.63.02-.93-.14-.44-.23-.62-.84-1.15-1.02-1.58-.55-4.1-.15-5.82-.06Z"/><path class="d" d="M139.1,226.14c-.12,1.34.23,2.53.24,3.84h-13.19c-.01.4.02.8,0,1.2-.08,1.85-.11,4.16,0,6,.02.32-.02.64,0,.96h11.99s0,3.84,0,3.84c-3.91-.08-7.84.06-11.75,0-.08,2.41-.29,4.78-.24,7.2,0,.32,0,.64,0,.96,4.31,0,8.64,0,12.95,0v3.84s-17.99,0-17.99,0v-27.82h17.99Z"/><path class="d" d="M197.15,226.14c0,1.27.06,2.57,0,3.84-4.23.25-8.7-.18-12.95,0-.01.4.02.8,0,1.2-.08,1.85-.11,4.16,0,6,.02.32-.02.64,0,.96h11.99v3.84c-3.92.23-8.05-.17-11.99,0,.11,2.37-.14,4.83,0,7.2.02.32-.02.64,0,.96,4.31,0,8.64,0,12.95,0v3.84s-17.99,0-17.99,0v-27.82h17.99Z"/><path class="d" d="M265.5,225.9c1,1.02,1.11,2.01,1.71,3.2.34.67,1.27.9.93,2.07h.95c-.22.99.55,1.36.83,1.93.18.37.08.85.26,1.18.13.24,1.21,1.69,1.42,1.69,1.47.04,1.4-1.79,1.76-2.57.6-1.31,2.09-2.97,2.88-4.31.44-.74,1.01-2.78,1.73-2.95h5.04c-.06.52.09,1.19,0,1.68-.2,1.04-2.16,2.89-1.93,4.31l-.94.02c0,.82-.47,1.87-.92,2.56-.56.84-1.26,1.08-1.69,1.66-1.02,1.37-1.13,3.43-2.67,5.12-.3.33-.96.35-.96,1.56v7.91c0,.76.24,1.98.24,3h-5.04c-.12-2.65.52-9.83-.11-11.77-.04-.13-1.11-2.21-1.22-2.38-.4-.62-1.31-.84-1.66-1.46-.37-.67-.92-2.66-1.31-3.2-.17-.24-.56-.02-.75-.31-.39-.6-.71-2-1.23-2.8-.38-.57-1.08-.98-1.37-1.51s-.25-1.19-.53-1.62c-.48-.73-.82-.08-.94-1.58-.03-.4.02-.8,0-1.2l5.52-.24Z"/><path class="r" d="M309.39,76.74c-.98,1.38-2.59,5.71-3.55,7.6-.34.68-1.04.95-.77,1.99h-.95c.25,2.06-2.4,2.12-2.18,4.07-1.39-.18-.71.3-1.18,1.1-.2.34-2.2,2.25-2.64,2.64-.65.57-.61.59-1.01,1.01-.12.13-.85.05-1.26.31-.34.22-.4.76-.78.89-.48.17-2.48.72-2.96.76-2.42.21-5.12-.15-7.57-.01-.45.03-.9-.05-1.07.49-1.63-.34-4.08-.5-5.58-1.25-.64-.32-.86-1.12-1.84-.92l-.02-.94c-.95.38-1.72-.89-1.91-.97v-1.44s12.95,0,12.95,0v-.96s4.08,0,4.08,0v-.96s1.92,0,1.92,0v-.96s1.92,0,1.92,0v-.96s2.16,0,2.16,0v-.96s1.92,0,1.92,0v-1.2s.96,0,.96,0v-.96s.96,0,.96,0v-.96s.96,0,.96,0v-.96s1.2,0,1.2,0v-.96s.96,0,.96,0v-.96s.96,0,.96,0v-1.2s.96,0,.96,0v-.96s.96,0,.96,0v-1.92s.95-.02.95-.02v-.7s1.45.24,1.45.24Z"/><path class="d" d="M79.15,226.14v27.82h-5.04c-.06-1.43-.24-3.39-.24-4.68v-19.42c0-.93.17-2.63.24-3.72h5.04Z"/><path class="p" d="M262.14,41.25c-.32-1.03.73-.55.93-1.11l.06-1.74.9-.42.06-1.5.9-.42v-2.34s.96-.53.96-.53l.04-1.76,1.16-.4.02-2.34.95-.53.03-1.77h.96s0-1.92,0-1.92h.96s0,3.12,0,3.12h.96s0,2.88,0,2.88h.96s0,1.92,0,1.92h1.2s0,3.12,0,3.12h.96s0,1.92,0,1.92h.96s0,2.16,0,2.16h.96s0,1.92,0,1.92h.96s0,.72,0,.72l-.14,1.2h-4.9s0-.97,0-.97h-2.88c-.1-.1.12-1.55-.04-2-.13-.37-.68-.37-.87-.81-.29-.67,0-1.86-.65-2.47l-.35,1.2h-1.2s0,3.12,0,3.12h-.96s0,.96,0,.96h-2.74s-.14-1.2-.14-1.2Z"/><path class="j" d="M287.08,60.19v3.12c0,2.71.04,5.44,0,8.15-.01.96,0,1.92,0,2.88h-.96s0,2.16,0,2.16h-.96s0,1.92,0,1.92h-1.2s0,.96,0,.96h-.96s0,.96,0,.96h-.96s.03.93.03.93c.36-.1.75.24.93.26.14,1.31-1.07.94-1.92.96v.96s-3.12,0-3.12,0v.96s-1.92,0-1.92,0v.96c-.95,0-1.92-.01-2.88,0-1.68.02-3.36-.02-5.04,0v-1.2s1.92,0,1.92,0v-.96s1.92,0,1.92,0v-.96s2.16,0,2.16,0v-.96s1.92,0,1.92,0v-1.2s.96,0,.96,0v-.96s.96,0,.96,0v-.96s1.2,0,1.2,0v-.96s.96,0,.96,0v-1.92s.96,0,.96,0v-1.2s.96,0,.96,0v-1.92s.96,0,.96,0v-1.92s.96,0,.96,0v-3.12s1.2,0,1.2,0v-3.84h.96c-.01-1.04,0-2.08,0-3.12.31-.03.65.04.96,0Z"/><path class="g" d="M213.21,270.03c.09.91.04,2.18,0,3.12-.02.55.1,1.24-.05,1.75-.19.64-1.46,1-1.16,2.08h-.95c.2,1.42-.26.74-.94,1.09-.76.39-.55.93-1.93,1.07-1.09.11-2.97.09-4.08,0-1.89-.15-1.13-.62-1.92-1.07-.99-.56-2.49-.02-2.15-2.05h-.96c0-.32,0-.64,0-.96-.02-.64,0-1.28,0-1.92-.02-1.31-.09-2.79,0-4.08.11-1.6.89-1.63.97-3.11h1.19s0-.97,0-.97c.32,0,.64,0,.96,0,.64-.02,1.28.01,1.92,0v-.96c1.31-.1,2.68-.5,3.9.06.39.18.67.57,1.13.79.31.15.81.06,1.2.24,1.12.52,2.76,3.63,2.89,4.91ZM205.06,267.15c-1.92.18-2.68.91-2.88,2.88-.37.1-.92-.33-.96.35-.07,1-.07,2.37,0,3.37.05.68.59.25.96.35,0,.32,0,.64,0,.96h.96s0,.96,0,.96c.32,0,.64,0,.96,0,.1.37-.33.91.35.96,1.18.08,2.4-.07,3.59,0,.31-.05.05-.71.14-.96.34-1,1.73-1.1,1.92-2.88.37-.1.91.33.96-.35.05-.73.05-1.69,0-2.41-.05-.68-.59-.25-.96-.35-.18-1.7-1.2-2.73-2.88-2.88l-.14-1.2c-.54.02-1.09-.05-1.63.04l-.39,1.17Z"/><path class="n" d="M222.09,205.04c.13-1.37.92-1.58.97-2.87h.95s0-.97,0-.97c1.27.33,2.03-.93,3.05-1.14.61-.13,3.45-.17,3.98-.01s.57.84.89,1.03c.61.36,1.22-.03,2.04.83.21.22,1.97,3.36,2.07,3.69.37,1.21-.02,5.04-.66,6.14-.26.46-.86.74-1.12,1.28-.16.34-.14,1.04-.21,1.11-.1.09-.64,0-.92.15-.96.56-.33.72-1.93.83-1.26.09-2.8.04-4.08,0-1.54-.05-2.22.18-3.48-.96-1.03-.93-1.53-2.36-2.04-3.6.55-.17.47-.62.49-1.07.08-1.44-.15-3.04-.01-4.45ZM227.12,203.12c-.17.49-1.67,1.74-2.16,2.16-.46.39-.85.05-.97,1.07s-.32,3.31.97,3.49c0,1.84.62,2.06,2.16,2.16v1.2c.95-.03,1.92.04,2.88,0,.4-.02.8.02,1.2,0,.08-.08-.07-.93,0-1.2.2-.82,1.74-1.13,1.92-2.88.37-.1.91.33.96-.35.05-.73.05-1.69,0-2.41-.05-.68-.59-.25-.96-.35-.19-1.81-1.4-2.75-3.12-2.88-.1-.37.33-.91-.35-.96-.79-.05-1.6.05-2.39,0-.31.05-.05.71-.14.96Z"/><path class="g" d="M153.26,201.2c.17.6,1.53,1.26,1.89,1.83.51.81.74,2.32,1.27,3.28.68,1.22,1.51,1.32,1.64,2.8.03.32-.02.64,0,.96h2.16s0-8.87,0-8.87h1.92c.75,4.55-.28,9.27-.03,13.88-1.14.39-3.29.14-4.17-.69s-.6-1.64-.96-2.39c-.27-.56-1.18-.8-.83-1.93l-.93-.02c.04-.86-.62-1.22-.93-1.83-.43-.84-.39-2.14-1.61-2.47-.5-.05-.31.03-.36.36-.42,3.03-.14,5.97,0,9-.71-.03-1.45.04-2.16,0v-13.91s3.12,0,3.12,0Z"/><path class="n" d="M146.06,264.03v.96c.71.04,1.45-.06,2.16,0,1.12.1,2.04.56,2.61,1.59.44.8.56,1.36,1.08,2.26.75,1.3.34,5.22-.32,6.59-.37.77-1.05,1.04-1.32,1.56-.15.29-.07.83-.16.92-.1.1-.73-.03-1.08.24-.83.66.58.92-1.77.99-1.35.04-2.73.01-4.08,0-.56,0-1.12.02-1.68,0v-1.2c-.08-.08-1.12.06-1.44,0-1.23-.24-1.68-2.2-2.16-3.12,1.06-1.82.13-3.81.24-5.76.09-1.6.91-1.63.97-3.11h.95s0-.97,0-.97c.48.18,1.16-.23,1.44-.24.78-.01,1.75.45,2.64.24v-.96c.63-.03,1.29-.01,1.92,0ZM143.18,267.15c-.5.12-1.7,1.7-2.16,2.16-.11.11-.51.13-.65.3-.6.72-.18,2.67-.32,3.62l.97.4c-.09,1.56.74,2.29,2.16,2.4.1.37-.33.92.35.96.58.04,1.64.09,2.17,0s.52-.43.59-.48c1.48-.79,2.68-1.56,2.88-3.36.37-.1.91.33.96-.35.05-.73.05-1.69,0-2.41-.05-.68-.59-.25-.96-.35-.21-1.91-1.32-2.76-3.12-2.88l-.14-1.2h-2.35s-.39,1.2-.39,1.2Z"/><path class="g" d="M220.17,264.99c.92.22.9,1.75,1.24,2.48.85,1.88,2.31,1.79,2.6,4.47.04.39-.03.81,0,1.2.4.03.81-.04,1.2,0,.16.01.45.32.72.24.47-.35.17-7.18.24-8.39h1.92v14.15c-.44.03-2.77.09-2.87-.01-.05-.05.02-.64-.14-.93-.35-.68-1.45-.91-1.07-2.17h-.95c-.39-2.37-2.82-3.81-3.25-6.24-.55-.18-.34.53-.36.84-.15,2.84.15,5.69-.24,8.52-.71-.03-1.45.04-2.16,0v-14.15c.82,0,2.46-.15,3.12,0Z"/><path class="g" d="M126.39,264.99c.31,2.23.74,1.54,1.54,2.89.35.59,1.16,2.63,1.64,3.05s.51-.57.65,1.01c.03.39-.03.81,0,1.2h.96s0,.96,0,.96h1.2c0-3.04,0-6.08,0-9.11h1.68s0,14.15,0,14.15c-4.81.45-3.04-1.21-4.83-3.93-.42-.64-1.56-1.07-1.9-1.69-.33-.59-.13-1.08-.35-1.57-.12-.27-.57-.44-.72-.72-.32-.63.31-1.42-.84-1.2,0-.32,0-.64,0-.96h-1.2s0,10.07,0,10.07c-.71.03-1.44-.02-2.16,0,.2-4.65-.27-9.53,0-14.15h4.32Z"/><path class="g" d="M109.61,264.75c.3.37.42-.42.48,1.2.01.4-.01.8,0,1.2h1.44c.11,1.91.74,1.49,1.64,2.8.57.82,1.13,2.18,1.28,3.17l.67.03v.96s1.2,0,1.2,0v-9.11h1.92s0,14.15,0,14.15c-.77.03-3.01.15-3.5-.22s-.44-1.4-.71-1.92-1.1-.95-1.41-1.46-.71-2.17-1.33-2.39l.19-.16.05-1.04h-1.44c0-.31-.03-.66,0-.96.02-.14.44-.56.24-.96h-.96s0-.96,0-.96h-1.2s0,10.07,0,10.07c-.54.03-1.14.03-1.68,0v-14.15s3.12-.24,3.12-.24Z"/><path class="g" d="M246.79,200.96c.2,0,.81.37,1.19.25v.95s1.21,0,1.21,0c.01.64-.02,1.28,0,1.92s.05,1.33,0,1.92c-.16,1.8-.51,1.97-2.16,2.16-.31.04-.65-.03-.96,0v1.78s.96.14.96.14c.12.38.8.67.96,1.92.05.39-.04.81,0,1.2h1.2c.08.49.54,1.45.01,1.81l-3.11.08c-.21-1.36-1.23-2.38-1.83-3.57-.72-1.43-.09-2.2-2.28-2.4-.32-.03-.64.02-.96,0v6c-.63.04-1.28-.03-1.92,0-.02-2.76.02-5.52.01-8.28,0-1.96-.13-3.56,0-5.63,1.88-.25,3.81.39,5.65.25.78-.06,1.47-.48,2.03-.49ZM241.99,203.12c-.32,0-.64,0-.96,0v3.94c.04.27.69.12.96.14.98.06,1.99-.05,2.98,0l.14-1.2c.32-.02.64.02.96,0,.19-1.69-.11-2.68-1.92-2.88.34-1.57-1.04-.8-2.02-.96-.27.04-.12.69-.14.96Z"/><path class="n" d="M175.08,264.99c.57,1.99,1.41,4.12,2.28,5.99.4.85,1.48,2.09,1.68,2.87.18.71-.01,1.42.16,2,.18.62,1.41,1.25,1.38,2.71-.02.83-2.08.72-2.63.46-.77-.37-.57-1.5-.84-2.04-.2-.38-.97-.54-1.08-.96-.07-.25.05-.67,0-.96h-4.66c-.32.05-.05.72-.14.96-.02.06-.69.47-.92.88-.38.64-.48,1.52-.79,2.21h-2.45s-.4-.55-.4-.55c.36-1.87,1.46-3.46,2.1-5.11.5-1.28.73-3.43,1.31-4.45.31-.55.78-.58,1.1-1.06.34-.52.86-2.27,1.01-2.95h2.88ZM172.2,271.94c-1.6-.37-.79,1.19-.96,2.16h3.84c0-.32,0-.64,0-.96,0-1.59-.57-1.27-.85-2.14-.22-.69.14-2.12-.47-2.41-.4-.19-.8,1.69-1.2,1.92-.22.46-.32.93-.36,1.44Z"/><path class="n" d="M198.1,201.2c1.57.16,1.79.38,1.92,1.92.07.85.06,2.03,0,2.88-.16,2.33-.7,1.38-1.55,2.65-.91,1.35,0,1.34.4,2.22.32.7.4,1.52.9,2.15s1.74.86,1.45,2.1c-1.36-.14-2.43.67-3.61-.34-.77-.66-1.05-2.5-1.53-3.51-.35-.74-1.14-1.16-1.12-2.12-.55-.04-1.66-.23-1.86.37l-.03,5.6c-.63-.03-1.29.04-1.92,0v-13.91c2.23.17,4.76-.23,6.96,0ZM193.07,203.12c-.05.9-.04,1.97,0,2.88.02.4-.02.8,0,1.2h2.98s.14-1.2.14-1.2c.32,0,.64.02.96,0,.27-.02.92.13.96-.14v-1.78s-.96,0-.96,0c-.02-.32.02-.64,0-.96-.32-.02-.64.02-.96,0-.1-.37.33-.91-.35-.96-.87-.06-1.76.05-2.63,0-.27.04-.12.69-.14.96Z"/><path class="c" d="M130.23,200v1.2c.63.04,1.29-.06,1.92,0,1.4.12,1.95.41,2.16,1.92-.32.02-.64-.02-.96,0-.71.04-1.44-.04-2.16,0-.24.01-.48-.01-.72,0,.17-1.29-1.26-1.05-2.17-.85l-.22.85c-1.37-.02-2.69,1.61-2.88,2.88-.37.1-.91-.33-.96.35-.05.73-.05,1.69,0,2.41.05.68.59.25.96.35.29,2.08,1.66,2.11,2.4,3.12.05.07-.06.51.11.72.26.34,1.69.31,2.18.25,1.01-.13.67-.49,1.06-.97.82-1,1.23-1.73,2.63-.83,1.06.69.69,1.66.73,2.75-1.18-.49-1.59.89-1.86.96s-.7-.02-1.02,0c-1.27.07-3.07.11-4.32,0-.99-.09-3.28-.68-2.88-1.92h-.96c.03-.39-.04-.81,0-1.2.05-.45.47-1.23.24-1.92h-1.44c-.03-1.07-.21-4.83.31-5.45.15-.18.56-.2.76-.55.31-.55.26-1.3.84-1.97.48-.55,1.42-.96,2.15-.91v-1.19c1.36.03,2.73-.03,4.09,0Z"/><path class="g" d="M157.09,264.99c-.01.32.01.64,0,.96-.03.72.02,1.44,0,2.16h.96c0,.32,0,.64,0,.96.02.64-.01,1.28,0,1.92h1.2c0,.32,0,.64,0,.96.02.72-.01,1.44,0,2.16h1.92c0-.32,0-.64,0-.96,0-.4-.01-.8,0-1.2h.96c.05-.62-.07-1.31,0-1.92.18-1.58.64-3.13,1.33-4.55.13-.26.57-.45.58-.48h2.16c0,.32,0,.64,0,.96,0,.4.01.8,0,1.2h-.96c-.04.63.06,1.29,0,1.92-.13,1.46-.73,1.21-.91,1.85-.15.52,0,1.14-.16,1.76-.15.58-.75,1.11-.97,1.67-.37.97-1.11,4.49-1.96,4.75-.47.14-1.23.05-1.75.05-.08-.8-.15-1.84-1.2-1.68.03-1.17-.95-1.58-1.14-2.33-.7-2.73-.96-4.26-2.1-7.01-.34-.83-.93-1.03-.84-2.16.01-.14.37-.59.26-.94l2.62-.02Z"/><path class="d" d="M97.37,201.2h1.92s0,13.91,0,13.91c-.62.03-1.3.03-1.92,0-.05-2.02.17-4.05-.24-6-.06-.27.16-.91-.14-.96-1.81.1-3.7-.12-5.5,0-.68.05-.25.59-.35.96-.32,0-.64,0-.96,0v6c-.64-.03-1.28.02-1.92,0,.12-4.54-.16-9.13,0-13.67h1.92s0,4.56,0,4.56c.4.01.8-.02,1.2,0,1.51.07,3.29.07,4.8,0,.4-.02.8.02,1.2,0,0-1.6,0-3.2,0-4.8Z"/><path class="t" d="M131.91,110.55c-.07.04-.16.39-.34.49-.86.49-3.41.16-4.59.22-14.53.69-30.11.49-44.72.25l.39-1.45h47.23s2.03.49,2.03.49Z"/><path class="m" d="M275.33,172.66c.23-3.93.04-8.38,0-12.36-.14-16.72-1.34-34.73-.5-51.32.06-1.19.17-2.95.73-3.95.07.22.72.7.49,1.31l-.02,65.47-.71.84Z"/><path class="t" d="M131.67,176.5c-.08.16.17.65-.13.73-16.66-.33-33.34.7-49.99.23v-1.44c15.71.9,32.78-1.2,48.34,0,.66.05,1.21.18,1.79.49Z"/><path class="n" d="M187.07,201.2c.03.62.01,1.27-.02,1.89-.2.23-5.09-.03-5.97.02-.27.02-.92-.13-.96.14v2.74c.32.02.65-.02.96,0,.02.4-.02.8,0,1.2h5.04s0,.96,0,.96h-6c-.02.32.02.64,0,.96-.06.95.04,1.93,0,2.88.32.02.64-.02.96,0,.02.4-.02.8,0,1.2h6v1.92c-2.41.46-6.43.41-8.87,0v-13.91h8.87Z"/><path class="h" d="M60.68,225.66c.13.74-.37.44-.83.48-1.94.14-3.22,0-5.03,0-2.12-.02-4.25.03-6.37,0v27.82c3.67.07,7.36-.09,11.03,0v1.2c-.17.02-.47.22-.83.24-3.82.2-7.59-.42-11.4-.24v-29.98l13.18.13c.14.04.21.35.25.35Z"/><path class="l" d="M265.02,170.02l-.96-.6c.05-20.07-.07-40.14.01-60.2,0-.49-.22-1.05-.19-1.4.06-.55.62-.79.65-.87.89,1.32.41,3.54.47,5.17.76,19.22-.46,38.62,0,57.9Z"/><path class="c" d="M146.3,201.2c0,.35-.07,1.85-.39,1.93-1.86.04-3.75-.1-5.61-.01-.4.02-.8-.02-1.2,0v2.88c.32.02.64-.02.96,0,0,.4,0,.8,0,1.2l5.04.24v.72s-5.04,0-5.04,0c-.02.32.02.64,0,.96-.32.02-.64-.02-.96,0v2.74c.04.27.69.12.96.14.02.4-.02.8,0,1.2h6s0,1.92,0,1.92c-3.08.38-5.58.15-8.63,0v-13.91s8.87,0,8.87,0Z"/><path class="g" d="M104.33,201.2c2.64,0,5.28,0,7.92,0v1.92c-2.05.33-3.68-.1-5.76,0-.06.94.08,1.95,0,2.88-.02.19-.46.74-.24,1.2h6v.96h-6c0,.32,0,.64,0,.96-.03,1.06.24,2,.24,2.88,0,.11-.47.78-.24,1.2h6.96c-.06.63.04,1.29,0,1.92-3.03.14-5.85.47-8.88,0v-13.91Z"/><path class="t" d="M218.01,176.02v1.2c-11.44.59-23.33.3-34.78,0v-1.2c11.53.23,23.29-.42,34.78,0Z"/><path class="k" d="M130.23,166.19c-9.83-.26-20.01-.09-29.87-.01-5.19.04-12.24.89-17.27.26-.88-.11-.88-.34-.83-1.21,15.78.28,31.59-.21,47.37,0l.6.96Z"/><path class="j" d="M130.23,100.24c-15.55.44-32.4.3-47.97,0l.64-.92c15.57-.09,31.15-.01,46.73-.04l.6.96Z"/><path class="n" d="M175.08,201.2v1.92c-.95.06-1.93-.06-2.88,0-.32.02-.64-.02-.96,0v11.99c-.71.01-1.44.01-2.16,0v-11.99c-.32-.02-.64.02-.96,0-1.35-.08-2.73.06-4.08,0,.02-.64-.03-1.28,0-1.92h11.03Z"/><path class="u" d="M153.26,226.14c-1.98-.12-4.01.09-6,0v27.82h3.84v1.2c-1.66.1-3.37-.07-5.04,0v-29.98c2.06.25,4.88-.34,6.83,0,.63.11.75.44.36.96Z"/><path class="g" d="M180.12,267.15l.24-2.16h9.83v2.16c-1.03.06-2.09-.06-3.12,0-.32.02-.64-.02-.96,0v11.99c-.64.01-1.28.01-1.92,0v-11.99c-.32-.02-.64.02-.96,0-1.03-.06-2.09.06-3.12,0Z"/><path class="i" d="M216.09,225.18v.96c-3.67-.06-7.36.04-11.03,0v27.82h4.08v1.2c-1.66.1-3.37-.07-5.04,0v-29.98c3.99.07,8-.09,11.99,0Z"/><path class="l" d="M180.12,99.28c12.17-.08,24.36.07,36.54-.01l.4,1.21c-12.29.08-24.65.2-36.93,0v-1.2Z"/><path class="g" d="M86.1,201.2c.03.64-.02,1.28,0,1.92-1.19.04-2.41-.06-3.6,0-.4.02-.8-.02-1.2,0v11.99c-.62.03-1.3.03-1.92,0v-11.99c-.4-.01-.8.02-1.2,0-.87-.04-1.76.03-2.64,0v-1.92h10.55Z"/><path class="n" d="M219.21,201.2v1.92c-2.08.4-3.86-.09-6,0-.3.01-1.16-.13-1.2.14v2.74c.4.01.8-.02,1.2,0,.02.4-.02.8,0,1.2h6c.03.63-.02,1.28,0,1.92-1.99.06-4.01-.09-6,0-.4.02-.8-.02-1.2,0v6c-.31.02-.64,0-.96,0v-13.91h8.15Z"/><path class="p" d="M79.15,225.18c.4.02.8-.02,1.2,0v29.84c-.04.26-.9.13-1.2.14v-29.98Z"/><path class="x" d="M115.12,273.14v-9.35s4.3.25,4.3.25v15.1c-.38.01-.79-.02-1.19,0v-14.15s-1.92,0-1.92,0v9.11h-1.2s0-.96,0-.96Z"/><path class="d" d="M193.07,264.99h2.16s0,14.15,0,14.15c-.71.04-1.45-.03-2.16,0,.21-4.65-.28-9.53,0-14.15Z"/><path class="x" d="M137.43,215.11c-.4-.02-.8.02-1.2,0v-15.11s10.08,0,10.08,0c0,.4,0,.8,0,1.2h-8.88s0,13.91,0,13.91Z"/><path class="g" d="M102.41,264.99c.29,4.72-.68,9.46,0,14.15-.71-.03-1.45.04-2.16,0v-14.15h2.16Z"/><path class="i" d="M140.3,250.12c.1,1.71-.22,3.34-.24,5.04-6.34-.28-12.64.58-18.95,0v-1.2h17.99s0-3.84,0-3.84h1.2Z"/><path class="e" d="M121.12,225.18v29.98c-.32-.03-.64.02-.96,0v-29.84c.04-.27.69-.12.96-.14Z"/><path class="o" d="M179.16,225.18v29.98c-.32-.03-.64.02-.96,0v-29.84c.04-.27.68-.12.96-.14Z"/><path class="i" d="M198.1,250.12c.1,1.66-.07,3.37,0,5.04-6.34-.28-12.64.58-18.95,0v-1.2h17.99s0-3.84,0-3.84h.96Z"/><path class="k" d="M132.39,264.03c1.03-.05,2.08.03,3.12,0v15.11c-.47.03-.97-.04-1.44,0v-14.15s-1.68,0-1.68,0v-.96Z"/><path class="j" d="M191.15,215.11c-.32-.02-.64.02-.96,0,.48-4.94-1.12-10.09.52-14.83l7.26-.28.14,1.2c-2.19-.23-4.72.17-6.96,0v13.91Z"/><path class="q" d="M109.61,264.75l-3.12.24v14.15c-.4-.02-.8.02-1.2,0v-15.1c1.14-.12,3.15-.66,4.08.12.21.18.18.52.24.59Z"/><path class="o" d="M151.1,253.96c0-6.95,0-13.91,0-20.86l.93.03c.07.47.27.93.27,1.41,0,.64-.24,1.18-.25,1.79-.12,6.27.11,12.56.01,18.84-.32.02-.64-.02-.96,0v-1.2Z"/><path class="i" d="M197.15,225.18v.96h-17.99v-.96c5.66-.42,12.35-.52,17.99,0Z"/><path class="f" d="M97.37,200c1.03-.05,2.09.03,3.12,0v15.11c-.4.02-.8-.02-1.2,0v-13.91s-1.92,0-1.92,0v-1.2Z"/><path class="h" d="M121.12,225.18c2.84-.18,5.26,0,8.02,0,3.4.02,6.81-.04,10.2,0,.1.09-.22.73-.24.96h-17.99v-.96Z"/><path class="j" d="M150.14,215.11c-.32-.02-.64.02-.96,0v-15.11s4.08,0,4.08,0c.08.09-.08.93,0,1.2h-3.12s0,13.91,0,13.91Z"/><path class="i" d="M104.33,201.2v13.91c-.37-.06-.82.04-1.2,0,.16-4.62-.21-9.3,0-13.91h1.2Z"/><path class="j" d="M193.07,264.99c.02-.32-.02-.64,0-.96h3.12s0,15.11,0,15.11c-.32.02-.64-.02-.96,0v-14.15s-2.16,0-2.16,0Z"/><path class="f" d="M209.14,253.96c0-3.99,0-8,0-11.99h4.08c.03.4-.04.81,0,1.2-.69.13-2.84-.35-3.08.39l-.03,11.6c-.32.02-.64-.02-.96,0v-1.2Z"/><path class="j" d="M180.12,267.15c-.32-.02-.64.02-.96,0v-3.12h11.99v3.12c-.32.02-.64-.02-.96,0v-2.16h-9.83l-.24,2.16Z"/><path class="o" d="M139.34,229.98c0,.4,0,.8,0,1.2h-13.19c.02-.4-.02-.8,0-1.2h13.19Z"/><path class="o" d="M197.15,225.18c.32.03.64-.02.96,0v4.66c-.04.27-.69.12-.96.14-.02.4.02.8,0,1.2h-12.95c.02-.4-.02-.8,0-1.2,4.26-.18,8.72.25,12.95,0,.06-1.27,0-2.57,0-3.84v-.96Z"/><path class="o" d="M274.85,241.49c.85,4.5-.05,9.09.24,13.67-.32.02-.64-.02-.96,0v-1.2c0-1.02-.24-2.24-.24-3v-7.91c0-1.21.66-1.23.96-1.56Z"/><path class="u" d="M181.08,206c.65.04,5.96-.16,6,.14v2.98c-2,0-4,0-6,0h-.96c.02-.32-.02-.64,0-.96h6s0-.96,0-.96h-5.04c-.01-.4.02-.8,0-1.2Z"/><path class="j" d="M103.13,201.2c.02-.4-.02-.8,0-1.2h10.32s0,3.12,0,3.12c-.38.04-.83-.06-1.2,0v-1.92c-2.63,0-5.28,0-7.91,0h-1.2Z"/><path class="o" d="M178.2,200v15.11c-.29-.05-.65.04-.96,0v-14.97c.04-.27.69-.12.96-.14Z"/><path class="p" d="M78.19,203.12c.4.02.8-.02,1.2,0v11.99c-.4-.02-.8.02-1.2,0v-11.99Z"/><path class="f" d="M82.5,203.12v11.99c-.4.02-.8-.02-1.2,0v-11.99c.4-.01.8.02,1.2,0Z"/><path class="i" d="M217.05,264.99v14.15c-.32-.02-.64.02-.96,0,.15-4.74-.3-9.44,0-14.15h.96Z"/><path class="u" d="M140.06,206c.65.04,5.96-.16,6,.14v2.98c-1.99.09-4.02-.12-6,0,.02-.32-.02-.64,0-.96h5.04s0-.72,0-.72l-5.04-.24c0-.4,0-.8,0-1.2Z"/><path class="o" d="M126.15,249.16h14.15c.02.32-.02.64,0,.96h-1.2c-4.31,0-8.64,0-12.95,0,0-.32,0-.64,0-.96Z"/><path class="u" d="M100.25,264.99v14.15c-.32-.02-.64.02-.96,0,.2-4.65-.27-9.53,0-14.15h.96Z"/><path class="i" d="M229.04,264.99c.27,4.62-.2,9.5,0,14.15-.32.02-.64-.02-.96,0v-14.15h.96Z"/><path class="i" d="M211.06,201.2v13.91c-.32,0-.64,0-.96,0,.16-4.62-.21-9.3,0-13.91h.96Z"/><path class="o" d="M184.19,249.16h13.91c.02.32-.02.64,0,.96h-.96c-4.31,0-8.64,0-12.95,0-.02-.32.02-.64,0-.96Z"/><path class="j" d="M175.08,200v1.2h-11.03c.02-.4-.02-.8,0-1.2,3.62.16,7.43-.22,11.03,0Z"/><path class="o" d="M132.39,264.03v.96c0,3.03,0,6.08,0,9.11h-1.2s0-.96,0-.96h-.96c-.02-.39.04-.8,0-1.2.37-.1.92.33.96-.35.17-2.46-.13-5.09,0-7.56.4-.01.8.02,1.2,0Z"/><path class="v" d="M291.4,76.74c-.03.22.24.59.24.72,0,.17-.19.87-.27.92l-1.41.03v.96s-.96,0-.96,0v.96c-1.36-.43-1.36.79-1.92,1.08-.68.35-1.16-.35-.95,1.08-.3.04-.69-.06-.96,0v-2.4c1.63-.13.58-.27,1.11-.74.59-.53,2.59-1.13,2.69-1.23.09-.09-.02-.46.09-.6.43-.5,1.76-.69,2.34-.79Z"/><path class="o" d="M244.15,241.97h6s0,7.2,0,7.2c-.3.04-.68-.06-.96,0v-6s-5.04,0-5.04,0c-.01-.4.02-.8,0-1.2Z"/><path class="j" d="M75.55,200c3.51-.12,7.05.09,10.55,0,.01.4-.02.8,0,1.2h-10.55v-1.2Z"/><path class="k" d="M46.53,133.09c-.09,3.1.22,6.44.01,9.49-.03.45.06.9-.49,1.07-.04-.05-.37,0-.48-.12-.32-.36-.39-8.52-.25-9.6.11-.88.34-.88,1.21-.83Z"/><path class="p" d="M108.17,279.14v-10.07s1.2,0,1.2,0v.96s.96,0,.96,0c.19.4-.23.82-.24.96-.9-.27-.9.71-.96,1.32-.1,1.04.53,6.55.24,6.83-.4.02-.8-.02-1.2,0Z"/><path class="f" d="M124.24,279.14v-10.07s1.2,0,1.2,0c0,.32,0,.64,0,.96.06,3.03-.04,6.08,0,9.11-.4.01-.8-.02-1.2,0Z"/><path class="m" d="M57.56,134.05c-.25,3.13-.28,5.99,0,9.11h-1.44s-.01-8.73-.01-8.73l1.45-.38Z"/><path class="j" d="M253.03,133.09c.38.1.91-.34.96.36.24,3.46.24,6.14,0,9.6-.05.7-.58.25-.96.36.11-3.31.12-7.01,0-10.31Z"/><path class="i" d="M196.19,237.17v.96h-11.99c-.02-.32.02-.64,0-.96,3.94.18,8.08-.24,11.99,0Z"/><path class="k" d="M187.07,267.15v11.99c-.32,0-.64,0-.96,0v-11.99c.32-.02.64.02.96,0Z"/><path class="o" d="M172.2,203.12v11.99c-.32,0-.64,0-.96,0v-11.99c.32-.02.64.02.96,0Z"/><path class="j" d="M168.13,203.12c.32.02.64-.02.96,0v11.99c-.32,0-.64,0-.96,0v-11.99Z"/><path class="o" d="M183.23,267.15c.32.02.64-.02.96,0v11.99c-.32,0-.64,0-.96,0v-11.99Z"/><path class="i" d="M138.15,237.17v.96h-11.99c-.02-.32.02-.64,0-.96,3.98.13,8.01-.18,11.99,0Z"/><path class="j" d="M219.21,200v1.2h-9.11c.02-.4-.02-.8,0-1.2,2.99.14,6.14-.18,9.12,0Z"/><path class="j" d="M178.2,200c2.9-.17,5.96.13,8.88,0,.02.4-.02.8,0,1.2h-8.87v-1.2Z"/><path class="j" d="M244.15,238.13c.02-.32-.02-.64,0-.96h10.89c.27.04.12.69.14.96h-11.03Z"/><path class="h" d="M88.26,201.44c.02-.48-.01-.96,0-1.44h3.12s0,6,0,6c-.4-.02-.8.02-1.2,0v-4.56s-1.92,0-1.92,0Z"/><path class="i" d="M292.12,97.12l-.14,1.2c-2.76-.02-5.32.16-8.03-.36-.24-.05-.42-.35-.47-.36.17-.55.62-.47,1.07-.49,2.45-.14,5.14.22,7.57.01Z"/><path class="u" d="M160.21,201.2v8.87s-2.16,0-2.16,0c-.02-.32.03-.64,0-.96.39.02,1,.11,1.17-.39.37-1.09-.04-5.89.03-7.52h.96Z"/><path class="k" d="M246.79,200.96c-.56.01-1.25.43-2.03.49-1.83.15-3.77-.49-5.65-.25.02-.4-.02-.8,0-1.2,1.95.26,4.75-.34,6.59,0,.54.1.83.52,1.09.95Z"/><path class="j" d="M106.49,211.99h6.96c.22.46-.22,1.01-.24,1.2h-6.96c-.23-.41.24-1.09.24-1.2Z"/><path class="i" d="M224.01,253l1.2.14v2.02s-5.86,0-5.86,0l-.14-1.2c1.41.22,3.32-.16,4.8,0,0-.32.01-.64,0-.96Z"/><path class="u" d="M283.01,227.82c.09-.49-.06-1.16,0-1.68h-5.04c.1-.37-.33-.91.35-.96,1.12-.09,4.57-.26,5.49.04,1.02.33,0,2.39-.81,2.6Z"/><path class="h" d="M91.14,209.11c.08,0,.16,0,.24,0l-.04,5.84c-.28.85-1.01.16-1.16.16v-6c.32,0,.64,0,.96,0Z"/><path class="u" d="M265.5,225.9l-5.52.24c.02.4-.03.8,0,1.2l-.85-.22-.11-1.93h3.72c.07,0,.33-.23.68-.23,1.03,0,1.44.3,2.07.95Z"/><path class="o" d="M97.13,209.11c.41,1.94.19,3.97.24,6-.4-.02-.8.02-1.2,0v-6h.96Z"/><path class="k" d="M181.08,209.11c.03.95-.04,1.92,0,2.88,1.98.12,4.01-.12,6,0v1.2h-6c-.01-.4.02-.8,0-1.2-.32-.02-.64.02-.96,0,.04-.95-.06-1.93,0-2.88h.96Z"/><path class="j" d="M146.06,211.99v1.2h-6c-.01-.4.02-.8,0-1.2,1.98.12,4.01-.11,6,0Z"/><path class="i" d="M213.21,209.11v6c-.4.02-.8-.02-1.2,0v-6c.4-.01.8.02,1.2,0Z"/><path class="j" d="M213.21,206c1.99.09,4.01-.07,6,0,.01.4-.02.8,0,1.2h-6c-.01-.4.02-.8,0-1.2Z"/><path class="i" d="M171.24,253.96c-.06.37.04.82,0,1.2-1.99-.07-4.01.09-6,0v-1.2h6Z"/><path class="o" d="M97.37,200v1.2c0,1.6,0,3.2,0,4.8-.4.01-.8-.02-1.2,0v-6c.4-.01.8.02,1.2,0Z"/><path class="u" d="M112.24,206v1.2h-6c-.22-.45.22-1.01.24-1.2,1.91.06,3.85-.08,5.76,0Z"/><path class="l" d="M247.03,250.12c-.09.52.33.8-.36.95-1.58.35-3.69.35-5.27,0-.69-.15-.28-.43-.36-.95,1.3.14,4.74.17,6,0Z"/><path class="i" d="M112.24,208.15v.96c-2.05.33-3.89-.14-6,0,0-.32,0-.64,0-.96h6Z"/><path class="u" d="M79.15,253.96v1.2c-1.67.07-3.37-.05-5.04,0-.01-.4.02-.8,0-1.2h5.04Z"/><path class="i" d="M274.13,253.96v1.2c-1.66.1-3.37-.07-5.04,0-.01-.4.02-.8,0-1.2h5.04Z"/><path class="j" d="M262.14,91.37v.96c-1.67.03-3.36.02-5.04,0v-1.2c1.69-.02,3.47.22,5.04.24Z"/><path class="j" d="M138.15,269.07c-.11,1.95.82,3.93-.24,5.76-.04-.07-.4-.17-.49-.34-.38-.67-.3-4.06-.23-5.07.05-.68.59-.25.96-.35Z"/><path class="f" d="M138.15,237.17c.4.02.8-.02,1.2,0l-.03,4.76c-.49.48-1.02.04-1.17.04v-4.8Z"/><path class="i" d="M241.99,209.11v6c-.32.02-.64-.02-.96,0v-6c.32.02.64-.03.96,0Z"/><path class="i" d="M91.14,209.11c.1-.37-.33-.91.35-.96,1.8-.12,3.69.1,5.5,0,.3.05.08.69.14.96h-.96c-1.59,0-3.21-.06-4.8,0-.08,0-.16,0-.24,0Z"/><path class="f" d="M235.04,237.17c-.08,1.75-.16,4.3,0,6-.37-.1-.92.33-.96-.35-.1-1.54-.1-3.75,0-5.29.05-.68.59-.25.96-.35Z"/><path class="o" d="M157.09,264.99l-2.62.02c.12.35-.24.8-.26.94-1.52.33-.85-.93-.95-1.91.82-.1,3.77-.68,4.05.14.16.45-.23.75-.23.81Z"/><path class="l" d="M67.39,243.65c1.86.52.59,3.89.96,5.38l-1.2.14c.29-1.76.37-3.73.24-5.52Z"/><path class="f" d="M66.43,229.98c.37.1.92-.33.96.35.1,1.5-.08,3.04,0,4.55l-1.2.14c.27-1.64.28-3.51.24-5.04Z"/><path class="j" d="M222.09,205.04c-.14,1.41.1,3.01.01,4.45-.03.45.05.9-.49,1.07-.02-.04-.39-.1-.48-.59-.17-.94-.08-3.51,0-4.57.05-.68.59-.25.96-.35Z"/><path class="j" d="M246.07,223.98v1.2c-1.33-.05-2.74-.04-4.08,0v-1.2c1.35-.03,2.73-.03,4.08,0Z"/><path class="l" d="M241.04,229.98c.1-.37-.33-.91.35-.96,1.27-.09,3.06-.09,4.33,0,.68.05.25.59.35.96-1.01-.16-3.96-.11-5.04,0Z"/><path class="i" d="M166.21,226.14c.02-.32-.02-.64,0-.96h4.9c.29.04.09.69.14.96h-5.04Z"/><path class="u" d="M79.15,225.18v.96h-5.04c.02-.32-.02-.64,0-.96,1.67.06,3.37-.07,5.04,0Z"/><path class="t" d="M180.12,99.28v1.2c-1.26-.02-4.5.63-4.08-1.2,1.36-.02,2.72,0,4.08,0Z"/><path class="o" d="M131.43,215.11c-.08.54.32.77-.36.96-1.05.29-2.57.36-3.61.02-.65-.22-.29-.44-.35-.97,1.24.11,3.05.07,4.32,0Z"/><path class="f" d="M103.13,255.16c-.1.37.33.91-.35.96-1.39.09-3.03.02-4.44,0v-.96c1.59.03,3.2.02,4.8,0Z"/><path class="u" d="M171.24,276.02c.09-.24-.18-.91.14-.96h4.66c.05.3-.07.71,0,.96h-4.8Z"/><path class="j" d="M102.17,223.98v1.2c-1.27-.03-2.57-.04-3.84,0v-1.2c1.27-.02,2.57-.03,3.84,0Z"/><path class="j" d="M196.19,237.17c.32.02.64-.02.96,0v4.66c-.04.27-.69.12-.96.14v-4.8Z"/><path class="e" d="M75.55,200v3.12c-.33-.01-1.4.12-1.44-.14v-2.98c.48-.01.96.02,1.44,0Z"/><path class="o" d="M231.2,215.11c-.06.53.3.75-.35.97-.95.32-2.43.32-3.38,0-.65-.22-.29-.44-.35-.97,1.28.04,2.82.09,4.08,0Z"/><path class="o" d="M146.06,211.99c.4.02.82-.09,1.21.1l.23,3.01c-.47.04-.98-.06-1.44,0v-3.12Z"/><path class="h" d="M312.03,56.36c-1.92.41-1.03-2.76-.94-3.93.02-.2.22-.35.22-.38,1.16.85.69,2.98.72,4.32Z"/><path class="f" d="M122.08,264.99c.02-.27-.13-.92.14-.96h4.18c.03.31-.04.66,0,.96h-4.32Z"/><path class="f" d="M164.05,264.99c.08-.2-.06-.69,0-.96l3.11.02c.12,1.12.73,2.06-.95,1.9,0-.32,0-.64,0-.96h-2.16Z"/><path class="f" d="M199.06,269.07c-.09,1.29-.02,2.77,0,4.08h-.96c-.03-1.18-.08-2.56,0-3.72.05-.68.59-.25.96-.35Z"/><path class="o" d="M208.18,279.14c-.1.37.33.91-.35.96-1,.07-2.37.07-3.37,0-.68-.05-.25-.59-.35-.96,1.11.09,2.99.11,4.08,0Z"/><path class="o" d="M147.26,279.14c-.1.37.33.91-.35.96-1,.07-2.37.07-3.37,0-.68-.05-.25-.59-.35-.96,1.35.01,2.73.04,4.08,0Z"/><path class="j" d="M246.07,255.16v.96c-1.35.03-2.73.03-4.08,0v-.96c1.35.05,2.73.02,4.08,0Z"/><path class="f" d="M216.09,264.99c.02-.27-.13-.92.14-.96,1.19.07,2.4-.08,3.59,0,.68.05.25.59.35.96-.66-.15-2.3,0-3.12,0h-.96Z"/><path class="l" d="M81.54,176.02v1.44c-1.35-.04-2.63.44-3.12-1.2.95-.01,2.07-.45,3.12-.24Z"/><path class="o" d="M311.07,49.16c-.71.03-1.45-.04-2.16,0l.38-1.93c2.22-.17,1.65.34,1.78,1.93Z"/><path class="q" d="M269.1,88.49v.96c-1.04,0-2.08-.01-3.12,0l.14-1.2c.8.05,1.6-.05,2.4,0,.31.02.55.25.58.25Z"/><path class="e" d="M112.24,206c.3.01,1.16-.13,1.2.14v2.98c-.39.04-.83-.06-1.2,0v-3.12Z"/><path class="e" d="M257.1,91.13v1.2c-1.04-.01-2.08,0-3.12,0v-.96c.9-.03,2.02-.23,3.12-.24Z"/><path class="e" d="M265.98,91.37c.2,1.51-2.79.94-3.84.96v-.96c1.28.02,2.56-.03,3.84,0Z"/><path class="h" d="M169.56,98.56c.74-.72,1.71-.45,2.64-.48v1.44c-.6.03-2.23.15-2.53-.24-.16-.21-.05-.62-.11-.72Z"/><path class="j" d="M220.17,241.01v.96s-.96,0-.96,0c.02.4-.03.81,0,1.2l-1.2-.14v-2.02c.7-.05,1.48.08,2.16,0Z"/><path class="o" d="M130.95,212.23c-.4.48-.06.85-1.06.97-.49.06-1.92.09-2.18-.25-.16-.21-.06-.65-.11-.72,1.13-.42,2.22-.24,3.36,0Z"/><path class="f" d="M159.25,201.2c.01-.3-.13-1.16.14-1.2h2.74c.04.39-.06.84,0,1.2h-2.88Z"/><path class="e" d="M224.01,232.14l1.2.14v2.6l-1.2.14c.05-.86.07-2.03,0-2.88Z"/><path class="i" d="M213.21,203.12c.03.95-.04,1.92,0,2.88-.4-.02-.8.02-1.2,0v-2.74c.04-.26.9-.13,1.2-.14Z"/><path class="f" d="M200.02,203.12l1.2.14v2.6l-1.2.14c.06-.85.07-2.03,0-2.88Z"/><path class="l" d="M247.99,86.09c0,.08,0,.16,0,.24-.04.98-.06,2.14,0,3.12-.37-.1-.92.33-.96-.35-.05-.79-.05-1.86,0-2.65.05-.68.59-.25.96-.35Z"/><path class="k" d="M140.3,203.12c.03,1-.23,1.86-.24,2.88-.32-.02-.64.02-.96,0v-2.88c.4-.01.8.02,1.2,0Z"/><path class="l" d="M220.65,176.5c-.3.2-.4.77-1.14.92-.67.13-1.09-.22-1.5-.2v-1.2c.95.03,1.8-.15,2.64.48Z"/><path class="h" d="M229.04,241.97c.37.1.92-.33.96.35.05.79.28,2.56-.48,3.01-.43-1.52-.43-1.68-.48-3.36Z"/><path class="x" d="M312.03,67.39c-.01,1.04,0,2.08,0,3.12h-.96c0-1.04-.02-2.08,0-3.12h.96Z"/><path class="e" d="M213.21,270.03c.37.1.91-.33.96.35.05.73.05,1.69,0,2.41-.05.68-.59.25-.96.35.04-.94.09-2.21,0-3.12Z"/><path class="f" d="M159.25,271.94h.96s0,1.2,0,1.2h.96c0,.32,0,.64,0,.96h-1.92c-.01-.72.02-1.44,0-2.16Z"/><path class="h" d="M229.76,234.77c.05.96.32,1.85.24,3.01-.05.68-.59.25-.96.35.03-1.13-.11-2.24.28-3.33l.44-.03Z"/><path class="u" d="M125.19,206c-.1.65-.09,2.46,0,3.12-.37-.1-.91.33-.96-.35-.05-.73-.05-1.69,0-2.41.05-.68.59-.25.96-.35Z"/><path class="e" d="M175.08,200c.32.02.64-.02.96,0v2.98c-.04.27-.69.12-.96.14v-3.12Z"/><path class="e" d="M219.21,200c.32.02.64-.02.96,0v2.98c-.04.29-.69.09-.96.14v-3.12Z"/><path class="e" d="M187.07,211.99c.32.02.64-.02.96,0v2.98c-.04.29-.69.09-.96.14v-3.12Z"/><path class="k" d="M99.29,264.99c.02-.27-.13-.92.14-.96h2.98c.02.32-.02.65,0,.96h-3.12Z"/><path class="d" d="M148.22,145.08c1.69-.38,1.35,1.98.72,2.88-.33-.81-1.16-1.38-.72-2.88Z"/><path class="k" d="M183.23,176.02v1.2c-.78-.02-1.4.22-2.16.24v-1.44c.71.03,1.44-.01,2.16,0Z"/><path class="j" d="M181.08,203.12c.03.95-.04,1.92,0,2.88-.32-.02-.64.02-.96,0v-2.74c.04-.27.69-.12.96-.14Z"/><path class="k" d="M140.06,209.11c-.05.9-.04,1.97,0,2.88-.27-.02-.92.13-.96-.14v-2.74c.32-.02.65.02.96,0Z"/><path class="h" d="M130.47,203.12c-.99.04-1.47.02-2.4,0l.22-.85c.91-.2,2.35-.44,2.17.85Z"/><path class="f" d="M172.2,264.99c.06-.27-.04-.66,0-.96h2.74c.31.05.07.7.14.96h-2.88Z"/><path class="f" d="M226.17,264.99c.02-.32-.02-.64,0-.96h2.74c.27.04.12.69.14.96h-2.88Z"/><path class="l" d="M122.08,210.07h1.44c.23.69-.19,1.46-.24,1.92h-1.2c-.01-.64.02-1.28,0-1.92Z"/><path class="e" d="M98.33,223.98v1.2c-.7.02-1.48-.06-2.16,0v-1.2c.72,0,1.44.02,2.16,0Z"/><path class="f" d="M247.99,86.09c0-.32,0-.64,0-.96h2.16c.08.08-.07.93,0,1.2h-2.16c0-.08,0-.16,0-.24Z"/><path class="q" d="M273.17,87.53v.96c-.72,0-1.44,0-2.16,0v-1.2s2.16.24,2.16.24Z"/><path class="t" d="M79.39,111.51c.14,1.4-1.22.88-2.16.96v-1.2c.73-.24,1.69.21,2.16.24Z"/><path class="f" d="M61.64,254.44c-.06.13.08.5-.01.7-.71.09-1.44-.04-2.15.02v-1.2c.72.02,1.85-.27,2.16.48Z"/><path class="q" d="M255.67,88.73c.55-.72,1.59-.44,2.4-.48v1.2c-1.79-.08-1.22-.17-2.4-.72Z"/><path class="h" d="M133.35,203.12c.4,1.73-2.56,1.73-2.16,0,.71-.04,1.44.04,2.16,0Z"/><path class="e" d="M102.17,223.98c.64.01,1.28-.01,1.92,0v1.2c-.63-.05-1.29.02-1.92,0v-1.2Z"/><path class="j" d="M250.15,90.41c.38-.03,1.26-.49,1.92-.24v1.2c-.64-.01-1.28,0-1.92,0v-.96Z"/><path class="f" d="M64.52,238.13c-.1.57.07,1.32,0,1.92-.35-.07-.83.05-1.2,0v-1.78s1.2-.14,1.2-.14Z"/><path class="u" d="M130.23,200c.64.02,1.28-.01,1.92,0v1.2c-.63-.06-1.29.04-1.92,0v-1.2Z"/><path class="e" d="M246.07,223.98c.64.01,1.28-.01,1.92,0v1.2c-.62-.05-1.29.02-1.92,0v-1.2Z"/><path class="p" d="M241.99,223.98v1.2c-.63.02-1.31-.06-1.92,0v-1.2c.64-.01,1.28.02,1.92,0Z"/><path class="k" d="M158.05,269.07h1.2c.01.64-.02,1.28,0,1.92h-1.2c-.01-.64.02-1.28,0-1.92Z"/><path class="i" d="M144.14,264.03v.96c-.88.21-1.85-.25-2.64-.24.54-.99,1.73-.68,2.64-.72Z"/><path class="h" d="M146.06,264.03c.72.01,1.44-.01,2.16,0v.96c-.71-.06-1.45.04-2.16,0v-.96Z"/><path class="o" d="M297.64,56.6c-.12.15-.11.82-.27.93-.25.15-1.02-.01-1.41.03v-1.44c.64-.09,1.15.18,1.68.48Z"/><path class="u" d="M312.03,65.23c0,.72,0,1.44,0,2.16h-.96c.01-.72-.01-1.44,0-2.16h.96Z"/><path class="f" d="M157.09,265.95h.96c.01.72-.02,1.44,0,2.16h-.96c.02-.71-.03-1.44,0-2.16Z"/><path class="e" d="M98.33,255.16v.96c-.72-.01-1.44.01-2.16,0v-.96c.69.06,1.45-.01,2.16,0Z"/><path class="x" d="M311.07,72.18c-.01.72.01,1.44,0,2.16h-.96c.01-.72-.01-1.44,0-2.16h.96Z"/><path class="x" d="M159.49,279.14c-.48,0-.96,0-1.44,0-.15-.57.23-1.2.24-1.68,1.04-.16,1.12.88,1.2,1.68Z"/><path class="e" d="M249.19,204.08h.96s0,1.78,0,1.78l-.96.14c.05-.59.02-1.31,0-1.92Z"/><path class="f" d="M204.1,264.03v.96c-.64.01-1.28-.02-1.92,0v-.96c.63-.03,1.29.05,1.92,0Z"/><path class="l" d="M247.03,208.15c.1.53-.14,1.49,0,1.92l-.96-.14v-1.78c.32-.03.65.04.96,0Z"/><path class="f" d="M162.13,270.03c-.07.61.05,1.3,0,1.92h-.96c.02-.64-.01-1.28,0-1.92h.96Z"/><path class="f" d="M216.09,225.18c.64.01,1.28-.01,1.92,0v.96c-.64-.02-1.28.01-1.92,0v-.96Z"/><path class="j" d="M269.1,91.37l.14-.96h1.78s0,.96,0,.96c-.64-.02-1.28,0-1.92,0Z"/><path class="f" d="M166.21,267.15c-.02.64.01,1.28,0,1.92h-.96c.06-.63-.04-1.29,0-1.92h.96Z"/><path class="e" d="M199.06,273.14c0,.64-.02,1.28,0,1.92h-.96c-.01-.64.02-1.28,0-1.92h.96Z"/><path class="o" d="M241.99,255.16v.96c-.64-.01-1.28.01-1.92,0v-.96c.61.06,1.29-.02,1.92,0Z"/><path class="e" d="M247.99,255.16v.96c-.64.01-1.28-.02-1.92,0v-.96c.64,0,1.28.02,1.92,0Z"/><path class="t" d="M159.25,45.56h-1.2c-.16-.57.23-1.21.24-1.68,1.34-.12.84.86.96,1.68Z"/><path class="e" d="M110.08,271.94h1.44s-.05,1.04-.05,1.04l-.19.16c-.24-.09-1.11.09-1.2,0,0-.4,0-.8,0-1.2Z"/><path class="f" d="M285.17,80.1v1.44c-.4,0-.8,0-1.2,0v-1.44c.39-.02.8.03,1.2,0Z"/><path class="f" d="M110.08,265.95h1.44c.02.4-.03.8,0,1.2h-1.44c-.01-.4.02-.8,0-1.2Z"/><path class="o" d="M140.06,277.94c.32.06,1.36-.08,1.44,0v1.2c-.48-.02-.96.02-1.44,0v-1.2Z"/><path class="x" d="M247.99,211.99h1.2c.04.38-.06.83,0,1.2h-1.2c-.04-.39.05-.81,0-1.2Z"/><path class="t" d="M273.17,176.02v1.2c-.38.04-.84-.06-1.2,0v-1.2c.39.02.8-.03,1.2,0Z"/><path class="h" d="M224.01,271.94h1.2s0,1.2,0,1.2c-.39-.04-.81.03-1.2,0-.03-.39.04-.81,0-1.2Z"/><path class="f" d="M165.25,253.96v1.2c-.4-.02-.8.02-1.2,0-.04-.39.05-.81,0-1.2h1.2Z"/><path class="d" d="M172.2,111.27l.14-1.2h44.57l.14,1.2c-14.77-.06-30.1.47-44.85,0Z"/><path class="j" d="M217.05,165.23v.96c-11.5.1-23.15.63-34.66,0-.68-.04-.25-.6-.35-.96,11.34.61,23.55-.11,35.02,0Z"/><path class="t" d="M241.99,134.05l1.17.27c.08,2.89,0,5.8.04,8.7l-1.2.14c.16-2.8.12-6.3,0-9.11Z"/><path class="c" d="M220.17,165.47c-.1.37.33.92-.35.96s-1.49.03-2.18,0c-.31,0-.55-.25-.58-.25v-.96c1.06,0,2.15.19,3.12.24Z"/><path class="x" d="M291.4,76.74c.93-.16.72-.59.72-1.44h.96s0-1.2,0-1.2l.94-.03c-.42-.61,1.85-1.5,1.94-1.4v1.68s-.96,0-.96,0v1.2s-.96,0-.96,0v.96s-.96,0-.96,0v.96s-1.44,0-1.44,0c0-.13-.27-.49-.24-.72Z"/><path class="i" d="M303.15,65.47v1.92s-1.2,0-1.2,0v.96s-.96,0-.96,0l-.02,1.18-1.89.26c-.23-1.78.12-1.16.81-1.66.23-.17.09-.54.2-.68.17-.22.45-.3.96-.96.18-.24.7-.14.86-.37.28-.39-.39-.88,1.25-.66Z"/><path class="h" d="M287.08,71.46c.04-2.71,0-5.44,0-8.15.53-.04.85-.01.96.6.15.8.15,6.15,0,6.96-.11.61-.43.63-.96.6Z"/><path class="v" d="M263.1,49.16h.96c.1-.09-.12-1.55.03-2,.14-.4.75-.39.89-.79.2-.57-.1-1.42.09-2.07.11-.39,1.08-1.28,1.14-1.98l1.43-.08c.97.82.29,14.14.51,16.28h-.96s0,.96,0,.96c-.99-.15-2.53.22-3.43-.05-.48-.14-.81-1.03-1.57-.95-.18-.19-.07-4.99.09-5.24.12-.19.84-.46.84-.6v-3.48Z"/><path class="i" d="M91.14,237.17c-.16,1.25-.07,3.47,0,4.8-1.39.35-1.07-3.17-.97-3.97.09-.72.2-.88.97-.83Z"/><path class="l" d="M102.17,250.12c-.1.37.33.91-.35.96-1,.07-2.37.07-3.37,0-.68-.05-.25-.59-.35-.96,1.29.05,2.8.07,4.08,0Z"/><path class="l" d="M98.09,229.98c-.28-1.42,2.82-1.02,3.72-.96.68.05.25.59.35.96-1.35-.03-2.73-.03-4.08,0Z"/><path class="u" d="M103.61,230.22c.45,0,1.12-.4,1.68-.24.08.08-.07.93,0,1.2-.89.03-1.82.21-1.68-.96Z"/><path class="o" d="M53.48,241.97v8.15c-.4-.03-.8.02-1.2,0,.12-2.7-.16-5.47,0-8.15h1.2Z"/><path class="o" d="M53.48,229.98v7.19h-1.2c-.14-2.37.1-4.82,0-7.2.4-.01.8.02,1.2,0Z"/><path class="i" d="M52.28,241.97c.02-.27-.13-.92.14-.96,1.89.1,3.87-.12,5.74,0,.68.05.25.59.35.96-1.67-.06-3.37,0-5.04,0h-1.2Z"/><path class="l" d="M62.12,244.13c.32.07,1.35-.09,1.44,0l-.03,3.45c-.2.6-.86.28-1.17.39l-.24-3.84Z"/><path class="i" d="M53.48,237.17c1.35,0,2.72.03,4.08,0-.1.37.33.91-.35.96-1.58.11-3.2-.09-4.78,0-.27-.04-.12-.69-.14-.96h1.2Z"/><path class="h" d="M61.16,232.14l1.2.14v2.6c-.05.31-.91.06-1.2.14-.13-.84.18-2.12,0-2.88Z"/><path class="f" d="M58.28,229.98c.72.01,1.44-.01,2.16,0,.08.08-.07.92,0,1.2h-2.16s0-1.2,0-1.2Z"/><path class="k" d="M210.1,229.98v8.15c-.32-.02-.64.02-.96,0v-8.02c.04-.27.69-.12.96-.14Z"/><path class="x" d="M216.09,237.17c-.1.37.33.91-.35.96-1.67.11-3.97.1-5.64,0v-.96c1.94-.12,4.08.17,6,0Z"/><path class="q" d="M218.01,232.14l1.2.14v3.56l-1.2.14c.16-.67.05-3,0-3.84Z"/><path class="x" d="M202.18,270.03c-.12,1.2-.03,2.83,0,4.08-.37-.1-.92.33-.96-.35-.07-1-.07-2.37,0-3.37.05-.68.59-.25.96-.35Z"/><path class="x" d="M208.18,276.02c-.09.25.17.91-.14.96-1.19-.07-2.4.08-3.59,0-.68-.05-.25-.59-.35-.96,1.35.03,2.72-.02,4.08,0Z"/><path class="l" d="M210.1,270.03c.37.1.91-.33.96.35.05.73.05,1.69,0,2.41-.05.68-.59.25-.96.35.08-.81.09-2.31,0-3.12Z"/><path class="h" d="M205.06,267.15l.39-1.17c.54-.09,1.09-.02,1.63-.04l.14,1.2c-.61-.05-1.55-.06-2.16,0Z"/><path class="o" d="M224.97,209.83c-1.29-.18-1.1-2.44-.97-3.49s.52-.67.97-1.07c.02.86.51,1.64.49,2.51-.02.68-.49,1.46-.49,2.05Z"/><path class="p" d="M230,211.99v1.2c-.95.04-1.92-.03-2.88,0v-1.2c.93.06,1.94,0,2.88,0Z"/><path class="i" d="M233.12,206c.37.1.91-.33.96.35.05.73.05,1.69,0,2.41-.05.68-.59.25-.96.35.08-.81.09-2.31,0-3.12Z"/><path class="u" d="M227.12,203.12c.09-.25-.18-.91.14-.96.79.05,1.6-.05,2.39,0,.68.05.25.59.35.96-.95-.07-1.93.05-2.88,0Z"/><path class="l" d="M231.2,211.99c-.07.28.08,1.12,0,1.2-.4.01-.8-.02-1.2,0v-1.2h1.2Z"/><path class="o" d="M141.02,273.62l-.97-.4c.14-.95-.28-2.9.32-3.62.14-.17.55-.19.65-.3.21.8.5,1.41.5,2.28,0,.92-.47,1.55-.5,2.04Z"/><path class="u" d="M143.18,267.15l.39-1.21h2.35s.14,1.21.14,1.21c-.65-.04-2.35-.12-2.88,0Z"/><path class="u" d="M149.18,270.03c.37.1.91-.33.96.35.05.73.05,1.69,0,2.41-.05.68-.59.25-.96.35.09-.8.09-2.32,0-3.12Z"/><path class="p" d="M146.3,276.5c-.08.04-.08.38-.59.48s-1.59.04-2.17,0c-.68-.05-.25-.59-.35-.96.97.08,2.58-.39,3.12.48Z"/><path class="i" d="M241.99,203.12c.02-.27-.13-.92.14-.96.98.16,2.36-.61,2.02.96-.65-.07-1.48-.01-2.16,0-.06.95,0,1.93,0,2.88v1.2c-.27-.02-.92.13-.96-.14v-3.94c.32,0,.64,0,.96,0Z"/><path class="k" d="M245.11,206l-.14,1.2c-.99-.05-1.99.05-2.98,0v-1.2c1.03-.04,2.09.06,3.12,0Z"/><path class="v" d="M175.08,273.14h-2.88c.02-.39-.03-.8,0-1.2.04-.51.14-.98.36-1.44.4-.22.79-2.11,1.2-1.92.61.29.25,1.72.47,2.41.28.88.85.56.85,2.14Z"/><path class="i" d="M172.2,271.94c-.03.4.02.8,0,1.2h2.88c0,.32,0,.64,0,.96h-3.84c.17-.97-.64-2.52.96-2.16Z"/><path class="k" d="M196.19,206l-.14,1.2h-2.98c-.01-.4.02-.8,0-1.2,1.04-.02,2.08.02,3.12,0Z"/><path class="i" d="M193.07,203.12c.02-.27-.13-.92.14-.96.87.05,1.76-.06,2.63,0,.68.05.25.59.35.96-1.03-.06-2.09.04-3.12,0Z"/><path class="f" d="M197.15,204.08h.96s0,1.78,0,1.78c-.04.27-.69.12-.96.14-.03-.64.04-1.28,0-1.92Z"/></svg>