<?xml version="1.0" encoding="UTF-8"?>
<svg id="a" xmlns="http://www.w3.org/2000/svg" version="1.1" viewBox="0 0 351.1 301.9">
  <!-- Generator: Adobe Illustrator 29.3.1, SVG Export Plug-In . SVG Version: 2.1.0 Build 151)  -->
  <defs>
    <style>
      .st0 {
        fill: #010101;
      }

      .st1 {
        fill: #393939;
      }

      .st2 {
        fill: #363636;
      }

      .st3 {
        fill: #9a9a9a;
      }

      .st4 {
        fill: #767676;
      }

      .st5 {
        fill: #373737;
      }

      .st6 {
        fill: #575757;
      }

      .st7 {
        fill: #505050;
      }

      .st8 {
        fill: #717171;
      }

      .st9 {
        fill: #6f6f6f;
      }

      .st10 {
        fill: #666;
      }

      .st11 {
        fill: #2e2e2e;
      }

      .st12 {
        fill: #383838;
      }

      .st13 {
        fill: #949494;
      }

      .st14 {
        fill: #8d8d8d;
      }

      .st15 {
        fill: #8c8c8c;
      }

      .st16 {
        fill: #202020;
      }

      .st17 {
        fill: #313131;
      }

      .st18 {
        fill: #535353;
      }

      .st19 {
        fill: #afafaf;
      }

      .st20 {
        fill: #d1d1d1;
      }

      .st21 {
        fill: #888;
      }
    </style>
  </defs>
  <polygon class="st20" points="351.1 301.7 351.1 301.9 350.9 301.9 351.1 301.7"/>
  <path class="st0" d="M158.3,43.9c0,.5-.4,1.1-.2,1.7h1.2c.9,6,.3,12.1.2,18.1,0,3.3.2,6.6-.2,9.8v14h1c.2.9-.3,1.9-.2,2.7.1.6,2,4.7,2.4,4.9.1,0,.4,0,.6,0v.9c1.4,0,2.7,1.5,3.9,1.8.6.2,2.3,0,2.6.6,0,0,0,.5.1.7.3.4,1.9.3,2.5.2,1.3,0,2.5-.2,3.8-.2-.4,1.8,2.8,1.2,4.1,1.2,12.3.2,24.6,0,36.9,0,5.3,0,9.9.5,14.8,3.1,1.7.9,3.2,2.9,5.4,2.7v.9c1.8,0,2.1,2.3,3.8,1.9v1h1v1.2h1.2v1h1v1h1v1h.9c-.1,1.4,1.1,2,1.8,3.1,2.8,4.6,5,10.5,5.1,15.8.1,3.3.1,7,0,10.3,0,2.2-.1,5.7-1,7.7-.7,1.7-1.2,3.5-1.9,5-.3.7-1.2.9-.9,2.1h-1.2c.2,1.4-.9,1.8-1.6,2.6-.6.7-1.1,1.9-1.7,2.6-.2.3-3.4,3.5-3.6,3.6-.4.2-.9.2-1.1.3s0,.5,0,.6c0,0-1.2.4-1.7.8-.7.5-1,1.5-2.3,1.5.1,1.4-.3.7-1,1.1-4,2.1-6.6,3.5-11.3,4.6-1,.2-2.4.1-3.1.6-.8-.6-1.7-.4-2.6-.5-11.5-.4-23.2.2-34.8,0-.7,0-1.4,0-2.2,0-1.7,0-5.2-.4-6.7-.8-.5-.1-.9-.8-1.5-.9s-1.1,0-1.9-.2-3.5-1.4-4.1-1.9c-.7-.5-.9-1.5-1.4-1.8-.5-.3-1.4-.2-1.9-.5-.5-.3-.6-1-1.1-1.3-.4-.2-.9-.2-1.1-.3-.4-.3.1-1.1-1.2-.8v-1h-1v-1h-1.2v-1.2h-1v-1c-1.6.3-.7-.6-1-.9,0-.1-.6,0-.8-.3-.2-.2-.2-.8-.5-1.2-.3-.4-1-.6-1.3-1.1-.4-.6-.1-1.4-.4-1.8-.1-.2-.6-.3-.8-.6-.8-1-2.2-4.3-2.6-5.6-.4-1.2-.4-3-.8-3.9.6-.9,1-3.3-.7-2.9V44.7c1.5-3.7,2.5-4.9,6.6-4.5,1.8.2,3.5,1.7,3.5,3.6h0ZM172.2,111.3c-.8,0-2.4-.1-3.1,0-.6.2-.6.7-.8.8-.3.2-1.3.3-1.9.6-2.9,1.4-5.1,4.2-6.3,7.2s-.5,6.1-.6,9.5c-.1,4.6-1.3,10.3-.2,14.8.2.8.7,1.5.9,2,.2.8,0,1.6.2,2.4.5,1.7,2.5,3.6,2.7,5.5h.9c-.2,1.3,1.1,2.2,1.9,3,2.6,2.4,6.2,5.4,9.6,6.5,1.7.5,4.9,1.5,6.5,1.6.1.4-.3.9.4,1,11.5.6,23.2.1,34.7,0,0,0,.3.2.6.2.7,0,1.5,0,2.2,0s.2-.6.4-1c2.2.1,1.5-.3,2.8-.9.6-.3,1.5-.2,2.1-.4s.5-.8.8-.9c.6-.4,2.5-.9,3.3-1.2.4-.1.4-.6.7-.8.6-.3,1.4,0,2-.4.3-.2,1.1-1.6,1.5-2.1,1.3-1.4,3.2-2.7,4.3-4.1.4-.4.4-1.1.6-1.3.2-.2.7-.2.8-.3s.1-1,.4-1.4c1.7-3.5,2.3-4.4,2.6-8.6h1.2c0-3,0-5.9,0-8.8l-1.2-.3c-.1-3.3-1.4-6.6-2.8-9.5-.4-.9-1.4-1.1-1-2.5h-.9c0-.3,0-.7-.1-.9-.1-.2-3.2-3-3.5-3.2-.4-.3-1-.3-1.2-.5-.4-.3-.1-.9-.5-1.2-.3-.2-2.3-.7-2.7-1.1-.2-.2,0-.6-.2-.7-.5-.5-5.2-2.1-6.2-2.3-1.5-.4-4.2-.8-5.8-.8v-1.2h-44.7v1.2c-.1,0-.1,0-.1,0Z"/>
  <path class="st0" d="M82.3,100.2c15.6.3,32.4.4,48,0,.7,0,1.8,0,2.5,0,.1,0,2.4,1.1,2.5,1.2s1.2,2.3,1.2,2.5c.2,1.5-.1,3.9-1.2,5-.3.3-.9.1-1.3.4-.3.2-.3.7-.6.8-.4.2-1,0-1.4.4l-2-.5h-47.2l-.4,1.4c-.9,0-1.9,0-2.9,0-.5,0-1.4-.5-2.2-.2v1.2c-1.2.1-6,1.3-7,1.9-.7.4-1.2,1.4-1.7,1.7-.4.2-1,.2-1.1.2-.1.1,0,.8-.2,1.1-.3.2-.8,0-1.3.3-.2.1-3.1,2.8-3.2,3-.3.5-.2,1.1-.3,1.3-.2.2-.7,0-.8.4-2.2,3.2-3.5,7.8-3.8,11.6l-1.5.4v8.7h1.5c.2,2.2.4,4.1,1.1,6.2.2.6,1.6,3.6,1.8,3.8.1.1.6,0,.8.3.2.3,0,.9.5,1.4.4.6,5.2,5.4,5.7,5.8.7.5,9.2,4.3,10.2,4.4,1.4.3,3.1,0,4.6.1,0,.9,0,1.1.8,1.2,5,.6,12.1-.2,17.3-.3,9.9,0,20-.2,29.9,0,2.6,0,1.9,0,4,.9.3.1.9,0,1,0,0,0,0,.6.1.9.9,1.7,1.6,2.3,1,4.6-.1.6-.6.8-.8,1.1s0,1-.2,1.2c-.2.4-1,.1-1.4.3-.3.1-.5.5-.8.6s-1.4.4-1.5.5c-.6-.3-1.1-.4-1.8-.5-15.6-1.2-32.6.9-48.3,0-1.1-.2-2.2.2-3.1.2-2.6,0-2.5-.3-4.6-1.1-2.9-1.1-5.6-1.4-8.6-2.9-.7-.4-1.1-1.1-2-1v-.9c-.7,0-2.6-.8-3-1.2-.1-.1-1-1.5-1.2-1.6-.1-.1-.8-.1-1.1-.4-2.6-2.1-4.4-4.3-5.9-6.8-.2-.4-.5-.5-.7-1-.1-.3,0-.9-.1-.9-.1-.1-.8.1-1.1-.3-.2-.2-.1-.8-.3-1.1-.4-.7-1.4-1.8-1.6-2.5-.2-.8,0-1.6-.2-2.2s-1.5-1.4-.9-2.9l-.8-.3c-.2-.9-.1-5-.5-5.4.5-.2.5-.6.5-1.1.2-3.1,0-6.4,0-9.5.2-7.6,3.4-14.1,7.8-19.7.1-.2,1.5-1.1,1.7-1.3.3-.3,0-1.2,1.3-.9v-1.2h1v-1c1.8.4,2.1-1.9,3.8-1.9v-.9c1.5.7,1.3-.4,1.9-.7.4-.3,1.1-.1,1.5-.3.3-.2.4-.8.7-1,.5-.2,1.1,0,1.4-.2.1,0,.2-.6.5-.8.4-.2,1,0,1.4-.2.3-.1.5-.6,1.1-.8,1.8-.8,3.3-.6,4.8-1,.4-.1.7-.8,1.5-.9,1.4-.2,3.9,0,5.4,0h0Z"/>
  <path class="st1" d="M308.9,49.2c.7,0,1.4,0,2.2,0,0,.9.3,2,.2,2.9,0,0-.2.2-.2.4,0,1.2-1,4.3.9,3.9,0,3,0,5.9,0,8.9h-1c0,.7,0,1.4,0,2.2,0,1,0,2.1,0,3.1s0,1.1,0,1.7h-1c0,.7,0,1.4,0,2.2,0,.6.1,1.5,0,2-.1.4-.7.3-.7.4l-1.4-.2v.7h-1v1.9h-1v1h-1v1.2h-1v1h-1v1h-1.2v1h-1v1h-1v1h-1v1.2h-1.9v1h-2.2v1h-1.9v1h-1.9v1h-4.1v1h-13v1.4c-.2,0-.7,0-1,0v-1.2h-1.2v-1h-1v-1h-1.8v1c-1.2,0-2.2,0-3.3,0-1.3,0-2.6,0-3.8,0-1.6,0-3.3-.3-5-.2-1.1,0-2.2.2-3.1.2-.6,0-1.3,0-1.9,0v-1.2c-.6-.2-1.5.2-1.9.2-.7,0-1.4,0-2.2,0,0-.3,0-.6,0-1,0-1,0-2.1,0-3.1h2.2c.2.9,1.3.8,1.9,1.2,1.7.9,2.5.7,3.7,1.2s.6.6,2.4.7c2.6.1,5.3,0,7.9,0,1,0,2.1,0,3.1,0v-1c.6,0,1.3,0,1.9,0h2.2v-1l2.1-.3c.2-1.7,1.7-.9,2.7-1.2.9-.2,2.1-1.3,2.9-1.7.6-.3,3.8-1.8,4.3-1.9.3,0,.7,0,1,0-.2-1.4.3-.7,1-1.1.6-.3.6-1.5,1.9-1.1v-1h1v-1h1.4c0,0,.3-.8.3-.9h1.4v-1h1v-1h1v-1.2h1v-1.7c0,0-2.4.8-1.9,1.4h-.9v1.2h-1c0,.8.2,1.3-.7,1.4-.6,0-1.9.3-2.3.8-.1.1,0,.5,0,.6-.1.1-2.1.7-2.7,1.2-.5.5.5.6-1.1.7-.4,0-.8,0-1.2,0v1.4c-.3,0-.7,0-1,0-.2,0-.6-.4-.9-.3v-.9s.9,0,.9,0v-1h1v-1h1.2v-1.9h1v-2.2h1c0-.9,0-1.9,0-2.9.5,0,.9,0,1-.6.1-.8.1-6.2,0-7-.1-.6-.4-.6-1-.6v-3.1c1.7-.2,4.5-1.5,6.8-1.9.6-.1.7-.6,2-.7.4,0,1.2.1,1.4,0,.2,0,.2-.8.3-.9.2-.2,1.5-.6,1.9-.8.6-.4,1.3-.9,1.9-1.2.7-.3,1.5-.3,2-.6.7-.5,1-2,2.5-1.7v-1h1c-.4-1.5,1.2-.6,1-2.2.3,0,.6,0,1,0h0ZM303.1,65.5c-1.6-.2-1,.3-1.2.7-.2.2-.7.1-.9.4-.5.7-.8.7-1,1-.1.1,0,.5-.2.7-.7.5-1-.1-.8,1.7l1.9-.3v-1.2h1v-1h1.2v-1.9h0Z"/>
  <path class="st0" d="M264.5,106.9c.4-1.2.5-3.5,1-4.4,0-.1,2-1.9,2.2-2,.8-.5,3-.5,3.9-.3.1,0,2.4,1.1,2.5,1.2.2.3-.3.9,1,.7-.2,1.1.2,1.9.5,2.9-.6,1-.7,2.8-.7,3.9-.8,16.6.4,34.6.5,51.3,0,4,.2,8.4,0,12.4,0,.9-.4,1.7-.2,2.6l-1-.2v1.2c0,.1-.8-.2-1-.2-.4,0-.8,0-1.2,0v1.2c-1.2.2-2.7.4-3.9,0-.1,0-2.2-1.9-2.3-2-1-1.2-.7-3.7-.7-5.2-.5-19.3.8-38.7,0-57.9,0-1.6.4-3.8-.5-5.2h0Z"/>
  <path class="st3" d="M262.1,41.2v1.2h2.9v-1h1v-3.1h1.2l.4-1.2c.6.6.4,1.8.6,2.5.2.4.8.4.9.8.2.5,0,1.9,0,2h2.9v1h4.9v-1.2c.1,0,1,.2,1,.2v1.9h1.3v2.2h1v1.9h1v1.9h1v1.2h1v1.9h1v1.9h1.2v2.2h1c0,.2,0,.5,0,.7h-5v1h-3.1v1h-2.9v1h-1.9v1h-2.2v1.2h-1.9v1h-1.9v1h-1.2v1h-1v1h-1v1h-1.9v1.2h-1v1h-1.2v1h-1v1h-1v1h-1v2.2h-1v1h-1c0,.9,0,1.9,0,2.9h-1.2v-1.7h-1v-1.9h-1v-3.1h-1v-11l.9-.2v-2.5c0,0,1-.5,1-.5v-1.6l.9-.4v-1.7c.1,0,1.2-.2,1.2-.2v-1.7c.1,0,1-.4,1-.4v-1.7c1.2,0,.7-1.1,1.8-1.2.3-1.3-.3-1.5,1-2.1v-1.5c0,0,.9-.2.9-.2v-1.9c.1,0,1.2-.2,1.2-.2l.2-1.7.9-.2h0ZM263.1,49.2v3.5c0,.1-.7.4-.8.6-.2.3-.3,5,0,5.2.8,0,1.1.8,1.6,1,.9.3,2.4,0,3.4,0v-1h1c-.2-2.1.5-15.5-.5-16.3h-1.4c0,.8-1,1.7-1.1,2.1-.2.7.1,1.5,0,2.1-.1.4-.8.4-.9.8-.1.5,0,1.9,0,2h-1,0Z"/>
  <path class="st15" d="M286.1,58.3c0,.6,0,1.3,0,1.9,0,1,0,2.1,0,3.1h-1v3.8h-1.2v3.1h-1v1.9h-1v1.9h-1v1.2h-1v1.9h-1v1h-1.2v1h-1v1h-1v1.2h-1.9v1h-2.2v1h-1.9v1h-1.9v1.2c1.7,0,3.4,0,5,0,0,.8-.1.9-.8,1-2.1.3-4.3-.5-6.4,0v-1h-2.9v-1h-1.9v-1h-2.2v-1h-1v-1h-1.9v-1.2h-1v-1.2c0-1,0-1.9,0-2.9h1v-1h1v-2.2h1v-1h1v-1h1v-1h1.2v-1h1v-1.2h1.9v-1h1v-1h1v-1h1.2v-1h1.9v-1h1.9v-1.2h2.2v-1h1.9v-1h2.9v-1h3.1v-1h5,0Z"/>
  <path class="st1" d="M96.2,225.2c.7,0,1.4,0,2.2,0,1.3,0,2.6,0,3.8,0,.6,0,1.3,0,1.9,0s4.5,1.6,5.1,1.9c2.7,1.6,3.7,4.4,4.8,7.2.3.8-.1,1.7,1.1,1.8v7.9h-.7c0,.1-.3,2.9-.3,2.9-1.3.3-1.5,2.1-1.7,3.2h-.9c0,1.7-1.4,1.5-1.9,2.1-.3.2-.2.7-.3.8-.2.1-.8,0-1.2.1-.3.2-.4.7-.5.8-.3.2-.9,0-1.4.2s-.4.9-.5,1.1c-.1.1-2.1,0-2.6,0-1.6,0-3.2,0-4.8,0-.7,0-1.5,0-2.2,0-1.8-.2-1.1-.5-1.9-1.1-1.4-.9-3-.6-4.6-2.2s-1.5-3.5-2.4-4.8c-.3-.4-.8-.5-1-.9,0-.2-1.1-2.8-1.1-3v-8.3h.9c0-1.1.9-1.5,1.3-2.2.4-.8.5-2.1,1-2.9.9-1.7,5.9-4.6,7.9-4.7h0ZM98.1,230c-.5,0-1.8-.1-2.1,0,0,0-.3.6-.5.8-2.1,2.2-3.9,2.9-4.3,6.4-.8,0-.9.1-1,.8,0,.8-.4,4.3,1,4,0,1,.3,2,.2,3l.7.2c0,1.5.8,1.6,1.6,2.4.7.7,2.1,2.5,2.9,2.6.5,0,1,0,1.5,0,0,.4-.3.9.3,1,1,0,2.4,0,3.4,0,.7,0,.2-.6.3-1,1.8,0,1.1-.5,1.7-.8,1.5-.7,1.9-.2,3.2-2.1.3-.5,0-1.1,1.1-1.3v-2.7s.9,0,.9,0v-6h-.7c0-1.1,0-2.3-.4-3.2-.5-1-2.4-2-2.7-2.7,0-.3,0-1.1,0-1.2-.6-.2-1.2.2-1.7.2s-.9-.2-1.4-.2c0-.4.3-.9-.3-1-.9,0-4-.5-3.7,1h0Z"/>
  <path class="st5" d="M153.3,226.1c1.6.1.6,0,1.1.9.8,1.3,1.3,2.7,2,3.9.2.3.6,0,.7.2.3.3,1,2.8,1.2,3.2.2.4,1.4.8,1.8,1.4.5.8.7,2.5,1.3,3.5.5.8,1.3,1,1.7,1.7.9,1.5.5,3.9,2.8,4.4.4,0,.6-2.3.6-2.8.4-5.4-.6-11-.2-16.4h5c1.1,5.6.9,22.1,0,27.8h-7.2c-.2-1.7-.8-1.3-1.4-2.1-.3-.5-.4-1.2-.6-1.7-.3-.6-1.1-1.1-.8-2.2-1.4.2-.7-.3-1.1-.9-.3-.6-1.5-1.7-1.9-2.5-.2-.4-.2-1-.4-1.5-.3-.7-1.3-1.3-1.6-1.8-.2-.4,0-.8-.3-1.2-.3-.6-1.2-.8-.8-1.9-1.4.2-.7-.2-1-.8-.2-.4-.6-.6-.7-1-.3-.7,0-1.8-1.1-1.9,0-.5-.2-.9-.3-1.4h-.9v20.8h-3.8v-27.8c2,0,4-.1,6,0h0Z"/>
  <path class="st5" d="M240.1,225.2c.6,0,1.3,0,1.9,0,1.3,0,2.7,0,4.1,0,.6,0,1.3,0,1.9,0,2.3.2,4.7,1,6,3,.7,1-.4,1-.9,1.6-.6.7-1.5,2.5-2.4,2.6-.7,0-1.2-.9-1.8-1.1-.5-.1-1.1,0-1.4-.1-.2-.1-.3-1-1.5-1.1-.1-.4.3-.9-.4-1-1.3,0-3.1,0-4.3,0-.7,0-.2.6-.4,1-1.6.2-1.2.8-2.2,1.5-.4.3-1.6.6-1.6.7-.1.2,0,.9-.3,1.2-.2.3-1.1.6-1.4,1-.7.8-.5,1.8-.6,2.8-.4.1-.9-.3-1,.4-.1,1.5-.1,3.8,0,5.3,0,.7.6.2,1,.4,0,.6.4,2.1.7,2.6.4.6,1,.7,1.3,1.1.2.4.2,1,.2,1.1s.9,0,1.3.3c.9.6.2,1.6,2.5,1.9,0,.5-.3.8.4.9,1.6.4,3.7.4,5.3,0,.7-.1.3-.4.4-.9.9-.1,1.4-.8,2.2-1,.3,0,.7,0,1,0v-7.2h-6c0-1.2,0-2.6,0-3.8h11c.1,2.2,0,4,0,6.1,0,2.9,0,5.9,0,8.8-1.1-.4-1.5.8-2.1.9s-1.3,0-1.8,0-.6,1-1,1.1c-.5.2-1.6,0-2.2,0s-1.3,0-1.9,0c-1.4,0-2.7,0-4.1,0-.6,0-1.3,0-1.9,0-2.9-.3-7.2-2.8-8.6-5.4-.3-.6-.2-1.2-.4-1.7-.3-.8-1-.7-1.5-2.7.8-.4.5-2.2.5-3,0-.7-.6-.2-1-.4,0-1.3,0-2.6,0-3.8.4-.1.9.3,1-.4,0-1.2-.2-2.1-.2-3,0-.6,1.4-3.7,1.8-4.3.2-.3,3.8-4,4.1-4.1s4-1.1,4.4-1.2h0Z"/>
  <path class="st5" d="M66.4,230c0,1.5,0,3.4-.2,5,0,.4,0,.7-.1,1.2-.3.9-1.4,1.2-1.6,1.9h-1.2v1.9c.4,0,.9,0,1.2,0,2,.4,2.7,1.7,2.9,3.6.1,1.8,0,3.8-.2,5.5-.2,1-.5,2.6-1.3,3.4-.5.4-1.1.4-1.6.6-.3.1-.5.6-.7.7-.5.2-1.7,0-1.9.6-.3-.8-1.4-.5-2.2-.5-3.7,0-7.4,0-11,0v-27.8c2.1,0,4.2,0,6.4,0,1.8,0,3.1.1,5,0,.5,0,1,.3.8-.5.9.2,2.2.2,3,.7.8.5,2.7,2.6,2.7,3.6h0ZM52.3,237.2c0,.3-.1.9.1,1,1.6,0,3.2.1,4.8,0,.7,0,.2-.6.3-1,.5,0,1.9.1,2.1,0,.1,0,.8-1.9,1.5-2.1.3,0,1.2.2,1.2-.1v-2.6h-1.2c0-.5-.6-.8-.7-1.1,0-.3,0-1.1,0-1.2-.7,0-1.4,0-2.2,0-1.6,0-3.2,0-4.8,0-.4,0-.8,0-1.2,0,.1,2.4-.1,4.8,0,7.2h0ZM52.3,242c-.2,2.7.1,5.5,0,8.1.4,0,.8,0,1.2,0,.7,0,1.7.2,2.3.2,1.1,0,2.5-.5,3.7-.2v-1c.5,0,1.2.1,1.8,0,.5-.1.7-1,1.1-1.2.3-.1,1,.2,1.2-.4v-3.4c0,0-1.1,0-1.4,0-.5-.1-1.2-1.8-1.7-2-.5-.2-1.3,0-1.9-.1,0-.4.3-.9-.3-1-1.9-.1-3.9.1-5.7,0-.3,0-.1.7-.1,1h0Z"/>
  <path class="st5" d="M216.1,226.1c.6,0,1.3,0,1.9,0,2.1,0,2.1,0,3.7,1.4s2.1,2.5,2.3,4.6c0,.9,0,2,0,2.9-.1,2.4-.9,5.7-3.8,6-.7,0-1.5,0-2.2,0v2h1.2c0,.6,1,2.9,1.2,3.4.4.7,1.1.9,1.5,1.4.5.8.8,2.2,1.1,3.1s.9.8.9,2.1c0,.3,0,.6,0,1-1.5-.2-3.4.2-4.8,0-1.2-.2-.9-1.2-1.3-1.9-1.2-2.1-4.5-6.7-4.6-8.9,0-.4,0-.8,0-1.2h-4.1v12h-4.1v-27.8c3.7,0,7.4,0,11,0h0ZM210.1,230c-.3,0-.9-.1-1,.1v8c.3,0,.6,0,1,0,1.7.1,4,.1,5.6,0,.7,0,.2-.6.4-1,.7,0,1.7-.4,1.9-1.2h1.2v-3.7h-1.2c0-.4,0-1,0-1.1,0,0-.6,0-.9-.1-.4-.2-.6-.8-1.1-1-1.6-.6-4.1-.1-5.8,0h0Z"/>
  <path class="st2" d="M139.1,226.1c-.1,1.3.2,2.5.2,3.8h-13.2c0,.4,0,.8,0,1.2,0,1.9-.1,4.2,0,6,0,.3,0,.6,0,1h12v3.8c-3.9,0-7.8,0-11.8,0,0,2.4-.3,4.8-.2,7.2v1h13v3.8h-18v-27.8h18,0Z"/>
  <path class="st2" d="M197.1,226.1c0,1.3,0,2.6,0,3.8-4.2.2-8.7-.2-12.9,0,0,.4,0,.8,0,1.2,0,1.9-.1,4.2,0,6,0,.3,0,.6,0,1h12v3.8c-3.9.2-8.1-.2-12,0,.1,2.4-.1,4.8,0,7.2,0,.3,0,.6,0,1h12.9v3.8h-18v-27.8h18Z"/>
  <path class="st2" d="M265.5,225.9c1,1,1.1,2,1.7,3.2.3.7,1.3.9.9,2.1h1c-.2,1,.5,1.4.8,1.9.2.4,0,.9.3,1.2.1.2,1.2,1.7,1.4,1.7,1.5,0,1.4-1.8,1.8-2.6.6-1.3,2.1-3,2.9-4.3.4-.7,1-2.8,1.7-2.9h5c0,.5,0,1.2,0,1.7-.2,1-2.2,2.9-1.9,4.3h-.9c0,.8-.5,1.9-.9,2.6-.6.8-1.3,1.1-1.7,1.7-1,1.4-1.1,3.4-2.7,5.1-.3.3-1,.4-1,1.6v7.9c0,.8.2,2,.2,3h-5c-.1-2.6.5-9.8-.1-11.8,0-.1-1.1-2.2-1.2-2.4-.4-.6-1.3-.8-1.7-1.5-.4-.7-.9-2.7-1.3-3.2-.2-.2-.6,0-.8-.3-.4-.6-.7-2-1.2-2.8-.4-.6-1.1-1-1.4-1.5s-.2-1.2-.5-1.6c-.5-.7-.8,0-.9-1.6,0-.4,0-.8,0-1.2l5.5-.2h0Z"/>
  <path class="st16" d="M309.4,76.7c-1,1.4-2.6,5.7-3.5,7.6-.3.7-1,.9-.8,2h-1c.2,2.1-2.4,2.1-2.2,4.1-1.4-.2-.7.3-1.2,1.1-.2.3-2.2,2.2-2.6,2.6-.6.6-.6.6-1,1-.1.1-.9,0-1.3.3-.3.2-.4.8-.8.9-.5.2-2.5.7-3,.8-2.4.2-5.1-.2-7.6,0-.5,0-.9,0-1.1.5-1.6-.3-4.1-.5-5.6-1.2-.6-.3-.9-1.1-1.8-.9v-.9c-1,.4-1.7-.9-1.9-1v-1.4h13v-1h4.1v-1h1.9v-1h1.9v-1h2.2v-1h1.9v-1.2h1v-1h1v-1h1v-1h1.2v-1h1v-1h1v-1.2h1v-1h1v-1.9h1v-.7l1.5.2h0Z"/>
  <path class="st2" d="M79.2,226.1v27.8h-5c0-1.4-.2-3.4-.2-4.7v-19.4c0-.9.2-2.6.2-3.7h5Z"/>
  <path class="st14" d="M262.1,41.2c-.3-1,.7-.5.9-1.1v-1.7c0,0,1-.4,1-.4v-1.5c0,0,1-.4,1-.4v-2.3l1-.5v-1.8s1.2-.4,1.2-.4v-2.3s1-.5,1-.5v-1.8h1v-1.9h1v3.1h1v2.9h1v1.9h1.2v3.1h1v1.9h1v2.2h1v1.9h1v1.9h-5v-1h-2.9c-.1,0,.1-1.5,0-2-.1-.4-.7-.4-.9-.8-.3-.7,0-1.9-.6-2.5l-.4,1.2h-1.2v3.1h-1v1h-2.7v-1.2c-.1,0-.2,0-.2,0Z"/>
  <path class="st8" d="M287.1,60.2v3.1c0,2.7,0,5.4,0,8.2,0,1,0,1.9,0,2.9h-1v2.2h-1v1.9h-1.2v1h-1v1h-1v.9c.4,0,.8.2,1,.3.1,1.3-1.1.9-1.9,1v1h-3.1v1h-1.9v1c-1,0-1.9,0-2.9,0-1.7,0-3.4,0-5,0v-1.2h1.9v-1h1.9v-1h2.2v-1h1.9v-1.2h1v-1h1v-1h1.2v-1h1v-1.9h1v-1.2h1v-1.9h1v-1.9h1v-3.1h1.2v-3.8h1c0-1,0-2.1,0-3.1.3,0,.6,0,1,0h0Z"/>
  <path class="st5" d="M213.2,270c0,.9,0,2.2,0,3.1,0,.5.1,1.2,0,1.8-.2.6-1.5,1-1.2,2.1h-.9c.2,1.4-.3.7-.9,1.1-.8.4-.6.9-1.9,1.1-1.1.1-3,0-4.1,0-1.9-.1-1.1-.6-1.9-1.1-1-.6-2.5,0-2.1-2h-1v-1c0-.6,0-1.3,0-1.9,0-1.3,0-2.8,0-4.1.1-1.6.9-1.6,1-3.1h1.2v-1h1c.6,0,1.3,0,1.9,0v-1c1.3-.1,2.7-.5,3.9,0,.4.2.7.6,1.1.8.3.1.8,0,1.2.2,1.1.5,2.8,3.6,2.9,4.9h0ZM205.1,267.1c-1.9.2-2.7.9-2.9,2.9-.4.1-.9-.3-1,.4,0,1,0,2.4,0,3.4,0,.7.6.2,1,.4v1h1v1h1c.1.4-.3.9.4,1,1.2,0,2.4,0,3.6,0,.3,0,0-.7.1-1,.3-1,1.7-1.1,1.9-2.9.4-.1.9.3,1-.4,0-.7,0-1.7,0-2.4,0-.7-.6-.2-1-.4-.2-1.7-1.2-2.7-2.9-2.9v-1.2c-.7,0-1.2,0-1.8,0l-.4,1.2h0Z"/>
  <path class="st12" d="M222.1,205c.1-1.4.9-1.6,1-2.9h.9v-1c1.3.3,2-.9,3.1-1.1.6-.1,3.4-.2,4,0s.6.8.9,1c.6.4,1.2,0,2,.8.2.2,2,3.4,2.1,3.7.4,1.2,0,5-.7,6.1-.3.5-.9.7-1.1,1.3-.2.3-.1,1-.2,1.1-.1,0-.6,0-.9.1-1,.6-.3.7-1.9.8-1.3,0-2.8,0-4.1,0-1.5,0-2.2.2-3.5-1-1-.9-1.5-2.4-2-3.6.6-.2.5-.6.5-1.1,0-1.4-.1-3,0-4.4h0ZM227.1,203.1c-.2.5-1.7,1.7-2.2,2.2-.5.4-.9,0-1,1.1s-.3,3.3,1,3.5c0,1.8.6,2.1,2.2,2.2v1.2c.9,0,1.9,0,2.9,0,.4,0,.8,0,1.2,0,0,0,0-.9,0-1.2.2-.8,1.7-1.1,1.9-2.9.4-.1.9.3,1-.4,0-.7,0-1.7,0-2.4,0-.7-.6-.2-1-.4-.2-1.8-1.4-2.8-3.1-2.9-.1-.4.3-.9-.4-1-.8,0-1.6,0-2.4,0-.3,0,0,.7-.1,1h0Z"/>
  <path class="st5" d="M153.3,201.2c.2.6,1.5,1.3,1.9,1.8.5.8.7,2.3,1.3,3.3.7,1.2,1.5,1.3,1.6,2.8,0,.3,0,.6,0,1h2.2v-8.9h1.9c.8,4.6-.3,9.3,0,13.9-1.1.4-3.3.1-4.2-.7s-.6-1.6-1-2.4c-.3-.6-1.2-.8-.8-1.9h-.9c0-.9-.6-1.2-.9-1.9-.4-.8-.4-2.1-1.6-2.5-.5,0-.3,0-.4.4-.4,3-.1,6,0,9-.7,0-1.4,0-2.2,0v-13.9h3.1,0Z"/>
  <path class="st12" d="M146.1,264v1c.7,0,1.4,0,2.2,0,1.1.1,2,.6,2.6,1.6.4.8.6,1.4,1.1,2.3.8,1.3.3,5.2-.3,6.6-.4.8-1.1,1-1.3,1.6-.1.3,0,.8-.2.9-.1.1-.7,0-1.1.2-.8.7.6.9-1.8,1-1.4,0-2.7,0-4.1,0-.6,0-1.1,0-1.7,0v-1.2c0,0-1.1,0-1.4,0-1.2-.2-1.7-2.2-2.2-3.1,1.1-1.8.1-3.8.2-5.8,0-1.6.9-1.6,1-3.1h.9v-1c.5.2,1.2-.2,1.4-.2.8,0,1.8.5,2.6.2v-1c.6,0,1.3,0,1.9,0h0ZM143.2,267.1c-.5.1-1.7,1.7-2.2,2.2-.1.1-.5.1-.6.3-.6.7-.2,2.7-.3,3.6l1,.4c0,1.6.7,2.3,2.2,2.4.1.4-.3.9.4,1,.6,0,1.6,0,2.2,0s.5-.4.6-.5c1.5-.8,2.7-1.6,2.9-3.4.4-.1.9.3,1-.4,0-.7,0-1.7,0-2.4,0-.7-.6-.2-1-.4-.2-1.9-1.3-2.8-3.1-2.9v-1.2h-2.5l-.4,1.2h0Z"/>
  <path class="st5" d="M220.2,265c.9.2.9,1.8,1.2,2.5.9,1.9,2.3,1.8,2.6,4.5,0,.4,0,.8,0,1.2.4,0,.8,0,1.2,0,.2,0,.4.3.7.2.5-.4.2-7.2.2-8.4h1.9v14.1c-.4,0-2.8,0-2.9,0,0,0,0-.6-.1-.9-.4-.7-1.4-.9-1.1-2.2h-.9c-.4-2.4-2.8-3.8-3.2-6.2-.6-.2-.3.5-.4.8-.1,2.8.1,5.7-.2,8.5-.7,0-1.4,0-2.2,0v-14.1c.8,0,2.5-.1,3.1,0h0Z"/>
  <path class="st5" d="M126.4,265c.3,2.2.7,1.5,1.5,2.9.3.6,1.2,2.6,1.6,3s.5-.6.6,1c0,.4,0,.8,0,1.2h1v1h1.2v-9.1h1.7v14.1c-4.8.5-3-1.2-4.8-3.9-.4-.6-1.6-1.1-1.9-1.7-.3-.6-.1-1.1-.3-1.6-.1-.3-.6-.4-.7-.7-.3-.6.3-1.4-.8-1.2v-1h-1.2v10.1c-.7,0-1.4,0-2.2,0,.2-4.6-.3-9.5,0-14.1h4.3Z"/>
  <path class="st5" d="M109.6,264.8c.3.4.4-.4.5,1.2,0,.4,0,.8,0,1.2h1.4c.1,1.9.7,1.5,1.6,2.8.6.8,1.1,2.2,1.3,3.2h.7v1h1.2v-9.1h1.9v14.1c-.8,0-3,.1-3.5-.2s-.4-1.4-.7-1.9-1.1-1-1.4-1.5-.7-2.2-1.3-2.4l.2-.2v-1c0,0-1.4,0-1.4,0,0-.3,0-.7,0-1,0-.1.4-.6.2-1h-1v-1h-1.2v10.1c-.5,0-1.1,0-1.7,0v-14.1l3.1-.2h0Z"/>
  <path class="st5" d="M246.8,201c.2,0,.8.4,1.2.2v.9h1.2c0,.6,0,1.3,0,1.9s0,1.3,0,1.9c-.2,1.8-.5,2-2.2,2.2-.3,0-.6,0-1,0v1.8h1c.1.5.8.8,1,2.1,0,.4,0,.8,0,1.2h1.2c0,.5.5,1.4,0,1.8h-3.1c-.2-1.3-1.2-2.3-1.8-3.5-.7-1.4,0-2.2-2.3-2.4-.3,0-.6,0-1,0v6c-.6,0-1.3,0-1.9,0,0-2.8,0-5.5,0-8.3,0-2-.1-3.6,0-5.6,1.9-.2,3.8.4,5.6.2.8,0,1.5-.5,2-.5h0ZM242,203.1h-1v3.9c0,.3.7.1,1,.1,1,0,2,0,3,0v-1.2c.5,0,.8,0,1.1,0,.2-1.7-.1-2.7-1.9-2.9.3-1.6-1-.8-2-1-.3,0-.1.7-.1,1Z"/>
  <path class="st12" d="M175.1,265c.6,2,1.4,4.1,2.3,6,.4.9,1.5,2.1,1.7,2.9.2.7,0,1.4.2,2,.2.6,1.4,1.2,1.4,2.7,0,.8-2.1.7-2.6.5-.8-.4-.6-1.5-.8-2-.2-.4-1-.5-1.1-1,0-.2,0-.7,0-1h-4.7c-.3,0,0,.7-.1,1,0,0-.7.5-.9.9-.4.6-.5,1.5-.8,2.2h-2.4l-.4-.5c.4-1.9,1.5-3.5,2.1-5.1.5-1.3.7-3.4,1.3-4.5.3-.5.8-.6,1.1-1.1.3-.5.9-2.3,1-3h2.9ZM172.2,271.9c-1.6-.4-.8,1.2-1,2.2h3.8v-1c0-1.6-.6-1.3-.9-2.1-.2-.7.1-2.1-.5-2.4-.4-.2-.8,1.7-1.2,1.9-.2.5-.3.9-.4,1.4h0Z"/>
  <path class="st12" d="M198.1,201.2c1.6.2,1.8.4,1.9,1.9,0,.9,0,2,0,2.9-.2,2.3-.7,1.4-1.6,2.6-.9,1.4,0,1.3.4,2.2.3.7.4,1.5.9,2.1s1.7.9,1.4,2.1c-1.4-.1-2.4.7-3.6-.3-.8-.7-1.1-2.5-1.5-3.5-.4-.7-1.1-1.2-1.1-2.1-.6,0-1.7-.2-1.9.4v5.6c-.7,0-1.3,0-1.9,0v-13.9c2.2.2,4.8-.2,7,0h0ZM193.1,203.1c0,.9,0,2,0,2.9,0,.4,0,.8,0,1.2h3v-1.2c.5,0,.8,0,1.1,0,.3,0,.9.1,1-.1v-1.8h-1c0-.3,0-.6,0-1-.3,0-.6,0-1,0-.1-.4.3-.9-.4-1-.9,0-1.8,0-2.6,0-.3,0-.1.7-.1,1h0Z"/>
  <path class="st1" d="M130.2,200v1.2c.6,0,1.3,0,1.9,0,1.4.1,1.9.4,2.2,1.9-.3,0-.6,0-1,0-.7,0-1.4,0-2.2,0-.2,0-.5,0-.7,0,.2-1.3-1.3-1.1-2.2-.9l-.2.9c-1.4,0-2.7,1.6-2.9,2.9-.4.1-.9-.3-1,.4,0,.7,0,1.7,0,2.4,0,.7.6.2,1,.4.3,2.1,1.7,2.1,2.4,3.1,0,0,0,.5.1.7.3.3,1.7.3,2.2.2,1-.1.7-.5,1.1-1,.8-1,1.2-1.7,2.6-.8,1.1.7.7,1.7.7,2.8-1.2-.5-1.6.9-1.9,1s-.7,0-1,0c-1.3,0-3.1.1-4.3,0-1,0-3.3-.7-2.9-1.9h-1c0-.4,0-.8,0-1.2,0-.4.5-1.2.2-1.9h-1.4c0-1.1-.2-4.8.3-5.4.2-.2.6-.2.8-.6.3-.6.3-1.3.8-2,.5-.6,1.4-1,2.2-.9v-1.2c1.4,0,2.7,0,4.1,0h0Z"/>
  <path class="st5" d="M157.1,265c0,.3,0,.6,0,1,0,.7,0,1.4,0,2.2h1v1c0,.6,0,1.3,0,1.9h1.2v1c0,.7,0,1.4,0,2.2h1.9v-1c0-.4,0-.8,0-1.2h1c0-.6,0-1.3,0-1.9.2-1.6.6-3.1,1.3-4.5.1-.3.6-.5.6-.5h2.2v1c0,.4,0,.8,0,1.2h-1c0,.6,0,1.3,0,1.9-.1,1.5-.7,1.2-.9,1.9-.1.5,0,1.1-.2,1.8-.1.6-.8,1.1-1,1.7-.4,1-1.1,4.5-2,4.8-.5.1-1.2,0-1.8,0,0-.8-.1-1.8-1.2-1.7,0-1.2-.9-1.6-1.1-2.3-.7-2.7-1-4.3-2.1-7-.3-.8-.9-1-.8-2.2,0-.1.4-.6.3-.9h2.6s0,0,0,0Z"/>
  <path class="st2" d="M97.4,201.2h1.9v13.9c-.6,0-1.3,0-1.9,0,0-2,.2-4.1-.2-6,0-.3.2-.9-.1-1-1.8.1-3.7-.1-5.5,0-.7,0-.2.6-.3,1h-1v6c-.6,0-1.3,0-1.9,0,.1-4.5-.2-9.1,0-13.7h1.9v4.6c.4,0,.8,0,1.2,0,1.5,0,3.3,0,4.8,0,.4,0,.8,0,1.2,0v-4.8h0Z"/>
  <path class="st17" d="M131.9,110.6c0,0-.2.4-.3.5-.9.5-3.4.2-4.6.2-14.5.7-30.1.5-44.7.2l.4-1.4h47.2l2,.5Z"/>
  <path class="st11" d="M275.3,172.7c.2-3.9,0-8.4,0-12.4-.1-16.7-1.3-34.7-.5-51.3,0-1.2.2-2.9.7-3.9,0,.2.7.7.5,1.3v65.5s-.7.8-.7.8h0Z"/>
  <path class="st17" d="M131.7,176.5c0,.2.2.6-.1.7-16.7-.3-33.3.7-50,.2v-1.4c15.7.9,32.8-1.2,48.3,0,.7,0,1.2.2,1.8.5h0Z"/>
  <path class="st12" d="M187.1,201.2c0,.6,0,1.3,0,1.9-.2.2-5.1,0-6,0-.3,0-.9-.1-1,.1v2.7c.3,0,.6,0,1,0,0,.4,0,.8,0,1.2h5v1h-6c0,.3,0,.6,0,1,0,.9,0,1.9,0,2.9.3,0,.6,0,1,0,0,.4,0,.8,0,1.2h6v1.9c-2.4.5-6.4.4-8.9,0v-13.9h8.9,0Z"/>
  <path class="st6" d="M60.7,225.7c.1.7-.4.4-.8.5-1.9.1-3.2,0-5,0-2.1,0-4.2,0-6.4,0v27.8c3.7,0,7.4,0,11,0v1.2c-.2,0-.5.2-.8.2-3.8.2-7.6-.4-11.4-.2v-30h13.2c.1.2.2.5.2.5Z"/>
  <path class="st10" d="M265,170l-1-.6c0-20.1,0-40.1,0-60.2,0-.5-.2-1.1-.2-1.4,0-.6.6-.8.6-.9.9,1.3.4,3.5.5,5.2.8,19.2-.5,38.6,0,57.9h0Z"/>
  <path class="st1" d="M146.3,201.2c0,.4,0,1.9-.4,1.9-1.9,0-3.8-.1-5.6,0-.4,0-.8,0-1.2,0v2.9c.3,0,.6,0,1,0v1.2l5,.2v.7h-5c0,.3,0,.6,0,1-.3,0-.6,0-1,0v2.7c0,.3.7.1,1,.1,0,.4,0,.8,0,1.2h6v1.9c-3.1.4-5.6.1-8.6,0v-13.9h8.9Z"/>
  <path class="st5" d="M104.3,201.2h7.9v1.9c-2.1.3-3.7-.1-5.8,0,0,.9,0,1.9,0,2.9,0,.2-.5.7-.2,1.2h6v1h-6v1c0,1.1.2,2,.2,2.9s-.5.8-.2,1.2h7c0,.6,0,1.3,0,1.9-3,.1-5.8.5-8.9,0v-13.9h0Z"/>
  <path class="st17" d="M218,176v1.2c-11.4.6-23.3.3-34.8,0v-1.2c11.5.2,23.3-.4,34.8,0Z"/>
  <path class="st9" d="M130.2,166.2c-9.8-.3-20,0-29.9,0-5.2,0-12.2.9-17.3.3-.9-.1-.9-.3-.8-1.2,15.8.3,31.6-.2,47.4,0l.6,1Z"/>
  <path class="st8" d="M130.2,100.2c-15.6.4-32.4.3-48,0l.6-.9c15.6,0,31.2,0,46.7,0l.6,1Z"/>
  <path class="st12" d="M175.1,201.2v1.9c-.9,0-1.9,0-2.9,0-.3,0-.6,0-1,0v12c-.7,0-1.4,0-2.2,0v-12c-.3,0-.6,0-1,0-1.4,0-2.7,0-4.1,0,0-.6,0-1.3,0-1.9h11Z"/>
  <path class="st18" d="M153.3,226.1c-2-.1-4,0-6,0v27.8h3.8v1.2c-1.7.1-3.4,0-5,0v-30c2.1.2,4.9-.3,6.8,0,.6.1.8.4.4,1h0Z"/>
  <path class="st5" d="M180.1,267.1l.2-2.2h9.8v2.2c-1,0-2.1,0-3.1,0-.3,0-.6,0-1,0v12c-.6,0-1.3,0-1.9,0v-12c-.3,0-.6,0-1,0-1,0-2.1,0-3.1,0h0Z"/>
  <path class="st7" d="M216.1,225.2v1c-3.7,0-7.4,0-11,0v27.8h4.1v1.2c-1.7.1-3.4,0-5,0v-30c4,0,8,0,12,0h0Z"/>
  <path class="st10" d="M180.1,99.3c12.2,0,24.4,0,36.5,0l.4,1.2c-12.3,0-24.6.2-36.9,0v-1.2h0Z"/>
  <path class="st5" d="M86.1,201.2c0,.6,0,1.3,0,1.9-1.2,0-2.4,0-3.6,0-.4,0-.8,0-1.2,0v12c-.6,0-1.3,0-1.9,0v-12c-.4,0-.8,0-1.2,0-.9,0-1.8,0-2.6,0v-1.9h10.6Z"/>
  <path class="st12" d="M219.2,201.2v1.9c-2.1.4-3.9,0-6,0-.3,0-1.2-.1-1.2.1v2.7c.4,0,.8,0,1.2,0,0,.4,0,.8,0,1.2h6c0,.6,0,1.3,0,1.9-2,0-4,0-6,0-.4,0-.8,0-1.2,0v6c-.3,0-.6,0-1,0v-13.9h8.2Z"/>
  <path class="st14" d="M79.2,225.2c.4,0,.8,0,1.2,0v29.8c0,.3-.9.1-1.2.1v-30Z"/>
  <path class="st21" d="M115.1,273.1v-9.4l4.3.2v15.1c-.4,0-.8,0-1.2,0v-14.1h-1.9v9.1h-1.2v-1h0Z"/>
  <path class="st2" d="M193.1,265h2.2v14.1c-.7,0-1.4,0-2.2,0,.2-4.6-.3-9.5,0-14.1Z"/>
  <path class="st21" d="M137.4,215.1c-.4,0-.8,0-1.2,0v-15.1h10.1v1.2h-8.9v13.9Z"/>
  <path class="st5" d="M102.4,265c.3,4.7-.7,9.5,0,14.1-.7,0-1.4,0-2.2,0v-14.1h2.2Z"/>
  <path class="st7" d="M140.3,250.1c.1,1.7-.2,3.3-.2,5-6.3-.3-12.6.6-18.9,0v-1.2h18v-3.8h1.2Z"/>
  <path class="st3" d="M121.1,225.2v30c-.3,0-.6,0-1,0v-29.8c0-.3.7-.1,1-.1Z"/>
  <path class="st13" d="M179.2,225.2v30c-.3,0-.6,0-1,0v-29.8c0-.3.7-.1,1-.1Z"/>
  <path class="st7" d="M198.1,250.1c.1,1.7,0,3.4,0,5-6.3-.3-12.6.6-18.9,0v-1.2h18v-3.8h1,0Z"/>
  <path class="st9" d="M132.4,264c1,0,2.1,0,3.1,0v15.1c-.5,0-1,0-1.4,0v-14.1h-1.7v-1Z"/>
  <path class="st8" d="M191.1,215.1c-.3,0-.6,0-1,0,.5-4.9-1.1-10.1.5-14.8l7.3-.3v1.2c-2.1-.2-4.6.2-6.8,0v13.9h0Z"/>
  <path class="st15" d="M109.6,264.8l-3.1.2v14.1c-.4,0-.8,0-1.2,0v-15.1c1.1-.1,3.2-.7,4.1.1.2.2.2.5.2.6h0Z"/>
  <path class="st13" d="M151.1,254v-20.9h.9c0,.5.3,1,.3,1.4s-.2,1.2-.2,1.8c-.1,6.3.1,12.6,0,18.8-.3,0-.6,0-1,0v-1.2h0Z"/>
  <path class="st7" d="M197.1,225.2v1h-18v-1c5.7-.4,12.4-.5,18,0Z"/>
  <path class="st4" d="M97.4,200c1,0,2.1,0,3.1,0v15.1c-.4,0-.8,0-1.2,0v-13.9h-1.9s0-1.2,0-1.2Z"/>
  <path class="st6" d="M121.1,225.2c2.8-.2,5.3,0,8,0,3.4,0,6.8,0,10.2,0,.1,0-.2.7-.2,1h-18v-1h0Z"/>
  <path class="st8" d="M150.1,215.1c-.3,0-.6,0-1,0v-15.1h4.1c0,0,0,.9,0,1.2h-3.1v13.9Z"/>
  <path class="st7" d="M104.3,201.2v13.9c-.4,0-.8,0-1.2,0,.2-4.6-.2-9.3,0-13.9h1.2Z"/>
  <path class="st8" d="M193.1,265c0-.3,0-.6,0-1h3.1v15.1c-.3,0-.6,0-1,0v-14.1h-2.2,0Z"/>
  <path class="st4" d="M209.1,254v-12h4.1c0,.4,0,.8,0,1.2-.7.1-2.8-.4-3.1.4v11.6c-.4,0-.7,0-1,0v-1.2h0Z"/>
  <path class="st8" d="M180.1,267.1c-.3,0-.6,0-1,0v-3.1h12v3.1c-.3,0-.6,0-1,0v-2.2h-9.8l-.2,2.2h0Z"/>
  <path class="st13" d="M139.3,230v1.2h-13.2c0-.4,0-.8,0-1.2h13.2Z"/>
  <path class="st13" d="M197.1,225.2c.3,0,.6,0,1,0v4.7c0,.3-.7.1-1,.1,0,.4,0,.8,0,1.2h-12.9c0-.4,0-.8,0-1.2,4.3-.2,8.7.2,12.9,0,0-1.3,0-2.6,0-3.8v-1Z"/>
  <path class="st13" d="M274.9,241.5c.9,4.5,0,9.1.2,13.7-.3,0-.6,0-1,0v-1.2c0-1-.2-2.2-.2-3v-7.9c0-1.2.7-1.2,1-1.6Z"/>
  <path class="st18" d="M181.1,206c.6,0,6-.2,6,.1v3h-7c0-.3,0-.6,0-1h6v-1h-5c0-.4,0-.8,0-1.2h0Z"/>
  <path class="st8" d="M103.1,201.2c0-.4,0-.8,0-1.2h10.3v3.1c-.4,0-.8,0-1.2,0v-1.9h-9.1Z"/>
  <path class="st13" d="M178.2,200v15.1c-.3,0-.6,0-1,0v-15c0-.3.7-.1,1-.1Z"/>
  <path class="st14" d="M78.2,203.1c.4,0,.8,0,1.2,0v12c-.4,0-.8,0-1.2,0v-12Z"/>
  <path class="st4" d="M82.5,203.1v12c-.4,0-.8,0-1.2,0v-12c.4,0,.8,0,1.2,0Z"/>
  <path class="st7" d="M217.1,265v14.1c-.3,0-.6,0-1,0,.1-4.7-.3-9.4,0-14.1h1Z"/>
  <path class="st18" d="M140.1,206c.6,0,6-.2,6,.1v3c-2,0-4-.1-6,0,0-.3,0-.6,0-1h5v-.7l-5-.2v-1.2h0Z"/>
  <path class="st13" d="M126.2,249.2h14.2c0,.3,0,.6,0,1h-14.1c0-.3,0-.6,0-1Z"/>
  <path class="st18" d="M100.2,265v14.1c-.3,0-.6,0-1,0,.2-4.6-.3-9.5,0-14.1h1Z"/>
  <path class="st7" d="M229,265c.3,4.6-.2,9.5,0,14.1-.3,0-.6,0-1,0v-14.1h1Z"/>
  <path class="st7" d="M211.1,201.2v13.9h-1c.2-4.6-.2-9.3,0-13.9h1Z"/>
  <path class="st13" d="M184.2,249.2h13.9c0,.3,0,.6,0,1h-13.9c0-.3,0-.6,0-1Z"/>
  <path class="st8" d="M175.1,200v1.2h-11c0-.4,0-.8,0-1.2,3.6.2,7.4-.2,11,0Z"/>
  <path class="st13" d="M132.4,264v10.1h-1.2v-1h-1c0-.4,0-.8,0-1.2.4-.1.9.3,1-.4.2-2.5-.1-5.1,0-7.6.4,0,.8,0,1.2,0h0Z"/>
  <path class="st19" d="M291.4,76.7c0,.2.2.6.2.7s-.2.9-.3.9h-1.4v1h-1v1c-1.4-.4-1.4.8-1.9,1.1-.7.3-1.2-.3-1,1.1-.3,0-.7,0-1,0v-2.4c1.6-.1.6-.3,1.1-.7.6-.5,2.6-1.1,2.7-1.2s0-.5,0-.6c.4-.5,1.8-.7,2.3-.8h0Z"/>
  <path class="st13" d="M244.1,242h6v7.2c-.3,0-.7,0-1,0v-6h-5c0-.4,0-.8,0-1.2Z"/>
  <path class="st8" d="M75.6,200c3.5-.1,7.1,0,10.6,0,0,.4,0,.8,0,1.2h-10.6v-1.2Z"/>
  <path class="st9" d="M46.5,133.1c0,3.1.2,6.4,0,9.5,0,.4,0,.9-.5,1.1,0,0-.4,0-.5-.1-.3-.4-.4-8.5-.2-9.6.1-.9.3-.9,1.2-.8h0Z"/>
  <path class="st14" d="M108.2,279.1v-10.1h1.2v1h1c.2.4-.2.8-.2,1-.9-.3-.9.7-1,1.3,0,1,.5,6.5.2,6.8-.4,0-.8,0-1.2,0h0Z"/>
  <path class="st4" d="M124.2,279.1v-10.1h1.2v1c0,3,0,6.1,0,9.1-.4,0-.8,0-1.2,0h0Z"/>
  <path class="st11" d="M57.6,134.1c-.2,3.1-.3,6,0,9.1h-1.4v-8.7s1.4-.4,1.4-.4Z"/>
  <path class="st8" d="M253,133.1c.4.1.9-.3,1,.4.2,3.5.2,6.1,0,9.6,0,.7-.6.2-1,.4.1-3.3.1-7,0-10.3h0Z"/>
  <path class="st7" d="M196.2,237.2v1h-12c0-.3,0-.6,0-1,3.9.2,8.1-.2,12,0Z"/>
  <path class="st9" d="M187.1,267.1v12h-1v-12c.3,0,.6,0,1,0Z"/>
  <path class="st13" d="M172.2,203.1v12h-1v-12c.3,0,.6,0,1,0Z"/>
  <path class="st8" d="M168.1,203.1c.3,0,.6,0,1,0v12h-1v-12Z"/>
  <path class="st13" d="M183.2,267.1c.3,0,.6,0,1,0v12h-1v-12Z"/>
  <path class="st7" d="M138.1,237.2v1h-12c0-.3,0-.6,0-1,4,.1,8-.2,12,0Z"/>
  <path class="st8" d="M219.2,200v1.2h-9.1c0-.4,0-.8,0-1.2,3,.1,6.1-.2,9.1,0h0Z"/>
  <path class="st8" d="M178.2,200c2.9-.2,6,.1,8.9,0,0,.4,0,.8,0,1.2h-8.9v-1.2h0Z"/>
  <path class="st8" d="M244.1,238.1c0-.3,0-.6,0-1h10.9c.3,0,.1.7.1,1h-11Z"/>
  <path class="st6" d="M88.3,201.4c0-.5,0-1,0-1.4h3.1v6c-.4,0-.8,0-1.2,0v-4.6h-1.9Z"/>
  <path class="st7" d="M292.1,97.1v1.2c-2.9,0-5.5.2-8.2-.4-.2,0-.4-.3-.5-.4.2-.6.6-.5,1.1-.5,2.5-.1,5.1.2,7.6,0Z"/>
  <path class="st18" d="M160.2,201.2v8.9h-2.2c0-.3,0-.6,0-1,.4,0,1,.1,1.2-.4.4-1.1,0-5.9,0-7.5h1Z"/>
  <path class="st9" d="M246.8,201c-.6,0-1.2.4-2,.5-1.8.1-3.8-.5-5.6-.2,0-.4,0-.8,0-1.2,1.9.3,4.8-.3,6.6,0,.5.1.8.5,1.1.9h0Z"/>
  <path class="st8" d="M106.5,212h7c.2.5-.2,1-.2,1.2h-7c-.2-.4.2-1.1.2-1.2Z"/>
  <path class="st7" d="M224,253h1.2v2.2h-5.9v-1.2c1.3.2,3.2-.2,4.7,0,0-.3,0-.6,0-1Z"/>
  <path class="st18" d="M283,227.8c0-.5,0-1.2,0-1.7h-5c.1-.4-.3-.9.4-1,1.1,0,4.6-.3,5.5,0,1,.3,0,2.4-.8,2.6h0Z"/>
  <path class="st6" d="M91.1,209.1h.2v5.8c-.3.9-1.1.2-1.2.2v-6h1Z"/>
  <path class="st18" d="M265.5,225.9l-5.5.2c0,.4,0,.8,0,1.2l-.9-.2v-1.9c-.1,0,3.6,0,3.6,0,0,0,.3-.2.7-.2,1,0,1.4.3,2.1.9h0Z"/>
  <path class="st13" d="M97.1,209.1c.4,1.9.2,4,.2,6-.4,0-.8,0-1.2,0v-6h1Z"/>
  <path class="st9" d="M181.1,209.1c0,.9,0,1.9,0,2.9,2,.1,4-.1,6,0v1.2h-6c0-.4,0-.8,0-1.2-.3,0-.6,0-1,0,0-.9,0-1.9,0-2.9h1Z"/>
  <path class="st8" d="M146.1,212v1.2h-6c0-.4,0-.8,0-1.2,2,.1,4-.1,6,0Z"/>
  <path class="st7" d="M213.2,209.1v6c-.4,0-.8,0-1.2,0v-6c.4,0,.8,0,1.2,0Z"/>
  <path class="st8" d="M213.2,206c2,0,4,0,6,0,0,.4,0,.8,0,1.2h-6c0-.4,0-.8,0-1.2Z"/>
  <path class="st7" d="M171.2,254c0,.4,0,.8,0,1.2-2,0-4,0-6,0v-1.2h6Z"/>
  <path class="st13" d="M97.4,200v6c-.4,0-.8,0-1.2,0v-6c.4,0,.8,0,1.2,0Z"/>
  <path class="st18" d="M112.2,206v1.2h-6c-.2-.4.2-1,.2-1.2,1.9,0,3.8,0,5.8,0Z"/>
  <path class="st10" d="M247,250.1c0,.5.3.8-.4.9-1.6.4-3.7.4-5.3,0-.7-.1-.3-.4-.4-.9,1.3.1,4.7.2,6,0h0Z"/>
  <path class="st7" d="M112.2,208.1v1c-2.1.3-3.9-.1-6,0v-1h6Z"/>
  <path class="st18" d="M79.2,254v1.2c-1.7,0-3.4,0-5,0,0-.4,0-.8,0-1.2h5Z"/>
  <path class="st7" d="M274.1,254v1.2c-1.7.1-3.4,0-5,0,0-.4,0-.8,0-1.2h5Z"/>
  <path class="st8" d="M262.1,91.4v1c-1.7,0-3.4,0-5,0v-1.2c1.7,0,3.5.2,5,.2Z"/>
  <path class="st8" d="M138.1,269.1c-.1,2,.8,3.9-.2,5.8,0,0-.4-.2-.5-.3-.4-.7-.3-4.1-.2-5.1,0-.7.6-.2,1-.4Z"/>
  <path class="st4" d="M138.1,237.2c.4,0,.8,0,1.2,0v4.8c-.5.5-1.1,0-1.2,0v-4.8h0Z"/>
  <path class="st7" d="M242,209.1v6c-.3,0-.6,0-1,0v-6c.3,0,.6,0,1,0Z"/>
  <path class="st7" d="M91.1,209.1c0-.4-.3-.9.3-1,1.8-.1,3.7.1,5.5,0,.3,0,0,.7.1,1h-1c-1.6,0-3.2,0-4.8,0h-.2,0Z"/>
  <path class="st4" d="M235,237.2c0,1.8-.2,4.3,0,6-.4-.1-.9.3-1-.4-.1-1.5-.1-3.8,0-5.3,0-.7.6-.2,1-.4h0Z"/>
  <path class="st13" d="M157.1,265h-2.6c.1.4-.2.8-.3,1-1.5.3-.9-.9-.9-1.9.8-.1,3.8-.7,4.1.1.2.5-.2.8-.2.8h0Z"/>
  <path class="st10" d="M67.4,243.6c1.9.5.6,3.9,1,5.4h-1.2c.3-1.6.4-3.6.2-5.4Z"/>
  <path class="st4" d="M66.4,230c.4.1.9-.3,1,.4,0,1.5,0,3,0,4.6h-1.2c.3-1.5.3-3.4.2-4.9h0Z"/>
  <path class="st8" d="M222.1,205c-.1,1.4.1,3,0,4.4,0,.4,0,.9-.5,1.1,0,0-.4-.1-.5-.6-.2-.9,0-3.5,0-4.6,0-.7.6-.2,1-.4h0Z"/>
  <path class="st8" d="M246.1,224v1.2c-1.3,0-2.7,0-4.1,0v-1.2c1.4,0,2.7,0,4.1,0Z"/>
  <path class="st10" d="M241,230c.1-.4-.3-.9.4-1,1.3,0,3.1,0,4.3,0,.7,0,.2.6.4,1-1-.2-4-.1-5,0h0Z"/>
  <path class="st7" d="M166.2,226.1c0-.3,0-.6,0-1h4.9c.3,0,0,.7.1,1h-5Z"/>
  <path class="st18" d="M79.2,225.2v1h-5c0-.3,0-.6,0-1,1.7,0,3.4,0,5,0Z"/>
  <path class="st17" d="M180.1,99.3v1.2c-1.3,0-4.5.6-4.1-1.2,1.4,0,2.7,0,4.1,0Z"/>
  <path class="st13" d="M131.4,215.1c0,.5.3.8-.4,1-1.1.3-2.6.4-3.6,0-.7-.2-.3-.4-.3-1,1.2.1,3,0,4.3,0h0Z"/>
  <path class="st4" d="M103.1,255.2c0,.4.3.9-.3,1-1.4,0-3,0-4.4,0v-1c1.6,0,3.2,0,4.8,0h0Z"/>
  <path class="st18" d="M171.2,276c0-.2-.2-.9.1-1h4.7c0,.3,0,.7,0,1h-4.8Z"/>
  <path class="st8" d="M102.2,224v1.2c-1.3,0-2.6,0-3.8,0v-1.2c1.3,0,2.6,0,3.8,0Z"/>
  <path class="st8" d="M196.2,237.2c.3,0,.6,0,1,0v4.7c0,.3-.7.1-1,.1v-4.8Z"/>
  <path class="st3" d="M75.6,200v3.1c-.3,0-1.4.1-1.4-.1v-3c.5,0,1,0,1.4,0Z"/>
  <path class="st13" d="M231.2,215.1c0,.5.3.8-.4,1-.9.3-2.4.3-3.4,0-.6-.2-.3-.4-.4-1,1.3,0,2.8,0,4.1,0h0Z"/>
  <path class="st13" d="M146.1,212c.4,0,.8,0,1.2.1l.2,3c-.5,0-1,0-1.4,0v-3.1h0Z"/>
  <path class="st6" d="M312,56.4c-1.9.4-1-2.8-.9-3.9,0-.2.2-.3.2-.4,1.2.8.7,3,.7,4.3h0Z"/>
  <path class="st4" d="M122.1,265c0-.3-.1-.9.1-1h4.2c0,.3,0,.7,0,1h-4.3Z"/>
  <path class="st4" d="M164.1,265c0-.2,0-.7,0-1h3.1c.1,1.1.7,2.1-.9,1.9v-1h-2.2Z"/>
  <path class="st4" d="M199.1,269.1c0,1.3,0,2.8,0,4.1h-1c0-1.2,0-2.6,0-3.7,0-.7.6-.2,1-.4h0Z"/>
  <path class="st13" d="M208.2,279.1c-.1.4.3.9-.4,1-1,0-2.4,0-3.4,0-.7,0-.2-.6-.4-1,1.1,0,3,.1,4.1,0h0Z"/>
  <path class="st13" d="M147.3,279.1c-.1.4.3.9-.4,1-1,0-2.4,0-3.4,0-.7,0-.2-.6-.4-1,1.4,0,2.7,0,4.1,0h0Z"/>
  <path class="st8" d="M246.1,255.2v1c-1.4,0-2.7,0-4.1,0v-1c1.4,0,2.7,0,4.1,0h0Z"/>
  <path class="st4" d="M216.1,265c0-.3-.1-.9.1-1,1.2,0,2.4,0,3.6,0,.7,0,.2.6.4,1-.7-.1-2.3,0-3.1,0h-1Z"/>
  <path class="st10" d="M81.5,176v1.4c-1.3,0-2.6.4-3.1-1.2.9,0,2.1-.4,3.1-.2Z"/>
  <path class="st13" d="M311.1,49.2c-.7,0-1.5,0-2.2,0l.4-1.9c2.2-.2,1.6.3,1.8,1.9Z"/>
  <path class="st15" d="M269.1,88.5v1c-1,0-2.1,0-3.1,0v-1.2c.9,0,1.7,0,2.5,0,.3,0,.5.2.6.2h0Z"/>
  <path class="st3" d="M112.2,206c.3,0,1.2-.1,1.2.1v3c-.4,0-.8,0-1.2,0v-3.1Z"/>
  <path class="st3" d="M257.1,91.1v1.2c-1,0-2.1,0-3.1,0v-1c.9,0,2-.2,3.1-.2Z"/>
  <path class="st3" d="M266,91.4c.2,1.5-2.8.9-3.8,1v-1c1.3,0,2.6,0,3.8,0Z"/>
  <path class="st6" d="M169.6,98.6c.7-.7,1.7-.4,2.6-.5v1.4c-.6,0-2.2.2-2.5-.2-.2-.2,0-.6-.1-.7Z"/>
  <path class="st8" d="M220.2,241v1h-1c0,.4,0,.8,0,1.2h-1.2v-2.2c.7,0,1.5,0,2.2,0Z"/>
  <path class="st13" d="M130.9,212.2c-.4.5,0,.9-1.1,1-.5,0-1.9,0-2.2-.2-.2-.2,0-.6-.1-.7,1.1-.4,2.2-.2,3.4,0h0Z"/>
  <path class="st4" d="M159.2,201.2c0-.3-.1-1.2.1-1.2h2.7c0,.4,0,.8,0,1.2h-2.9Z"/>
  <path class="st3" d="M224,232.1h1.2v2.7h-1.2c0-.7,0-1.9,0-2.7Z"/>
  <path class="st7" d="M213.2,203.1c0,.9,0,1.9,0,2.9-.4,0-.8,0-1.2,0v-2.7c0-.3.9-.1,1.2-.1Z"/>
  <path class="st4" d="M200,203.1h1.2v2.7h-1.2c0-.7,0-1.9,0-2.7Z"/>
  <path class="st10" d="M248,86.1v.2c0,1,0,2.1,0,3.1-.4,0-.9.3-1-.3,0-.8,0-1.9,0-2.7,0-.7.6-.2,1-.3h0Z"/>
  <path class="st9" d="M140.3,203.1c0,1-.2,1.9-.2,2.9-.3,0-.6,0-1,0v-2.9c.4,0,.8,0,1.2,0h0Z"/>
  <path class="st10" d="M220.6,176.5c-.3.2-.4.8-1.1.9-.7.1-1.1-.2-1.5-.2v-1.2c.9,0,1.8-.1,2.6.5Z"/>
  <path class="st6" d="M229,242c.4.1.9-.3,1,.4,0,.8.3,2.6-.5,3-.4-1.5-.4-1.7-.5-3.4h0Z"/>
  <path class="st21" d="M312,67.4c0,1,0,2.1,0,3.1h-1c0-1,0-2.1,0-3.1h1Z"/>
  <path class="st3" d="M213.2,270c.4.1.9-.3,1,.4,0,.7,0,1.7,0,2.4,0,.7-.6.2-1,.4,0-.9,0-2.2,0-3.1h0Z"/>
  <path class="st4" d="M159.2,271.9h1v1.2h1v1h-1.9c0-.7,0-1.4,0-2.2h0Z"/>
  <path class="st6" d="M229.8,234.8c0,1,.3,1.9.2,3,0,.7-.6.2-1,.4,0-1.1-.1-2.2.3-3.3h.4Z"/>
  <path class="st18" d="M125.2,206c0,.6,0,2.5,0,3.1-.4-.1-.9.3-1-.4,0-.7,0-1.7,0-2.4,0-.7.6-.2,1-.4h0Z"/>
  <path class="st3" d="M175.1,200c.3,0,.6,0,1,0v3c0,.3-.7.1-1,.1v-3.1Z"/>
  <path class="st3" d="M219.2,200c.3,0,.6,0,1,0v3c0,.3-.7,0-1,.1v-3.1Z"/>
  <path class="st3" d="M187.1,212c.3,0,.6,0,1,0v3c0,.3-.7,0-1,.1v-3.1Z"/>
  <path class="st9" d="M99.3,265c0-.3-.1-.9.1-1h3c0,.3,0,.6,0,1h-3.1Z"/>
  <path class="st2" d="M148.2,145.1c1.7-.4,1.4,2,.7,2.9-.3-.8-1.2-1.4-.7-2.9Z"/>
  <path class="st9" d="M183.2,176v1.2c-.8,0-1.4.2-2.2.2v-1.4c.7,0,1.4,0,2.2,0Z"/>
  <path class="st8" d="M181.1,203.1c0,.9,0,1.9,0,2.9-.3,0-.6,0-1,0v-2.7c0-.3.7-.1,1-.1Z"/>
  <path class="st9" d="M140.1,209.1c0,.9,0,2,0,2.9-.3,0-.9.1-1-.1v-2.7c.3,0,.6,0,1,0Z"/>
  <path class="st6" d="M130.5,203.1c-1,0-1.5,0-2.4,0l.2-.9c.9-.2,2.4-.4,2.2.9h0Z"/>
  <path class="st4" d="M172.2,265c0-.3,0-.7,0-1h2.7c.3,0,0,.7.1,1h-2.9Z"/>
  <path class="st4" d="M226.2,265c0-.3,0-.6,0-1h2.7c.3,0,.1.7.1,1h-2.9Z"/>
  <path class="st10" d="M122.1,210.1h1.4c.2.7-.2,1.5-.2,1.9h-1.2c0-.6,0-1.3,0-1.9Z"/>
  <path class="st3" d="M98.3,224v1.2c-.7,0-1.5,0-2.2,0v-1.2c.7,0,1.4,0,2.2,0Z"/>
  <path class="st4" d="M248,86.1v-1h2.2c0,0,0,.9,0,1.2h-2.2v-.2Z"/>
  <path class="st15" d="M273.2,87.5v1h-2.2v-1.2l2.2.2Z"/>
  <path class="st17" d="M79.4,111.5c.1,1.4-1.2.9-2.2,1v-1.2c.7-.2,1.7.2,2.2.2Z"/>
  <path class="st4" d="M61.6,254.4c0,.1,0,.5,0,.7-.7,0-1.4,0-2.2,0v-1.2c.7,0,1.8-.3,2.2.5Z"/>
  <path class="st15" d="M255.7,88.7c.6-.7,1.6-.4,2.4-.5v1.2c-1.8,0-1.2-.2-2.4-.7h0Z"/>
  <path class="st6" d="M133.4,203.1c.4,1.7-2.6,1.7-2.2,0,.7,0,1.4,0,2.2,0Z"/>
  <path class="st3" d="M102.2,224c.6,0,1.3,0,1.9,0v1.2c-.6,0-1.3,0-1.9,0v-1.2Z"/>
  <path class="st8" d="M250.1,90.4c.4,0,1.3-.5,1.9-.2v1.2c-.6,0-1.3,0-1.9,0v-1Z"/>
  <path class="st4" d="M64.5,238.1c0,.6,0,1.3,0,1.9-.3,0-.8,0-1.2,0v-1.8h1.2Z"/>
  <path class="st18" d="M130.2,200c.6,0,1.3,0,1.9,0v1.2c-.6,0-1.3,0-1.9,0v-1.2Z"/>
  <path class="st3" d="M246.1,224c.6,0,1.3,0,1.9,0v1.2c-.6,0-1.3,0-1.9,0v-1.2Z"/>
  <path class="st14" d="M242,224v1.2c-.6,0-1.3,0-1.9,0v-1.2c.6,0,1.3,0,1.9,0Z"/>
  <path class="st9" d="M158.1,269.1h1.2c0,.6,0,1.3,0,1.9h-1.2c0-.6,0-1.3,0-1.9Z"/>
  <path class="st7" d="M144.1,264v1c-.9.2-1.9-.2-2.6-.2.5-1,1.7-.7,2.6-.7Z"/>
  <path class="st6" d="M146.1,264c.7,0,1.4,0,2.2,0v1c-.7,0-1.4,0-2.2,0v-1Z"/>
  <path class="st13" d="M297.6,56.6c-.1.2-.1.8-.3.9-.2.2-1,0-1.4,0v-1.4c.6,0,1.1.2,1.7.5Z"/>
  <path class="st18" d="M312,65.2v2.2h-1c0-.7,0-1.4,0-2.2h1Z"/>
  <path class="st4" d="M157.1,266h1c0,.7,0,1.4,0,2.2h-1c0-.7,0-1.4,0-2.2Z"/>
  <path class="st3" d="M98.3,255.2v1c-.7,0-1.4,0-2.2,0v-1c.7,0,1.4,0,2.2,0h0Z"/>
  <path class="st21" d="M311.1,72.2c0,.7,0,1.4,0,2.2h-1c0-.7,0-1.4,0-2.2h1Z"/>
  <path class="st21" d="M159.5,279.1h-1.4c-.1-.6.2-1.2.2-1.7,1-.2,1.1.9,1.2,1.7Z"/>
  <path class="st3" d="M249.2,204.1h1v1.8h-1c0-.4,0-1.2,0-1.8Z"/>
  <path class="st4" d="M204.1,264v1c-.6,0-1.3,0-1.9,0v-1c.6,0,1.3,0,1.9,0Z"/>
  <path class="st10" d="M247,208.1c.1.5-.1,1.5,0,1.9h-1v-1.9c.3,0,.6,0,1,0Z"/>
  <path class="st4" d="M162.1,270c0,.6,0,1.3,0,1.9h-1c0-.6,0-1.3,0-1.9h1Z"/>
  <path class="st4" d="M216.1,225.2c.6,0,1.3,0,1.9,0v1c-.6,0-1.3,0-1.9,0v-1Z"/>
  <path class="st8" d="M269.1,91.4v-1h1.9v1c-.6,0-1.3,0-1.9,0Z"/>
  <path class="st4" d="M166.2,267.1c0,.6,0,1.3,0,1.9h-1c0-.6,0-1.3,0-1.9h1Z"/>
  <path class="st3" d="M199.1,273.1c0,.6,0,1.3,0,1.9h-1c0-.6,0-1.3,0-1.9h1Z"/>
  <path class="st13" d="M242,255.2v1c-.6,0-1.3,0-1.9,0v-1c.6,0,1.3,0,1.9,0h0Z"/>
  <path class="st3" d="M248,255.2v1c-.6,0-1.3,0-1.9,0v-1c.6,0,1.3,0,1.9,0h0Z"/>
  <path class="st17" d="M159.2,45.6h-1.2c-.2-.6.2-1.2.2-1.7,1.3-.1.8.9,1,1.7h0Z"/>
  <path class="st3" d="M110.1,271.9h1.4v1c0,0-.2.2-.2.2-.2,0-1.1,0-1.2,0v-1.2Z"/>
  <path class="st4" d="M285.2,80.1v1.4h-1.2v-1.4c.4,0,.8,0,1.2,0Z"/>
  <path class="st4" d="M110.1,266h1.4c0,.4,0,.8,0,1.2h-1.4c0-.4,0-.8,0-1.2Z"/>
  <path class="st13" d="M140.1,277.9c.3,0,1.4,0,1.4,0v1.2c-.5,0-1,0-1.4,0v-1.2Z"/>
  <path class="st21" d="M248,212h1.2c0,.4,0,.8,0,1.2h-1.2c0-.4,0-.8,0-1.2Z"/>
  <path class="st17" d="M273.2,176v1.2c-.4,0-.8,0-1.2,0v-1.2c.4,0,.8,0,1.2,0Z"/>
  <path class="st6" d="M224,271.9h1.2v1.2c-.4,0-.8,0-1.2,0,0-.4,0-.8,0-1.2Z"/>
  <path class="st4" d="M165.2,254v1.2c-.4,0-.8,0-1.2,0,0-.4,0-.8,0-1.2h1.2Z"/>
  <path class="st2" d="M172.2,111.3v-1.2h44.7v1.2c-14.6,0-30,.5-44.7,0h0Z"/>
  <path class="st8" d="M217.1,165.2v1c-11.5.1-23.1.6-34.7,0-.7,0-.2-.6-.4-1,11.3.6,23.6-.1,35,0h0Z"/>
  <path class="st17" d="M242,134.1l1.2.3c0,2.9,0,5.8,0,8.7h-1.2c.2-2.7.1-6.2,0-9h0Z"/>
  <path class="st1" d="M220.2,165.5c-.1.4.3.9-.4,1s-1.5,0-2.2,0c-.3,0-.6-.2-.6-.2v-1c1.1,0,2.1.2,3.1.2h0Z"/>
  <path class="st21" d="M291.4,76.7c.9-.2.7-.6.7-1.4h1v-1.2h.9c-.4-.6,1.9-1.5,1.9-1.4v1.7h-1v1.2h-1v1h-1v1h-1.4c0-.1-.3-.5-.2-.7h0Z"/>
  <path class="st7" d="M303.1,65.5v1.9h-1.2v1h-1v1.2s-1.9.3-1.9.3c-.2-1.8.1-1.2.8-1.7.2-.2,0-.5.2-.7.2-.2.5-.3,1-1,.2-.2.7-.1.9-.4.3-.4-.4-.9,1.2-.7h0Z"/>
  <path class="st6" d="M287.1,71.5c0-2.7,0-5.4,0-8.2.5,0,.9,0,1,.6.1.8.1,6.2,0,7-.1.6-.4.6-1,.6h0Z"/>
  <path class="st19" d="M263.1,49.2h1c.1,0-.1-1.5,0-2,.1-.4.8-.4.9-.8.2-.6-.1-1.4,0-2.1.1-.4,1.1-1.3,1.1-2h1.4c1,.7.3,14.1.5,16.2h-1v1c-1-.2-2.5.2-3.4,0-.5-.1-.8-1-1.6-1-.2-.2,0-5,0-5.2.1-.2.8-.5.8-.6v-3.5h0Z"/>
  <path class="st7" d="M91.1,237.2c-.2,1.2,0,3.5,0,4.8-1.4.4-1.1-3.2-1-4,0-.7.2-.9,1-.8Z"/>
  <path class="st10" d="M102.2,250.1c0,.4.3.9-.3,1-1,0-2.4,0-3.4,0-.7,0-.2-.6-.3-1,1.3,0,2.8,0,4.1,0h0Z"/>
  <path class="st10" d="M98.1,230c-.3-1.4,2.8-1,3.7-1,.7,0,.2.6.3,1-1.3,0-2.7,0-4.1,0h0Z"/>
  <path class="st18" d="M103.6,230.2c.4,0,1.1-.4,1.7-.2,0,0,0,.9,0,1.2-.9,0-1.8.2-1.7-1h0Z"/>
  <path class="st13" d="M53.5,242v8.1c-.4,0-.8,0-1.2,0,.1-2.7-.2-5.5,0-8.1h1.2Z"/>
  <path class="st13" d="M53.5,230v7.2h-1.2c-.1-2.4,0-4.8,0-7.2.4,0,.8,0,1.2,0h0Z"/>
  <path class="st7" d="M52.3,242c0-.3-.1-.9.1-1,1.9.1,3.9-.1,5.7,0,.7,0,.2.6.3,1-1.7,0-3.4,0-5,0h-1.2,0Z"/>
  <path class="st10" d="M62.1,244.1c.3,0,1.3,0,1.4,0v3.4c-.2.6-.9.3-1.2.4l-.2-3.8Z"/>
  <path class="st7" d="M53.5,237.2c1.3,0,2.7,0,4.1,0,0,.4.3.9-.3,1-1.6.1-3.2,0-4.8,0-.3,0-.1-.7-.1-1h1.2,0Z"/>
  <path class="st6" d="M61.2,232.1h1.2v2.7c0,.3-.9,0-1.2.1-.1-.8.2-2.1,0-2.9Z"/>
  <path class="st4" d="M58.3,230c.7,0,1.4,0,2.2,0,0,0,0,.9,0,1.2h-2.2v-1.2Z"/>
  <path class="st9" d="M210.1,230v8.1c-.3,0-.6,0-1,0v-8c0-.3.7-.1,1-.1h0Z"/>
  <path class="st21" d="M216.1,237.2c-.1.4.3.9-.4,1-1.7.1-4,.1-5.6,0v-1c1.9-.1,4.1.2,6,0h0Z"/>
  <path class="st15" d="M218,232.1h1.2v3.7h-1.2c.2-.5,0-2.9,0-3.7Z"/>
  <path class="st21" d="M202.2,270c-.1,1.2,0,2.8,0,4.1-.4-.1-.9.3-1-.4,0-1,0-2.4,0-3.4,0-.7.6-.2,1-.4h0Z"/>
  <path class="st21" d="M208.2,276c0,.2.2.9-.1,1-1.2,0-2.4,0-3.6,0-.7,0-.2-.6-.4-1,1.4,0,2.7,0,4.1,0Z"/>
  <path class="st10" d="M210.1,270c.4.1.9-.3,1,.4,0,.7,0,1.7,0,2.4,0,.7-.6.2-1,.4,0-.8,0-2.3,0-3.1h0Z"/>
  <path class="st6" d="M205.1,267.1l.4-1.2c.5,0,1.1,0,1.6,0v1.2c-.5,0-1.4,0-2,0h0Z"/>
  <path class="st13" d="M225,209.8c-1.3-.2-1.1-2.4-1-3.5s.5-.7,1-1.1c0,.9.5,1.6.5,2.5,0,.7-.5,1.5-.5,2.1h0Z"/>
  <path class="st14" d="M230,212v1.2c-.9,0-1.9,0-2.9,0v-1.2c.9,0,1.9,0,2.9,0Z"/>
  <path class="st7" d="M233.1,206c.4.1.9-.3,1,.4,0,.7,0,1.7,0,2.4,0,.7-.6.2-1,.4,0-.8,0-2.3,0-3.1h0Z"/>
  <path class="st18" d="M227.1,203.1c0-.2-.2-.9.1-1,.8,0,1.6,0,2.4,0,.7,0,.2.6.4,1-.9,0-1.9,0-2.9,0Z"/>
  <path class="st10" d="M231.2,212c0,.3,0,1.1,0,1.2-.4,0-.8,0-1.2,0v-1.2h1.2Z"/>
  <path class="st13" d="M141,273.6l-1-.4c.1-1-.3-2.9.3-3.6.1-.2.6-.2.6-.3.2.8.5,1.4.5,2.3s-.5,1.5-.5,2h0Z"/>
  <path class="st18" d="M143.2,267.1l.4-1.2h2.4v1.2c-.5,0-2.2-.1-2.7,0Z"/>
  <path class="st18" d="M149.2,270c.4.1.9-.3,1,.4,0,.7,0,1.7,0,2.4,0,.7-.6.2-1,.4,0-.8,0-2.3,0-3.1h0Z"/>
  <path class="st14" d="M146.3,276.5c0,0,0,.4-.6.5s-1.6,0-2.2,0c-.7,0-.2-.6-.4-1,1,0,2.6-.4,3.1.5h0Z"/>
  <path class="st7" d="M242,203.1c0-.3-.1-.9.1-1,1,.2,2.4-.6,2,1-.6,0-1.5,0-2.2,0,0,.9,0,1.9,0,2.9v1.2c-.3,0-.9.1-1-.1v-3.9h1Z"/>
  <path class="st9" d="M245.1,206v1.2c-1.1,0-2.1,0-3.1,0v-1.2c1,0,2.1,0,3.1,0Z"/>
  <path class="st19" d="M175.1,273.1h-2.9c0-.4,0-.8,0-1.2,0-.5.1-1,.4-1.4.4-.2.8-2.1,1.2-1.9.6.3.2,1.7.5,2.4.3.9.9.6.9,2.1h0Z"/>
  <path class="st7" d="M172.2,271.9c0,.4,0,.8,0,1.2h2.9v1h-3.8c.2-1-.6-2.5,1-2.2h0Z"/>
  <path class="st9" d="M196.2,206v1.2h-3.1c0-.4,0-.8,0-1.2,1,0,2.1,0,3.1,0Z"/>
  <path class="st7" d="M193.1,203.1c0-.3-.1-.9.1-1,.9,0,1.8,0,2.6,0,.7,0,.2.6.4,1-1,0-2.1,0-3.1,0h0Z"/>
  <path class="st4" d="M197.1,204.1h1v1.8c0,.3-.7.1-1,.1,0-.6,0-1.3,0-1.9Z"/>
</svg>