<svg data-name="Layer 1" xmlns="http://www.w3.org/2000/svg" xmlns:xlink="http://www.w3.org/1999/xlink" viewBox="0 0 196 82"><defs><linearGradient id="a" x1="20.09" y1="59.7" x2="20.09" y2="7.04" gradientUnits="userSpaceOnUse"><stop offset="0"/><stop offset=".21" stop-color="#040404"/><stop offset=".4" stop-color="#0f0f0f"/><stop offset=".59" stop-color="#222"/><stop offset=".78" stop-color="#3d3d3d"/><stop offset=".97" stop-color="#5f5f5f"/><stop offset="1" stop-color="#666"/></linearGradient><linearGradient id="b" x1="68.9" y1="60.31" x2="68.9" y2="7.21" xlink:href="#a"/><linearGradient id="c" x1="119.69" y1="59.7" x2="119.69" y2="7.04" xlink:href="#a"/><linearGradient id="d" x1="168.78" y1="60.26" x2="168.78" y2="7.75" xlink:href="#a"/></defs><path d="M3.28 7H8v22.13h24.15V7h4.74v52.7h-4.74V34.28H8V59.7H3.28V7z" fill="url(#a)"/><path d="M91.59 17l-3.71 3.71a28.34 28.34 0 00-8.77-6.31 22.56 22.56 0 00-9.29-2.15 21.25 21.25 0 00-10.72 2.92 20.6 20.6 0 00-7.89 7.92 21.31 21.31 0 00-2.8 10.57 21.75 21.75 0 002.9 10.84 21.12 21.12 0 008 8.08 22.07 22.07 0 0011.2 2.94A18.49 18.49 0 0083 51.1a17.62 17.62 0 006-11.41H73.78v-4.88h20.64q-.07 11.72-6.59 18.61t-17.46 6.89q-13.28 0-21-9.55a26.24 26.24 0 01-6-17 27.2 27.2 0 013.43-13.38 25 25 0 019.37-9.67 26.17 26.17 0 0113.48-3.5 28.59 28.59 0 0111.46 2.32A34.12 34.12 0 0191.59 17z" fill="url(#b)"/><path d="M100.66 59.7V7h1.05l32.23 40.36V7h4.77v52.7h-1.09l-32-39.87V59.7h-5z" fill="url(#c)"/><path d="M192.79 18.28l-3.87 3a21.26 21.26 0 00-7.7-6.44 22.19 22.19 0 00-9.87-2.19 21.5 21.5 0 00-10.88 2.87 20.43 20.43 0 00-7.76 7.71A21.65 21.65 0 00150 34.15a20.64 20.64 0 006.16 15.26 21.14 21.14 0 0015.54 6.12 21.7 21.7 0 0017.26-8.22l3.87 3a24.83 24.83 0 01-9.16 7.36 28.32 28.32 0 01-12.27 2.6q-12.89 0-20.33-8.74a26.64 26.64 0 01-6.24-17.81 25 25 0 017.56-18.47q7.56-7.49 18.95-7.49a27.39 27.39 0 0112.42 2.77 24.22 24.22 0 019.03 7.75z" fill="url(#d)"/><rect x="3.33" y="65.7" width="189.21" height="2.17" rx="1.08" ry="1.08"/><text transform="matrix(.99 0 0 1 3.33 79.54)" font-size="10.95" font-family="Arial,Helvetica,sans-serif">HUGO Gene Nomenclature Committee</text></svg>